<?xml version="1.0" encoding="UTF-8"?>
<svg version="1.1" xmlns="http://www.w3.org/2000/svg" width="651" height="383">
<path d="M0 0 C1.78011475 0.00628418 1.78011475 0.00628418 3.59619141 0.01269531 C12.69410907 0.12935119 21.01181334 0.98646039 29.8125 3.3125 C30.89789063 3.57933594 31.98328125 3.84617187 33.1015625 4.12109375 C48.2506579 8.26774395 63.47465107 16.65679214 75.8125 26.3125 C75.8125 26.9725 75.8125 27.6325 75.8125 28.3125 C76.39515625 28.5703125 76.9778125 28.828125 77.578125 29.09375 C79.9927903 30.41084017 81.62990177 31.86338384 83.5625 33.8125 C84.17609375 34.4209375 84.7896875 35.029375 85.421875 35.65625 C86.8125 37.3125 86.8125 37.3125 86.8125 39.3125 C87.4725 39.3125 88.1325 39.3125 88.8125 39.3125 C103.56586072 56.59926609 111.99881327 77.04881528 115.8125 99.3125 C115.99683594 100.22773438 116.18117187 101.14296875 116.37109375 102.0859375 C120.2460885 130.41112039 112.1215317 157.09721559 97.8125 181.3125 C97.1525 181.3125 96.4925 181.3125 95.8125 181.3125 C95.503125 182.09625 95.19375 182.88 94.875 183.6875 C93.8125 186.3125 93.8125 186.3125 92.8125 188.3125 C92.1525 188.3125 91.4925 188.3125 90.8125 188.3125 C90.55855469 188.88226563 90.30460938 189.45203125 90.04296875 190.0390625 C86.33183803 196.8958183 79.89753338 202.56617396 73.8125 207.3125 C73.1525 207.3125 72.4925 207.3125 71.8125 207.3125 C71.8125 207.9725 71.8125 208.6325 71.8125 209.3125 C69.29296875 211.0390625 69.29296875 211.0390625 66 212.9375 C64.92105469 213.56914062 63.84210938 214.20078125 62.73046875 214.8515625 C59.8125 216.3125 59.8125 216.3125 56.8125 216.3125 C56.8125 216.9725 56.8125 217.6325 56.8125 218.3125 C38.03671245 227.55137959 20.94913024 231.74852027 0.0625 231.875 C-1.03093216 231.88841431 -1.03093216 231.88841431 -2.14645386 231.90209961 C-13.967374 231.99928567 -27.68389913 231.3181716 -38.1875 225.3125 C-38.1875 224.6525 -38.1875 223.9925 -38.1875 223.3125 C-37.53265625 223.40337891 -36.8778125 223.49425781 -36.203125 223.58789062 C-33.19865108 224.00164233 -30.19311518 224.40712541 -27.1875 224.8125 C-26.15753906 224.95558594 -25.12757812 225.09867188 -24.06640625 225.24609375 C3.34044054 228.91197772 34.25503272 220.80397505 56.375 203.9375 C56.99503906 203.43476563 57.61507812 202.93203125 58.25390625 202.4140625 C59.8125 201.3125 59.8125 201.3125 61.8125 201.3125 C61.8125 200.6525 61.8125 199.9925 61.8125 199.3125 C63.38671875 197.796875 63.38671875 197.796875 65.5 196.0625 C68.16599133 193.81174272 70.52260091 191.61200455 72.6875 188.875 C73.38875 188.029375 74.09 187.18375 74.8125 186.3125 C75.4725 186.3125 76.1325 186.3125 76.8125 186.3125 C77.04582031 185.80203125 77.27914062 185.2915625 77.51953125 184.765625 C78.92510892 182.09884924 80.54200992 179.60809896 82.18896484 177.08544922 C90.48185767 164.2893766 96.23567134 151.17700905 99.8125 136.3125 C100.03808594 135.38050781 100.26367188 134.44851562 100.49609375 133.48828125 C102.05889438 126.10539553 102.01012148 118.8330954 101.8125 111.3125 C100.8225 111.3125 99.8325 111.3125 98.8125 111.3125 C98.78671875 112.10269531 98.7609375 112.89289063 98.734375 113.70703125 C97.34733695 141.29017419 87.72469241 171.13816291 66.8125 190.3125 C66.1525 190.3125 65.4925 190.3125 64.8125 190.3125 C64.8125 190.9725 64.8125 191.6325 64.8125 192.3125 C64.1525 192.3125 63.4925 192.3125 62.8125 192.3125 C62.8125 192.9725 62.8125 193.6325 62.8125 194.3125 C58.99381545 197.54319759 54.86967159 200.38975124 50.8125 203.3125 C50.09707031 203.86679687 49.38164062 204.42109375 48.64453125 204.9921875 C29.62621341 219.03765177 -0.22797753 224.68818962 -23.27783203 221.50024414 C-24.09364746 221.37641357 -24.90946289 221.25258301 -25.75 221.125 C-26.6147998 220.99407959 -27.47959961 220.86315918 -28.37060547 220.72827148 C-36.61229216 219.39000091 -44.34083174 217.1249575 -52.1875 214.3125 C-53.10789063 213.99410156 -54.02828125 213.67570313 -54.9765625 213.34765625 C-64.36990167 209.87361176 -73.3560154 204.54209003 -81.1875 198.3125 C-81.1875 197.6525 -81.1875 196.9925 -81.1875 196.3125 C-81.77015625 196.0546875 -82.3528125 195.796875 -82.953125 195.53125 C-85.3677903 194.21415983 -87.00490177 192.76161616 -88.9375 190.8125 C-89.55109375 190.2040625 -90.1646875 189.595625 -90.796875 188.96875 C-92.1875 187.3125 -92.1875 187.3125 -92.1875 185.3125 C-92.8475 185.3125 -93.5075 185.3125 -94.1875 185.3125 C-113.34772988 159.19292226 -119.34789624 126.91139081 -114.50390625 95.25683594 C-113.14896268 86.93062407 -111.13385737 79.49058571 -107.41796875 71.90625 C-106.27882541 69.50500816 -105.42056223 67.13640164 -104.5625 64.625 C-98.46169606 49.25097407 -85.22983369 34.23601476 -72.1875 24.3125 C-71.5275 24.3125 -70.8675 24.3125 -70.1875 24.3125 C-70.1875 23.6525 -70.1875 22.9925 -70.1875 22.3125 C-66.39237907 19.65304026 -62.25359818 17.52842726 -58.1875 15.3125 C-57.57745117 14.97347656 -56.96740234 14.63445312 -56.33886719 14.28515625 C-46.0292931 8.6022917 -35.68303292 4.84537241 -24.1875 2.3125 C-22.93706909 2.03321655 -22.93706909 2.03321655 -21.66137695 1.74829102 C-14.4175958 0.27116128 -7.38042346 -0.03569987 0 0 Z M-13.1875 62.3125 C-16.77866332 66.81425024 -17.67600015 69.73524103 -17.578125 75.4609375 C-17.56963531 76.44702499 -17.56963531 76.44702499 -17.56097412 77.45303345 C-17.53876275 79.53196191 -17.4886042 81.60910163 -17.4375 83.6875 C-17.41741489 85.10544368 -17.39916765 86.52341465 -17.3828125 87.94140625 C-17.33895067 91.39900877 -17.27003437 94.85557951 -17.1875 98.3125 C-17.99904541 98.29155273 -18.81059082 98.27060547 -19.64672852 98.24902344 C-23.34769142 98.16552916 -27.04845566 98.11373245 -30.75 98.0625 C-32.02681641 98.02898437 -33.30363281 97.99546875 -34.61914062 97.9609375 C-41.69733539 97.88739781 -46.50699579 97.90242194 -52.1875 102.3125 C-55.81650737 105.94150737 -57.23346111 109.28211313 -58.1875 114.3125 C-57.84917332 120.74070695 -56.01420792 125.25159875 -51.75 130.0625 C-47.35261059 133.9236224 -44.5350304 134.56111391 -38.671875 134.5078125 C-37.42148438 134.50136719 -36.17109375 134.49492187 -34.8828125 134.48828125 C-33.58085938 134.47152344 -32.27890625 134.45476562 -30.9375 134.4375 C-28.96136719 134.42396484 -28.96136719 134.42396484 -26.9453125 134.41015625 C-23.69252538 134.38658533 -20.44010411 134.35368022 -17.1875 134.3125 C-17.20844727 135.1595752 -17.22939453 136.00665039 -17.25097656 136.87939453 C-17.31944055 140.04390393 -17.36943987 143.20803391 -17.40722656 146.37304688 C-17.42725319 147.73873368 -17.45448332 149.10433569 -17.48925781 150.46972656 C-17.53816432 152.44037102 -17.55841347 154.41165983 -17.578125 156.3828125 C-17.59907227 157.56633301 -17.62001953 158.74985352 -17.64160156 159.96923828 C-16.95130492 165.0514545 -14.46860729 168.09881941 -10.8125 171.5625 C-6.7293356 174.2846096 -3.68551617 175.39420997 1.25 175.125 C8.52888028 173.4649045 12.55588861 171.32183373 16.8125 165.3125 C17.93161712 161.95514863 17.92615586 159.43044614 17.91015625 155.89453125 C17.90693359 154.64091797 17.90371094 153.38730469 17.90039062 152.09570312 C17.89201172 150.78537109 17.88363281 149.47503906 17.875 148.125 C17.86998317 146.78971519 17.86542059 145.45442859 17.86132812 144.11914062 C17.84952695 140.85021527 17.83306297 137.58138009 17.8125 134.3125 C18.62404541 134.33344727 19.43559082 134.35439453 20.27172852 134.37597656 C23.97269142 134.45947084 27.67345566 134.51126755 31.375 134.5625 C32.65181641 134.59601563 33.92863281 134.62953125 35.24414062 134.6640625 C42.31126409 134.73748716 47.10615757 134.67163076 52.8125 130.3125 C52.8125 129.6525 52.8125 128.9925 52.8125 128.3125 C53.4725 128.3125 54.1325 128.3125 54.8125 128.3125 C58.33783905 123.80006601 59.17314289 118.80745742 58.59765625 113.23046875 C57.55838223 108.05389435 55.57984209 104.99422068 51.8125 101.3125 C47.40315227 98.66978556 44.21703232 97.94913488 39.1015625 98.01953125 C37.23564453 98.0340332 37.23564453 98.0340332 35.33203125 98.04882812 C34.04683594 98.07396484 32.76164062 98.09910156 31.4375 98.125 C30.12910156 98.13853516 28.82070312 98.15207031 27.47265625 98.16601562 C24.25218156 98.2012763 21.03255394 98.25056367 17.8125 98.3125 C17.83344727 97.50619141 17.85439453 96.69988281 17.87597656 95.86914062 C17.95959173 92.18372273 18.01130549 88.49850506 18.0625 84.8125 C18.09601563 83.5440625 18.12953125 82.275625 18.1640625 80.96875 C18.24090716 73.59166286 17.97683479 68.50313008 13.8125 62.3125 C5.68336199 55.43938196 -4.84971408 56.16886827 -13.1875 62.3125 Z M86.375 72.875 C84.21789092 76.24009017 84.24261492 78.39454004 84.8125 82.3125 C86.27291766 84.42920357 86.27291766 84.42920357 88.8125 85.3125 C93.50117041 85.86326849 93.50117041 85.86326849 97.6875 84.0625 C98.99876396 82.02275607 99.59832164 80.7398548 99.8125 78.3125 C98.86469877 75.25037293 98.09045022 73.59045022 95.8125 71.3125 C91.95743238 70.88415915 89.68449635 70.75352798 86.375 72.875 Z " fill="#7BB730" transform="translate(131.1875,75.6875)"/>
<path d="M0 0 C3.81030463 1.14991291 4.72712264 2.40111344 6.9296875 5.671875 C7.93128906 7.14333984 7.93128906 7.14333984 8.953125 8.64453125 C12.40204141 14.02304587 15.77617659 19.43734478 19.0546875 24.921875 C21.64793041 21.86058337 23.90432622 18.67655157 26.078125 15.3125 C26.6246875 14.47589844 27.17125 13.63929688 27.734375 12.77734375 C28.86943202 11.0329128 29.99177759 9.28014797 31.1015625 7.51953125 C35.26447449 1.2165307 35.26447449 1.2165307 39.28125 -0.28125 C42.0546875 -0.078125 42.0546875 -0.078125 45.0546875 1.921875 C45.4289093 4.04711914 45.4289093 4.04711914 45.42700195 6.70703125 C45.43634514 8.19867798 45.43634514 8.19867798 45.44587708 9.72045898 C45.43666733 10.79755127 45.42745758 11.87464355 45.41796875 12.984375 C45.41871651 14.63771851 45.41871651 14.63771851 45.41947937 16.32446289 C45.41713578 18.65805867 45.40739062 20.99165684 45.39086914 23.32519531 C45.36728459 26.90712979 45.37030522 30.48832019 45.37695312 34.0703125 C45.37137646 36.33333779 45.36426665 38.59635994 45.35546875 40.859375 C45.35638016 41.93646729 45.35729156 43.01355957 45.35823059 44.12329102 C45.34869858 45.11772217 45.33916656 46.11215332 45.3293457 47.13671875 C45.32473831 48.01448975 45.32013092 48.89226074 45.31538391 49.79663086 C45.0546875 51.921875 45.0546875 51.921875 43.0546875 53.921875 C40.0546875 54.171875 40.0546875 54.171875 37.0546875 53.921875 C34.26291181 51.13009931 34.74255266 49.29003928 34.640625 45.3828125 C34.58261719 43.42988281 34.58261719 43.42988281 34.5234375 41.4375 C34.49197987 40.05729638 34.46073259 38.67708796 34.4296875 37.296875 C34.39150816 35.90882959 34.35245645 34.52080789 34.3125 33.1328125 C34.21795807 29.72930315 34.13240853 26.32580335 34.0546875 22.921875 C33.75288574 23.40132568 33.45108398 23.88077637 33.14013672 24.37475586 C31.75590274 26.54926448 30.34343949 28.70395261 28.9296875 30.859375 C28.4553125 31.61412109 27.9809375 32.36886719 27.4921875 33.14648438 C23.83958345 38.65007021 23.83958345 38.65007021 19.83984375 40.03515625 C17.0546875 39.921875 17.0546875 39.921875 14.6171875 38.171875 C11.07539321 33.67984322 8.12581505 28.74793258 5.0546875 23.921875 C4.7246875 33.161875 4.3946875 42.401875 4.0546875 51.921875 C3.3946875 51.921875 2.7346875 51.921875 2.0546875 51.921875 C2.0546875 52.581875 2.0546875 53.241875 2.0546875 53.921875 C-0.8203125 54.046875 -0.8203125 54.046875 -3.9453125 53.921875 C-6.4523745 51.414813 -6.20178423 50.60148967 -6.2199707 47.13671875 C-6.22950272 46.1422876 -6.23903473 45.14785645 -6.24885559 44.12329102 C-6.24794418 43.04619873 -6.24703278 41.96910645 -6.24609375 40.859375 C-6.25037888 39.757146 -6.254664 38.65491699 -6.25907898 37.51928711 C-6.26482949 35.18571663 -6.26531727 32.85212823 -6.26098633 30.51855469 C-6.25782544 26.93654002 -6.28128065 23.35535001 -6.30664062 19.7734375 C-6.30891334 17.51041771 -6.30961725 15.2473957 -6.30859375 12.984375 C-6.3178035 11.90728271 -6.32701324 10.83019043 -6.33650208 9.72045898 C-6.33027328 8.72602783 -6.32404449 7.73159668 -6.31762695 6.70703125 C-6.31857109 5.39037476 -6.31857109 5.39037476 -6.3195343 4.04711914 C-6.19604111 3.34578857 -6.07254791 2.64445801 -5.9453125 1.921875 C-2.9453125 -0.078125 -2.9453125 -0.078125 0 0 Z " fill="#FDDE5C" transform="translate(267.9453125,162.078125)"/>
<path d="M0 0 C1.08539062 -0.01224609 2.17078125 -0.02449219 3.2890625 -0.03710938 C12.03447151 -0.05314619 18.68057171 1.12956004 25.25 7.1875 C31.19248766 14.89617594 32.00398169 23.80461672 31.25 33.1875 C30.10341893 39.97063509 27.75915762 45.83645606 22.25 50.1875 C15.12410608 54.79935191 8.78116613 54.79441297 0.4375 54.6875 C-0.78904297 54.70296875 -2.01558594 54.7184375 -3.27929688 54.734375 C-4.45169922 54.72921875 -5.62410156 54.7240625 -6.83203125 54.71875 C-8.42881714 54.71198242 -8.42881714 54.71198242 -10.05786133 54.70507812 C-12.75 54.1875 -12.75 54.1875 -14.39498901 52.43774414 C-15.91654767 49.91091707 -16.12467546 48.58611391 -16.12231445 45.66601562 C-16.12854324 44.77829468 -16.13477203 43.89057373 -16.14118958 42.97595215 C-16.13197983 42.02482544 -16.12277008 41.07369873 -16.11328125 40.09375 C-16.11377975 39.11007446 -16.11427826 38.12639893 -16.11479187 37.11291504 C-16.11245342 35.0350543 -16.10273843 32.95719062 -16.08618164 30.87939453 C-16.06258745 27.69928654 -16.06562284 24.52001705 -16.07226562 21.33984375 C-16.06668873 19.3203075 -16.05957878 17.30077479 -16.05078125 15.28125 C-16.05214836 13.85455994 -16.05214836 13.85455994 -16.05354309 12.39904785 C-16.04401108 11.5113269 -16.03447906 10.62360596 -16.0246582 9.70898438 C-16.01774712 8.54127502 -16.01774712 8.54127502 -16.01069641 7.34997559 C-15.71432481 4.89157447 -15.05498801 3.284166 -13.75 1.1875 C-9.68846528 -0.84326736 -4.46379311 0.00261346 0 0 Z M-3.75 10.1875 C-3.75 21.4075 -3.75 32.6275 -3.75 44.1875 C8.80416191 45.15845589 8.80416191 45.15845589 13.9375 42.5 C17.38763465 39.04986535 19.09675162 36.55621837 19.6484375 31.62890625 C19.64070312 30.34886719 19.63296875 29.06882813 19.625 27.75 C19.63273438 26.47253906 19.64046875 25.19507813 19.6484375 23.87890625 C19.1330407 19.10390647 17.84182456 15.63009101 14.25 12.375 C8.11665673 8.73332743 4.65675558 10.1875 -3.75 10.1875 Z " fill="#FBE276" transform="translate(511.75,161.8125)"/>
<path d="M0 0 C0.99 1.485 0.99 1.485 2 3 C1.08977798 6.56503624 -0.25833355 9.76547659 -2 13 C-2.66 13 -3.32 13 -4 13 C-3.82082031 13.65226563 -3.64164063 14.30453125 -3.45703125 14.9765625 C-1.69811321 22.20411664 -1.69811321 22.20411664 -3.375 26.625 C-3.91125 27.40875 -4.4475 28.1925 -5 29 C-3.02 28.01 -1.04 27.02 1 26 C1.33 26.66 1.66 27.32 2 28 C0.6875 30.625 0.6875 30.625 -1 33 C-1.66 33 -2.32 33 -3 33 C-3.25394531 33.56976563 -3.50789062 34.13953125 -3.76953125 34.7265625 C-7.48066197 41.5833183 -13.91496662 47.25367396 -20 52 C-20.66 52 -21.32 52 -22 52 C-22 52.66 -22 53.32 -22 54 C-24.51953125 55.7265625 -24.51953125 55.7265625 -27.8125 57.625 C-28.89144531 58.25664062 -29.97039062 58.88828125 -31.08203125 59.5390625 C-34 61 -34 61 -37 61 C-37 61.66 -37 62.32 -37 63 C-55.77578755 72.23887959 -72.86336976 76.43602027 -93.75 76.5625 C-94.47895477 76.57144287 -95.20790955 76.58038574 -95.95895386 76.58959961 C-107.779874 76.68678567 -121.49639913 76.0056716 -132 70 C-132 69.34 -132 68.68 -132 68 C-131.34515625 68.09087891 -130.6903125 68.18175781 -130.015625 68.27539062 C-127.01115108 68.68914233 -124.00561518 69.09462541 -121 69.5 C-119.97003906 69.64308594 -118.94007812 69.78617187 -117.87890625 69.93359375 C-90.47205946 73.59947772 -59.55746728 65.49147505 -37.4375 48.625 C-36.81746094 48.12226563 -36.19742188 47.61953125 -35.55859375 47.1015625 C-34 46 -34 46 -32 46 C-32 45.34 -32 44.68 -32 44 C-30.42578125 42.484375 -30.42578125 42.484375 -28.3125 40.75 C-25.64650867 38.49924272 -23.28989909 36.29950455 -21.125 33.5625 C-20.42375 32.716875 -19.7225 31.87125 -19 31 C-18.34 31 -17.68 31 -17 31 C-16.71552002 30.41226807 -16.43104004 29.82453613 -16.13793945 29.21899414 C-15.11427167 27.22283098 -14.01455056 25.37510867 -12.79296875 23.49609375 C-7.90447179 15.88467583 -3.39210921 8.4267134 0 0 Z " fill="#83B93E" transform="translate(225,231)"/>
<path d="M0 0 C1.625 0.828125 1.625 0.828125 3.875 2.328125 C4.205 1.338125 4.535 0.348125 4.875 -0.671875 C8.25 -0.859375 8.25 -0.859375 11.875 -0.671875 C14.37446559 3.07732339 14.18097184 6.04773705 14.17578125 10.390625 C14.18006638 11.17832275 14.1843515 11.96602051 14.18876648 12.77758789 C14.19450579 14.44188476 14.19501297 16.10620671 14.19067383 17.77050781 C14.18751158 20.31879334 14.21098449 22.86592033 14.23632812 25.4140625 C14.23860092 27.03124853 14.23930471 28.64843769 14.23828125 30.265625 C14.247491 31.02818604 14.25670074 31.79074707 14.26618958 32.57641602 C14.22048738 37.79200828 14.22048738 37.79200828 12.57104492 40.3515625 C9.69846472 42.00556003 7.00589593 40.94312241 3.875 40.328125 C0.79827196 40.16717363 0.79827196 40.16717363 -2.25 41.390625 C-8.38641502 42.87524154 -13.04581589 42.44197363 -18.625 39.453125 C-21.125 37.328125 -21.125 37.328125 -22.125 34.328125 C-22.785 34.328125 -23.445 34.328125 -24.125 34.328125 C-27.51477374 25.79315898 -28.50659816 18.26114892 -25.31640625 9.4765625 C-20.11816623 0.10268705 -10.07167798 -3.1844276 0 0 Z M-14.125 11.328125 C-17.27899218 16.76604255 -17.60126634 20.22622412 -16.125 26.328125 C-14.55638399 29.2771231 -13.45104279 30.82202338 -10.29296875 32.02734375 C-6.0715067 32.90715133 -4.50602776 32.56803137 -0.75 30.203125 C1.75986711 27.45422292 3.08520179 25.92609463 3.875 22.328125 C3.59957079 17.92125763 2.45566248 14.90134997 -0.125 11.328125 C-4.38040356 8.4911893 -9.95943081 7.90640745 -14.125 11.328125 Z " fill="#FDDE5C" transform="translate(472.125,174.671875)"/>
<path d="M0 0 C1.11375 0.495 1.11375 0.495 2.25 1 C2.58 0.34 2.91 -0.32 3.25 -1 C6.625 -1.1875 6.625 -1.1875 10.25 -1 C12.72420127 2.71130191 12.5220996 5.55241735 12.48046875 9.84375 C12.48001053 10.60925171 12.47955231 11.37475342 12.4790802 12.16345215 C12.47606142 13.78069612 12.46818625 15.39793728 12.45581055 17.01513672 C12.43756879 19.4906647 12.43530084 21.96581811 12.43554688 24.44140625 C12.43063081 26.01302407 12.42480211 27.58463935 12.41796875 29.15625 C12.41685593 29.89693726 12.4157431 30.63762451 12.41459656 31.40075684 C12.38567801 34.53208518 12.24764909 37.00705273 11.25 40 C4.625 41.25 4.625 41.25 1.25 39 C-0.77158584 39.46121281 -0.77158584 39.46121281 -2.875 40.4375 C-7.73599704 42.22964573 -11.73925355 42.27424336 -16.75 41 C-18.10192984 40.37190134 -19.44164778 39.71444852 -20.75 39 C-20.75 38.34 -20.75 37.68 -20.75 37 C-21.37390625 36.75121094 -21.9978125 36.50242188 -22.640625 36.24609375 C-25.8560006 34.34664039 -26.2014413 32.09178523 -27.20703125 28.625 C-28.94664209 20.21479505 -28.16103476 12.46379358 -23.75 5 C-17.27302425 -2.18746034 -8.99761214 -2.39936324 0 0 Z M-16.75 13 C-18.59343062 16.68686123 -18.1056682 20.96697667 -17.75 25 C-16.51576373 27.96216705 -15.51521228 29.3764937 -13.0625 31.375 C-9.46955024 32.3460675 -6.29677838 32.11428561 -2.75 31 C0.27427337 28.36345398 1.11642544 26.48086841 2.1875 22.625 C2.27558328 17.51616965 0.93914371 13.8701234 -2.5 10.0625 C-8.23553463 7.35405309 -12.43046536 8.68046536 -16.75 13 Z " fill="#FCDF63" transform="translate(349.75,175)"/>
<path d="M0 0 C2.1875 1.1015625 2.1875 1.1015625 5.375 3.1015625 C5.375 3.7615625 5.375 4.4215625 5.375 5.1015625 C6.035 5.1015625 6.695 5.1015625 7.375 5.1015625 C11.39254995 10.93348985 12.47937071 16.02522861 12.375 23.1015625 C11.09223551 29.72917904 8.45140995 34.64047497 3.375 39.1015625 C-2.0455463 42.25680587 -8.64273428 42.73396231 -14.75 41.5390625 C-20.46347512 39.75793868 -25.067595 36.85795601 -28.05078125 31.578125 C-31.12875342 24.0259871 -31.20569392 17.85958658 -28.3125 10.2890625 C-26.69867507 7.24072652 -25.29919209 5.25816902 -22.625 3.1015625 C-21.965 3.1015625 -21.305 3.1015625 -20.625 3.1015625 C-20.625 2.4415625 -20.625 1.7815625 -20.625 1.1015625 C-14.27083091 -1.84564023 -6.66429934 -2.28093579 0 0 Z M-16.625 11.1015625 C-19.79216439 16.56219075 -19.95405422 19.9674661 -18.625 26.1015625 C-17.965 27.0915625 -17.305 28.0815625 -16.625 29.1015625 C-15.965 29.1015625 -15.305 29.1015625 -14.625 29.1015625 C-14.625 29.7615625 -14.625 30.4215625 -14.625 31.1015625 C-9.10121514 32.24340405 -9.10121514 32.24340405 -3.8125 30.9140625 C0.13140616 27.7257818 0.13140616 27.7257818 1.66015625 23.01953125 C1.84135961 18.26885181 1.56435892 14.8604498 -1.625 11.1015625 C-5.79092435 7.97711924 -12.55145248 7.75543418 -16.625 11.1015625 Z " fill="#FCDF64" transform="translate(578.625,174.8984375)"/>
<path d="M0 0 C2.59201219 1.5045588 4.8778079 2.8778079 7 5 C6.71269945 7.33944736 6.38063221 9.6739143 6 12 C-0.75 12.125 -0.75 12.125 -3 11 C-8.85542953 10.39508475 -8.85542953 10.39508475 -13.9375 13 C-16.49052331 16.71348845 -17.19182662 19.52695198 -17 24 C-16.18156968 27.3815339 -16.18156968 27.3815339 -15 30 C-14.34 30 -13.68 30 -13 30 C-13 30.66 -13 31.32 -13 32 C-11.58376784 32.05447047 -10.16691809 32.09300508 -8.75 32.125 C-7.96109375 32.14820313 -7.1721875 32.17140625 -6.359375 32.1953125 C-3.77160868 31.98109343 -2.25831182 31.23094564 0 30 C2.5625 29.625 2.5625 29.625 5 30 C6.9375 31.6875 6.9375 31.6875 8 34 C7.35141585 37.32399377 6.52438356 38.62504742 3.765625 40.59765625 C-2.18670213 43.61585602 -9.48194661 43.75538076 -15.875 42 C-21.33785388 39.83865309 -24.61537026 35.85997659 -27.1328125 30.66015625 C-29.38081083 23.76426947 -28.93998834 16.10260008 -26 9.5 C-20.08541819 -0.531915 -11.12108996 -1.75659918 0 0 Z " fill="#FCDD5F" transform="translate(625,174)"/>
<path d="M0 0 C0.33 1.32 0.66 2.64 1 4 C2.65 4.33 4.3 4.66 6 5 C6.33 15.23 6.66 25.46 7 36 C10.17625 36.144375 13.3525 36.28875 16.625 36.4375 C17.6145166 36.50122803 18.6040332 36.56495605 19.62353516 36.63061523 C23.22773209 36.70966423 25.93102926 36.72817594 28.97192383 34.65673828 C31.78598514 31.6764578 32.89876026 29.5705082 33.62109375 25.5 C33.56050781 24.345 33.49992188 23.19 33.4375 22 C33.38851562 20.78570312 33.33953125 19.57140625 33.2890625 18.3203125 C33.06881358 15.79042624 32.77624654 13.36628958 32.3125 10.875 C32 8 32 8 33.4375 5.5625 C33.953125 5.046875 34.46875 4.53125 35 4 C36.32 4.33 37.64 4.66 39 5 C39.495 7.475 39.495 7.475 40 10 C40.66 10 41.32 10 42 10 C42.05429278 12.70860665 42.09381211 15.41610901 42.125 18.125 C42.14175781 18.88554687 42.15851562 19.64609375 42.17578125 20.4296875 C42.21562068 25.05106136 41.71807676 28.64021874 40 33 C39.7525 34.010625 39.505 35.02125 39.25 36.0625 C37.65415988 39.81272428 35.52852679 42.05874091 32 44 C25.3774411 45.20206537 18.77709257 45.15032216 12.0625 45.125 C11.00998047 45.12886719 9.95746094 45.13273437 8.87304688 45.13671875 C7.87466797 45.13542969 6.87628906 45.13414062 5.84765625 45.1328125 C4.94023682 45.13168457 4.03281738 45.13055664 3.09790039 45.12939453 C1 45 1 45 0 44 C-0.0927833 42.61839885 -0.11747043 41.23211962 -0.11352539 39.84741211 C-0.11341209 38.52615578 -0.11341209 38.52615578 -0.11329651 37.1782074 C-0.10555458 35.74227989 -0.10555458 35.74227989 -0.09765625 34.27734375 C-0.0962413 33.30213272 -0.09482635 32.32692169 -0.09336853 31.32215881 C-0.08775133 28.19390857 -0.07519593 25.06572877 -0.0625 21.9375 C-0.05748722 19.82226666 -0.05292393 17.70703219 -0.04882812 15.59179688 C-0.03777631 10.39450704 -0.02102146 5.19725855 0 0 Z " fill="#FDDE5A" transform="translate(499,170)"/>
<path d="M0 0 C0.33 2.64 0.66 5.28 1 8 C1.928125 7.95875 2.85625 7.9175 3.8125 7.875 C7 8 7 8 10 10 C10.3125 13 10.3125 13 10 16 C9.34 16.66 8.68 17.32 8 18 C5.69 18 3.38 18 1 18 C1 24.93 1 31.86 1 39 C3.64 39 6.28 39 9 39 C9.33 41.31 9.66 43.62 10 46 C7.37072604 48.74359022 5.23366026 49.26486519 1.5625 49.375 C-2.37901943 49.23237923 -4.91705186 48.61583478 -8 46 C-10.07024861 42.74300197 -10.23593409 40.17780482 -10.1953125 36.359375 C-10.18886719 35.28945312 -10.18242187 34.21953125 -10.17578125 33.1171875 C-10.15902344 32.00601563 -10.14226562 30.89484375 -10.125 29.75 C-10.11597656 28.62335938 -10.10695313 27.49671875 -10.09765625 26.3359375 C-10.07410658 23.55707635 -10.0412168 20.7786461 -10 18 C-10.78375 18.04125 -11.5675 18.0825 -12.375 18.125 C-15 18 -15 18 -17 16 C-17.3125 13 -17.3125 13 -17 10 C-14 8 -14 8 -10 8 C-10.061875 7.071875 -10.12375 6.14375 -10.1875 5.1875 C-10 2 -10 2 -8.9375 0.0625 C-5.87530347 -1.61676907 -3.30629059 -0.68621125 0 0 Z " fill="#FBE068" transform="translate(428,167)"/>
<path d="M0 0 C2.21104263 1.64274634 2.92190258 2.53325485 3.38095093 5.2767334 C3.38333771 6.16703247 3.38572449 7.05733154 3.38818359 7.97460938 C3.40236832 9.4913324 3.40236832 9.4913324 3.4168396 11.03869629 C3.41076691 12.12936401 3.40469421 13.22003174 3.3984375 14.34375 C3.40274277 16.02470764 3.40274277 16.02470764 3.40713501 17.73962402 C3.40917747 20.11011256 3.40363499 22.48061788 3.39111328 24.85107422 C3.375063 28.48573383 3.39095669 32.11928135 3.41015625 35.75390625 C3.40817385 38.05468996 3.40433025 40.35547298 3.3984375 42.65625 C3.40754654 44.29225159 3.40754654 44.29225159 3.4168396 45.96130371 C3.40738312 46.97245239 3.39792664 47.98360107 3.38818359 49.02539062 C3.38579681 49.9156897 3.38341003 50.80598877 3.38095093 51.7232666 C2.92008074 54.47763328 2.2430029 55.37390604 0 57 C-3.0625 57.3125 -3.0625 57.3125 -6 57 C-8.53761681 54.46238319 -8.2568572 53.56407197 -8.2746582 50.04711914 C-8.28419022 49.01587418 -8.29372223 47.98462921 -8.30354309 46.9221344 C-8.30263168 45.80443161 -8.30172028 44.68672882 -8.30078125 43.53515625 C-8.30506638 42.39090683 -8.3093515 41.24665741 -8.31376648 40.06773376 C-8.31951784 37.6442023 -8.32000415 35.22065356 -8.31567383 32.79711914 C-8.31251593 29.08124433 -8.3359569 25.36616678 -8.36132812 21.65039062 C-8.36360116 19.29948018 -8.36430459 16.94856758 -8.36328125 14.59765625 C-8.372491 13.48197769 -8.38170074 12.36629913 -8.39118958 11.21681213 C-8.38496078 10.18241501 -8.37873199 9.14801788 -8.37231445 8.08227539 C-8.37325859 6.71565514 -8.37325859 6.71565514 -8.3742218 5.32142639 C-7.58716669 0.43905315 -4.61126551 -0.69168983 0 0 Z " fill="#FDDE5C" transform="translate(381,159)"/>
<path d="M0 0 C1.67542976 0.28604898 3.34385343 0.61781233 5 1 C5.0493651 5.94790177 5.08570269 10.89566083 5.10986328 15.84375 C5.11993317 17.52769466 5.13358988 19.21162179 5.15087891 20.89550781 C5.17508426 23.31319501 5.18647296 25.73065143 5.1953125 28.1484375 C5.20563507 28.9036972 5.21595764 29.65895691 5.22659302 30.43710327 C5.22699318 32.2929398 5.12222716 34.1481928 5 36 C4.34 36.66 3.68 37.32 3 38 C1.68 38 0.36 38 -1 38 C-1 37.34 -1 36.68 -1 36 C-2.98 36 -4.96 36 -7 36 C-7 36.66 -7 37.32 -7 38 C-9.40545638 39.20272819 -10.94996953 39.10071472 -13.625 39.0625 C-14.85089844 39.04896484 -14.85089844 39.04896484 -16.1015625 39.03515625 C-16.72804688 39.02355469 -17.35453125 39.01195312 -18 39 C-18 38.01 -18 37.02 -18 36 C-18.556875 36.20625 -19.11375 36.4125 -19.6875 36.625 C-22.72668339 37.11784055 -24.31735316 36.45007937 -27 35 C-27.495 33.515 -27.495 33.515 -28 32 C-27.01 32 -26.02 32 -25 32 C-25 30.35 -25 28.7 -25 27 C-24.01 27.66 -23.02 28.32 -22 29 C-19.46535551 29.46022946 -19.46535551 29.46022946 -16.6875 29.625 C-15.71554687 29.69847656 -14.74359375 29.77195313 -13.7421875 29.84765625 C-10.82225651 30.00987464 -7.92380254 30.07902169 -5 30 C-2.73150334 26.34827367 -2.6104049 22.9872882 -2.375 18.75 C-2.30023438 17.48671875 -2.22546875 16.2234375 -2.1484375 14.921875 C-2.09945313 13.95765625 -2.05046875 12.9934375 -2 12 C-2.66 12 -3.32 12 -4 12 C-4 11.34 -4 10.68 -4 10 C-3.01 10 -2.02 10 -1 10 C-1 9.071875 -1 8.14375 -1 7.1875 C-1 1 -1 1 0 0 Z " fill="#FDDE5A" transform="translate(479,176)"/>
<path d="M0 0 C0.33 0.66 0.66 1.32 1 2 C1.66 2 2.32 2 3 2 C3 3.32 3 4.64 3 6 C1.68 6 0.36 6 -1 6 C-1 6.66 -1 7.32 -1 8 C-0.01 8 0.98 8 2 8 C3.32 12.29 4.64 16.58 6 21 C7.8975 21.20625 9.795 21.4125 11.75 21.625 C12.81734375 21.74101562 13.8846875 21.85703125 14.984375 21.9765625 C18.09600002 22.00074611 19.38208717 21.54878728 22 20 C24.5625 19.625 24.5625 19.625 27 20 C28.9375 21.6875 28.9375 21.6875 30 24 C29.35141585 27.32399377 28.52438356 28.62504742 25.765625 30.59765625 C19.71896436 33.66368897 12.37140794 33.70294189 5.875 32 C3.408292 31.04989366 2.31236718 30.55246117 1.00390625 28.23828125 C0.4375 26.3125 0.4375 26.3125 0 23 C-0.66 23 -1.32 23 -2 23 C-2 21.68 -2 20.36 -2 19 C-2.66 19 -3.32 19 -4 19 C-4 14.05 -4 9.1 -4 4 C-3.34 4 -2.68 4 -2 4 C-1.34 2.68 -0.68 1.36 0 0 Z " fill="#FCE064" transform="translate(603,184)"/>
<path d="M0 0 C2.0700132 2.0700132 1.16409695 6.48765925 1.16796875 9.33984375 C1.17129715 10.17713516 1.17462555 11.01442657 1.17805481 11.87709045 C1.18312756 13.65169728 1.18546303 15.42631367 1.18530273 17.20092773 C1.18748797 19.92252256 1.20563633 22.64371143 1.22460938 25.36523438 C1.22754342 27.08593611 1.22952814 28.80663977 1.23046875 30.52734375 C1.23765427 31.34508774 1.24483978 32.16283173 1.25224304 33.00535583 C1.22882204 38.77117796 1.22882204 38.77117796 -1 41 C-4.125 41.125 -4.125 41.125 -7 41 C-7 40.34 -7 39.68 -7 39 C-7.66 39 -8.32 39 -9 39 C-9.0988364 33.78561957 -9.17145206 28.57178357 -9.21972656 23.35668945 C-9.23984903 21.58250431 -9.2671503 19.80838554 -9.30175781 18.03442383 C-9.35024992 15.48502233 -9.37296153 12.93649705 -9.390625 10.38671875 C-9.41127014 9.59287277 -9.43191528 8.79902679 -9.45318604 7.98112488 C-9.45542205 2.50040126 -9.45542205 2.50040126 -7.14355469 -0.03979492 C-4.35906234 -1.28710795 -2.8610661 -0.92791333 0 0 Z " fill="#FDDE5B" transform="translate(403,175)"/>
<path d="M0 0 C4.97002661 0.06570949 8.12988521 0.56575681 12.25 3.3125 C12.58 2.3225 12.91 1.3325 13.25 0.3125 C16.625 0.125 16.625 0.125 20.25 0.3125 C22.74946559 4.06169839 22.55597184 7.03211205 22.55078125 11.375 C22.55506638 12.16269775 22.5593515 12.95039551 22.56376648 13.76196289 C22.56950579 15.42625976 22.57001297 17.09058171 22.56567383 18.75488281 C22.56251158 21.30316834 22.58598449 23.85029533 22.61132812 26.3984375 C22.61360092 28.01562353 22.61430471 29.63281269 22.61328125 31.25 C22.622491 32.01256104 22.63170074 32.77512207 22.64118958 33.56079102 C22.59553057 38.77145383 22.59553057 38.77145383 20.95776367 41.3359375 C18.06649196 42.98927372 15.37718471 41.96153834 12.25 41.3125 C12.25 40.3225 12.25 39.3325 12.25 38.3125 C12.91 38.3125 13.57 38.3125 14.25 38.3125 C14.25 38.9725 14.25 39.6325 14.25 40.3125 C15.9 39.6525 17.55 38.9925 19.25 38.3125 C19.25 26.7625 19.25 15.2125 19.25 3.3125 C17.6 3.6425 15.95 3.9725 14.25 4.3125 C14.435625 4.89 14.62125 5.4675 14.8125 6.0625 C15.29023546 8.51942525 15.00729364 9.95647534 14.25 12.3125 C13.26 12.3125 12.27 12.3125 11.25 12.3125 C11.25 12.9725 11.25 13.6325 11.25 14.3125 C11.91 14.3125 12.57 14.3125 13.25 14.3125 C13.33119503 16.56190295 13.38927819 18.81214871 13.4375 21.0625 C13.48970703 22.94195312 13.48970703 22.94195312 13.54296875 24.859375 C13.23802939 28.45359357 12.70605371 29.75975126 10.25 32.3125 C8.93 31.9825 7.61 31.6525 6.25 31.3125 C6.889375 30.631875 7.52875 29.95125 8.1875 29.25 C10.65886708 25.73017416 11.17481716 23.59792194 11.25 19.3125 C9.73483372 15.29730937 8.8444747 13.70881647 5.25 11.3125 C2.96351152 11.07142674 2.96351152 11.07142674 0.5625 11.1875 C-0.64986328 11.21457031 -0.64986328 11.21457031 -1.88671875 11.2421875 C-2.50160156 11.26539063 -3.11648438 11.28859375 -3.75 11.3125 C-3.75 10.6525 -3.75 9.9925 -3.75 9.3125 C-2.43 8.6525 -1.11 7.9925 0.25 7.3125 C-0.41 6.9825 -1.07 6.6525 -1.75 6.3125 C-1.75 5.3225 -1.75 4.3325 -1.75 3.3125 C-4.72 2.8175 -4.72 2.8175 -7.75 2.3125 C-5.0881996 -0.3493004 -3.70750737 0.01383398 0 0 Z " fill="#FAE06C" transform="translate(463.75,173.6875)"/>
<path d="M0 0 C0 0.66 0 1.32 0 2 C-0.94875 2.309375 -1.8975 2.61875 -2.875 2.9375 C-5.86080408 3.87394742 -5.86080408 3.87394742 -8 5 C-10.26765601 5.23235944 -12.53361414 5.38101703 -14.80859375 5.5234375 C-17.42666086 5.88596552 -17.42666086 5.88596552 -20 9 C-15.38 9 -10.76 9 -6 9 C-10.13691481 11.06845741 -12.97999844 11.32155519 -17.44921875 11.3359375 C-18.18010208 11.3425943 -18.91098541 11.3492511 -19.66401672 11.35610962 C-21.21649676 11.36622873 -22.76902022 11.37092687 -24.3215332 11.37060547 C-26.63507072 11.37490262 -28.94657546 11.41100881 -31.25976562 11.44921875 C-42.73939437 11.53548674 -55.78446486 10.82015597 -66 5 C-66 4.34 -66 3.68 -66 3 C-65.34515625 3.09087891 -64.6903125 3.18175781 -64.015625 3.27539062 C-61.01115108 3.68914233 -58.00561518 4.09462541 -55 4.5 C-53.45505859 4.71462891 -53.45505859 4.71462891 -51.87890625 4.93359375 C-36.43960847 6.99872275 -21.96844332 5.17312604 -7.109375 0.8046875 C-4 0 -4 0 0 0 Z " fill="#8DB752" transform="translate(159,296)"/>
<path d="M0 0 C2.21104263 1.64274634 2.92190258 2.53325485 3.38095093 5.2767334 C3.38333771 6.16703247 3.38572449 7.05733154 3.38818359 7.97460938 C3.40236832 9.4913324 3.40236832 9.4913324 3.4168396 11.03869629 C3.41076691 12.12936401 3.40469421 13.22003174 3.3984375 14.34375 C3.40274277 16.02470764 3.40274277 16.02470764 3.40713501 17.73962402 C3.40917747 20.11011256 3.40363499 22.48061788 3.39111328 24.85107422 C3.375063 28.48573383 3.39095669 32.11928135 3.41015625 35.75390625 C3.40817385 38.05468996 3.40433025 40.35547298 3.3984375 42.65625 C3.40754654 44.29225159 3.40754654 44.29225159 3.4168396 45.96130371 C3.40738312 46.97245239 3.39792664 47.98360107 3.38818359 49.02539062 C3.38579681 49.9156897 3.38341003 50.80598877 3.38095093 51.7232666 C2.92008074 54.47763328 2.2430029 55.37390604 0 57 C-3.0625 57.3125 -3.0625 57.3125 -6 57 C-8.53761681 54.46238319 -8.2568572 53.56407197 -8.2746582 50.04711914 C-8.28419022 49.01587418 -8.29372223 47.98462921 -8.30354309 46.9221344 C-8.30263168 45.80443161 -8.30172028 44.68672882 -8.30078125 43.53515625 C-8.30506638 42.39090683 -8.3093515 41.24665741 -8.31376648 40.06773376 C-8.31951784 37.6442023 -8.32000415 35.22065356 -8.31567383 32.79711914 C-8.31251593 29.08124433 -8.3359569 25.36616678 -8.36132812 21.65039062 C-8.36360116 19.29948018 -8.36430459 16.94856758 -8.36328125 14.59765625 C-8.372491 13.48197769 -8.38170074 12.36629913 -8.39118958 11.21681213 C-8.38496078 10.18241501 -8.37873199 9.14801788 -8.37231445 8.08227539 C-8.37325859 6.71565514 -8.37325859 6.71565514 -8.3742218 5.32142639 C-7.58716669 0.43905315 -4.61126551 -0.69168983 0 0 Z M-6 2 C-6.0506353 9.06580552 -6.0857062 16.1315644 -6.10986328 23.19750977 C-6.11993201 25.60214995 -6.13358785 28.00677786 -6.15087891 30.41137695 C-6.17508874 33.86412584 -6.18647432 37.3167131 -6.1953125 40.76953125 C-6.20563507 41.84773636 -6.21595764 42.92594147 -6.22659302 44.03681946 C-6.22674408 45.03763046 -6.22689514 46.03844147 -6.22705078 47.06958008 C-6.231492 47.95116287 -6.23593323 48.83274567 -6.24050903 49.74104309 C-6.14640061 52.28251649 -6.14640061 52.28251649 -4 55 C-1.525 54.505 -1.525 54.505 1 54 C1.80342681 51.16320874 2.13395672 48.62295702 2.16113281 45.67797852 C2.17074036 44.83352676 2.1803479 43.98907501 2.19024658 43.11903381 C2.1966214 41.76267067 2.1966214 41.76267067 2.203125 40.37890625 C2.20882507 39.44199448 2.21452515 38.5050827 2.22039795 37.53977966 C2.2298331 35.560304 2.23637602 33.58081274 2.24023438 31.60131836 C2.2499533 28.57703287 2.28099612 25.55342336 2.3125 22.52929688 C2.31902921 20.60417069 2.32428 18.67903966 2.328125 16.75390625 C2.3404718 15.85168839 2.3528186 14.94947052 2.36553955 14.01991272 C2.37459636 7.46085803 2.37459636 7.46085803 -1 2 C-3.5748334 1.84231057 -3.5748334 1.84231057 -6 2 Z " fill="#F9E189" transform="translate(381,159)"/>
<path d="M0 0 C1.41623216 -0.05447047 2.83308191 -0.09300508 4.25 -0.125 C5.03890625 -0.14820313 5.8278125 -0.17140625 6.640625 -0.1953125 C9.20731941 0.0171622 10.7916067 0.71345895 13 2 C13 2.66 13 3.32 13 4 C12.27554688 3.90460938 11.55109375 3.80921875 10.8046875 3.7109375 C5.31706273 3.08168986 1.15773657 2.66673822 -4 5 C-4.9075 5.268125 -5.815 5.53625 -6.75 5.8125 C-9.23434642 6.84069873 -9.23434642 6.84069873 -10.25 9.5625 C-10.4975 10.366875 -10.745 11.17125 -11 12 C-11.33 12.33 -11.66 12.66 -12 13 C-12.15873955 15.21687994 -12.25133837 17.43855298 -12.31640625 19.66015625 C-12.33718735 20.32462265 -12.35796844 20.98908905 -12.37937927 21.6736908 C-12.44493658 23.80318543 -12.50378785 25.93280668 -12.5625 28.0625 C-12.60567939 29.50326847 -12.64929349 30.94402399 -12.69335938 32.38476562 C-12.80062393 35.9230404 -12.90187371 39.46145869 -13 43 C-13.81678223 43.01981934 -14.63356445 43.03963867 -15.47509766 43.06005859 C-19.1920444 43.15558143 -22.90845019 43.26515124 -26.625 43.375 C-27.91019531 43.4059375 -29.19539063 43.436875 -30.51953125 43.46875 C-31.76347656 43.50742188 -33.00742188 43.54609375 -34.2890625 43.5859375 C-36.00150146 43.63306885 -36.00150146 43.63306885 -37.74853516 43.68115234 C-41.092884 44.00910846 -43.865009 44.8165928 -47 46 C-47 45.01 -47 44.02 -47 43 C-43.05091786 41.14274249 -39.95232103 40.76348511 -35.60546875 40.8046875 C-34.52160889 40.80968262 -33.43774902 40.81467773 -32.32104492 40.81982422 C-30.9569751 40.83803223 -29.59290527 40.85624023 -28.1875 40.875 C-23.835625 40.91625 -19.48375 40.9575 -15 41 C-15 31.43 -15 21.86 -15 12 C-14.34 12 -13.68 12 -13 12 C-13 11.0925 -13 10.185 -13 9.25 C-12 6 -12 6 -10.29296875 4.7109375 C-6.53324128 2.77178307 -4.33209794 2 0 2 C0 1.34 0 0.68 0 0 Z " fill="#98BD64" transform="translate(127,131)"/>
<path d="M0 0 C2.05078125 0.03255208 4.1015625 0.06510417 6.15234375 0.09765625 C6.48234375 0.75765625 6.81234375 1.41765625 7.15234375 2.09765625 C6.82234375 2.75765625 6.49234375 3.41765625 6.15234375 4.09765625 C8.62734375 4.59265625 8.62734375 4.59265625 11.15234375 5.09765625 C8.50495459 6.55828475 7.25786041 7.09765625 4.15234375 7.09765625 C4.15234375 8.08765625 4.15234375 9.07765625 4.15234375 10.09765625 C3.49234375 10.09765625 2.83234375 10.09765625 2.15234375 10.09765625 C2.15234375 10.75765625 2.15234375 11.41765625 2.15234375 12.09765625 C1.16234375 12.09765625 0.17234375 12.09765625 -0.84765625 12.09765625 C-1.07453125 12.90203125 -1.30140625 13.70640625 -1.53515625 14.53515625 C-2.18484375 15.80359375 -2.18484375 15.80359375 -2.84765625 17.09765625 C-5.41015625 17.78515625 -5.41015625 17.78515625 -7.84765625 18.09765625 C-8.17765625 18.75765625 -8.50765625 19.41765625 -8.84765625 20.09765625 C-8.97265625 16.72265625 -8.97265625 16.72265625 -8.84765625 13.09765625 C-8.18765625 12.43765625 -7.52765625 11.77765625 -6.84765625 11.09765625 C-6.63109375 9.95296875 -6.63109375 9.95296875 -6.41015625 8.78515625 C-5.67367546 5.26641471 -4.07873543 0.21557798 0 0 Z " fill="#FCDE5E" transform="translate(455.84765625,175.90234375)"/>
<path d="M0 0 C2.1875 1.1015625 2.1875 1.1015625 5.375 3.1015625 C5.375 3.7615625 5.375 4.4215625 5.375 5.1015625 C6.035 5.1015625 6.695 5.1015625 7.375 5.1015625 C11.39254995 10.93348985 12.47937071 16.02522861 12.375 23.1015625 C11.48842375 27.68220645 10.06828705 31.28607251 7.375 35.1015625 C6.385 35.5965625 6.385 35.5965625 5.375 36.1015625 C5.045 34.7815625 4.715 33.4615625 4.375 32.1015625 C5.695 32.1015625 7.015 32.1015625 8.375 32.1015625 C7.88 29.6265625 7.88 29.6265625 7.375 27.1015625 C6.715 27.1015625 6.055 27.1015625 5.375 27.1015625 C5.1796875 21.046875 5.1796875 21.046875 5.375 19.1015625 C6.035 18.4415625 6.695 17.7815625 7.375 17.1015625 C7.83311675 15.12920917 7.83311675 15.12920917 8 12.9765625 C8.12375 11.6978125 8.2475 10.4190625 8.375 9.1015625 C5.43779492 7.57856727 2.4581351 6.30055948 -0.625 5.1015625 C-0.625 4.1115625 -0.625 3.1215625 -0.625 2.1015625 C-2.275 2.1015625 -3.925 2.1015625 -5.625 2.1015625 C-5.625 1.4415625 -5.625 0.7815625 -5.625 0.1015625 C-8.265 0.1015625 -10.905 0.1015625 -13.625 0.1015625 C-13.625 0.7615625 -13.625 1.4215625 -13.625 2.1015625 C-15.935 2.4315625 -18.245 2.7615625 -20.625 3.1015625 C-20.625 2.4415625 -20.625 1.7815625 -20.625 1.1015625 C-14.27083091 -1.84564023 -6.66429934 -2.28093579 0 0 Z " fill="#FBE172" transform="translate(578.625,174.8984375)"/>
<path d="M0 0 C0.33 0.66 0.66 1.32 1 2 C1.66 2 2.32 2 3 2 C3 3.32 3 4.64 3 6 C1.68 6 0.36 6 -1 6 C-1 6.66 -1 7.32 -1 8 C-0.01 8 0.98 8 2 8 C2.36351562 9.37285156 2.36351562 9.37285156 2.734375 10.7734375 C3.06953125 11.96195313 3.4046875 13.15046875 3.75 14.375 C4.07484375 15.55835938 4.3996875 16.74171875 4.734375 17.9609375 C5.70657501 21.09230292 5.70657501 21.09230292 8.140625 22.4140625 C9.06101562 22.70410156 9.06101562 22.70410156 10 23 C8.35 23.66 6.7 24.32 5 25 C5 25.99 5 26.98 5 28 C3.68 28 2.36 28 1 28 C0.67 26.35 0.34 24.7 0 23 C-0.66 23 -1.32 23 -2 23 C-2 21.68 -2 20.36 -2 19 C-2.66 19 -3.32 19 -4 19 C-4 14.05 -4 9.1 -4 4 C-3.34 4 -2.68 4 -2 4 C-1.34 2.68 -0.68 1.36 0 0 Z " fill="#FCDE5A" transform="translate(603,184)"/>
<path d="M0 0 C0.66 0 1.32 0 2 0 C2.66 4.95 3.32 9.9 4 15 C5.32 15 6.64 15 8 15 C8.33 14.34 8.66 13.68 9 13 C7.68 12.67 6.36 12.34 5 12 C8.13269705 8.86730295 10.97328423 8.94505603 15.25 8.9375 C17.10625 8.9684375 17.10625 8.9684375 19 9 C19.33 11.31 19.66 13.62 20 16 C17.37072604 18.74359022 15.23366026 19.26486519 11.5625 19.375 C7.62098057 19.23237923 5.08294814 18.61583478 2 16 C-0.22339314 12.59131365 -0.21215767 9.75925285 -0.125 5.75 C-0.10695313 4.67234375 -0.08890625 3.5946875 -0.0703125 2.484375 C-0.04710937 1.66453125 -0.02390625 0.8446875 0 0 Z " fill="#FAE175" transform="translate(418,197)"/>
<path d="M0 0 C2.59201219 1.5045588 4.8778079 2.8778079 7 5 C6.71269945 7.33944736 6.38063221 9.6739143 6 12 C-0.75 12.125 -0.75 12.125 -3 11 C-8.16245488 10.37778406 -8.16245488 10.37778406 -12.859375 12.1171875 C-14.30614145 13.33660493 -15.66207025 14.66207025 -17 16 C-17 14.68 -17 13.36 -17 12 C-16.34 12 -15.68 12 -15 12 C-15 11.01 -15 10.02 -15 9 C-2.51480638 4.22323462 -2.51480638 4.22323462 4 6 C3.67 5.34 3.34 4.68 3 4 C0.97536745 3.34786708 0.97536745 3.34786708 -1 3 C-1 2.34 -1 1.68 -1 1 C-7.03085058 1.38291115 -11.53960349 2.37845565 -16.95703125 5.0625 C-18.96142139 5.98229662 -20.84917104 6.53600094 -23 7 C-23 5 -23 5 -21.77734375 3.7109375 C-15.21509728 -1.0540058 -7.85754998 -1.24111628 0 0 Z " fill="#FADF6B" transform="translate(625,174)"/>
<path d="M0 0 C0.66 0.33 1.32 0.66 2 1 C2.33333333 2.33333333 2.66666667 3.66666667 3 5 C3.66 5.33 4.32 5.66 5 6 C4.67 6.66 4.34 7.32 4 8 C1.4375 8.625 1.4375 8.625 -1 9 C-1 8.01 -1 7.02 -1 6 C-4.24849977 7.72226496 -4.24849977 7.72226496 -5 11 C-5.9793879 12.02019573 -6.97895449 13.02149805 -8 14 C-8.33 14.66 -8.66 15.32 -9 16 C-13.29581527 17.26761762 -16.50944298 18 -21 18 C-20.67 16.35 -20.34 14.7 -20 13 C-18.35 12.67 -16.7 12.34 -15 12 C-14.67 10.35 -14.34 8.7 -14 7 C-13.32453125 6.91363281 -12.6490625 6.82726562 -11.953125 6.73828125 C-6.05335764 5.87554197 -6.05335764 5.87554197 -1.375 2.375 C-0.92125 1.59125 -0.4675 0.8075 0 0 Z " fill="#7AB62F" transform="translate(191,280)"/>
<path d="M0 0 C4.69295995 1.65633881 6.5655951 5.0433821 9.1875 9.125 C8.8575 9.785 8.5275 10.445 8.1875 11.125 C5.6875 9.9375 5.6875 9.9375 3.1875 8.125 C2.875 5.4375 2.875 5.4375 3.1875 3.125 C0.5475 3.125 -2.0925 3.125 -4.8125 3.125 C-4.4825 18.965 -4.1525 34.805 -3.8125 51.125 C-2.4925 51.455 -1.1725 51.785 0.1875 52.125 C0.331875 51.485625 0.47625 50.84625 0.625 50.1875 C1.1875 48.125 1.1875 48.125 2.1875 47.125 C2.34556531 45.20021187 2.438635 43.2700079 2.50390625 41.33984375 C2.54580078 40.17001953 2.58769531 39.00019531 2.63085938 37.79492188 C2.68983398 35.94737305 2.68983398 35.94737305 2.75 34.0625 C2.79318359 32.82693359 2.83636719 31.59136719 2.88085938 30.31835938 C2.98734198 27.25402665 3.08935424 24.18960927 3.1875 21.125 C3.8475 21.455 4.5075 21.785 5.1875 22.125 C4.8575 32.025 4.5275 41.925 4.1875 52.125 C3.5275 52.125 2.8675 52.125 2.1875 52.125 C2.1875 52.785 2.1875 53.445 2.1875 54.125 C-0.6875 54.25 -0.6875 54.25 -3.8125 54.125 C-6.319562 51.617938 -6.06897173 50.80461467 -6.0871582 47.33984375 C-6.09669022 46.3454126 -6.10622223 45.35098145 -6.11604309 44.32641602 C-6.11513168 43.24932373 -6.11422028 42.17223145 -6.11328125 41.0625 C-6.11756638 39.960271 -6.1218515 38.85804199 -6.12626648 37.72241211 C-6.13201699 35.38884163 -6.13250477 33.05525323 -6.12817383 30.72167969 C-6.12501294 27.13966502 -6.14846815 23.55847501 -6.17382812 19.9765625 C-6.17610084 17.71354271 -6.17680475 15.4505207 -6.17578125 13.1875 C-6.184991 12.11040771 -6.19420074 11.03331543 -6.20368958 9.92358398 C-6.19746078 8.92915283 -6.19123199 7.93472168 -6.18481445 6.91015625 C-6.18575859 5.59349976 -6.18575859 5.59349976 -6.1867218 4.25024414 C-6.06322861 3.54891357 -5.93973541 2.84758301 -5.8125 2.125 C-2.8125 0.125 -2.8125 0.125 0 0 Z " fill="#F5E288" transform="translate(267.8125,161.875)"/>
<path d="M0 0 C2.9719385 1.12451727 5.33440687 2.22293791 8 4 C9.38148127 10.75741693 9.11592642 17.6285399 9.0625 24.5 C9.05798828 25.60859375 9.05347656 26.7171875 9.04882812 27.859375 C9.03713158 30.57297399 9.02074086 33.28645761 9 36 C9.80219971 35.98952637 10.60439941 35.97905273 11.4309082 35.96826172 C15.05807372 35.92674233 18.68518928 35.90068657 22.3125 35.875 C23.57513672 35.85824219 24.83777344 35.84148437 26.13867188 35.82421875 C27.95141602 35.81455078 27.95141602 35.81455078 29.80078125 35.8046875 C30.91622314 35.79421387 32.03166504 35.78374023 33.1809082 35.77294922 C36 36 36 36 39 38 C35.42525275 39.13916302 32.21460618 39.03150662 28.484375 38.87890625 C27.23398438 38.83056641 25.98359375 38.78222656 24.6953125 38.73242188 C23.39335937 38.67634766 22.09140625 38.62027344 20.75 38.5625 C19.43257812 38.51029297 18.11515625 38.45808594 16.7578125 38.40429688 C13.50496572 38.27465443 10.25242833 38.13968844 7 38 C6.98541748 37.18321777 6.97083496 36.36643555 6.95581055 35.52490234 C6.88113077 31.8078024 6.78453388 28.09158081 6.6875 24.375 C6.66494141 23.08980469 6.64238281 21.80460937 6.61914062 20.48046875 C6.58369141 19.23652344 6.54824219 17.99257812 6.51171875 16.7109375 C6.48553467 15.56931152 6.45935059 14.42768555 6.43237305 13.25146484 C5.95169786 9.63676575 4.72760828 7.18399384 3 4 C3 3.34 3 2.68 3 2 C2.01 1.67 1.02 1.34 0 1 C0 0.67 0 0.34 0 0 Z " fill="#92BB57" transform="translate(142,136)"/>
<path d="M0 0 C2.61527381 2.36620011 4.26440562 4.942048 6 8 C7.65 6.35 9.3 4.7 11 3 C11.99 4.485 11.99 4.485 13 6 C13.66 6 14.32 6 15 6 C15 6.66 15 7.32 15 8 C16.32 8.33 17.64 8.66 19 9 C17.646596 11.16243883 16.27017432 13.30225725 14.875 15.4375 C14.49601562 16.04916016 14.11703125 16.66082031 13.7265625 17.29101562 C11.66015235 20.40785093 10.42073043 21.86303002 6.8203125 23.03515625 C4 23 4 23 2 21 C4.31 21 6.62 21 9 21 C8.40049704 17.31733897 7.75241109 13.65456815 7 10 C4.69 9.67 2.38 9.34 0 9 C0 8.34 0 7.68 0 7 C0.66 7 1.32 7 2 7 C1.34 4.69 0.68 2.38 0 0 Z " fill="#FBE06F" transform="translate(281,179)"/>
<path d="M0 0 C2.625 0.9375 2.625 0.9375 5 2 C5.1953125 8.0546875 5.1953125 8.0546875 5 10 C4.34 10.66 3.68 11.32 3 12 C2.83322718 15.58343976 2.83322718 15.58343976 3 19 C3.66 19.33 4.32 19.66 5 20 C5 21.65 5 23.3 5 25 C2.03 25.33 -0.94 25.66 -4 26 C-3.68289063 25.16210938 -3.36578125 24.32421875 -3.0390625 23.4609375 C-1.92971749 19.7659011 -1.59270398 16.47110373 -1.375 12.625 C-1.30023437 11.37976563 -1.22546875 10.13453125 -1.1484375 8.8515625 C-1.09945312 7.91054687 -1.05046875 6.96953125 -1 6 C-1.66 6 -2.32 6 -3 6 C-2.625 3.5625 -2.625 3.5625 -2 1 C-1.34 0.67 -0.68 0.34 0 0 Z " fill="#FCDE59" transform="translate(582,182)"/>
<path d="M0 0 C0.33 0.66 0.66 1.32 1 2 C0.67 2.99 0.34 3.98 0 5 C-1.65 5.33 -3.3 5.66 -5 6 C-5.33 7.65 -5.66 9.3 -6 11 C-4.39125 10.4740625 -4.39125 10.4740625 -2.75 9.9375 C0.78720743 9.05319814 1.74811124 8.97119449 5 10 C-3.70998267 14.26233194 -13.05691168 18.80619635 -23 18 C-22.443125 17.731875 -21.88625 17.46375 -21.3125 17.1875 C-18.91191954 16.01276085 -18.91191954 16.01276085 -16.5 14.3125 C-14 13 -14 13 -11.6875 13.3125 C-11.130625 13.539375 -10.57375 13.76625 -10 14 C-9.7497843 11.08365871 -9.7497843 11.08365871 -10 8 C-10.99 7.34 -11.98 6.68 -13 6 C-8.71 4.02 -4.42 2.04 0 0 Z " fill="#8BBA4D" transform="translate(176,287)"/>
<path d="M0 0 C3.375 -0.1875 3.375 -0.1875 7 0 C9.49946559 3.74919839 9.30597184 6.71961205 9.30078125 11.0625 C9.30506638 11.85019775 9.3093515 12.63789551 9.31376648 13.44946289 C9.31950579 15.11375976 9.32001297 16.77808171 9.31567383 18.44238281 C9.31251158 20.99066834 9.33598449 23.53779533 9.36132812 26.0859375 C9.36360092 27.70312353 9.36430471 29.32031269 9.36328125 30.9375 C9.372491 31.70006104 9.38170074 32.46262207 9.39118958 33.24829102 C9.34553057 38.45895383 9.34553057 38.45895383 7.70776367 41.0234375 C4.81649196 42.67677372 2.12718471 41.64903834 -1 41 C-1 40.01 -1 39.02 -1 38 C-0.34 38 0.32 38 1 38 C1 38.66 1 39.32 1 40 C2.65 39.34 4.3 38.68 6 38 C6 25.79 6 13.58 6 1 C4.35 1.33 2.7 1.66 1 2 C0.67 2.66 0.34 3.32 0 4 C-1.65 3.67 -3.3 3.34 -5 3 C-4.34 2.67 -3.68 2.34 -3 2 C-2.34 2.33 -1.68 2.66 -1 3 C-0.67 2.01 -0.34 1.02 0 0 Z " fill="#F8EB9B" transform="translate(477,174)"/>
<path d="M0 0 C0.495 0.99 0.495 0.99 1 2 C4.465 1.505 4.465 1.505 8 1 C5.11300243 3.88699757 1.76151081 3.93788219 -2.125 4.5625 C-2.85976562 4.68818359 -3.59453125 4.81386719 -4.3515625 4.94335938 C-6.56507422 5.31552552 -8.78080141 5.66350249 -11 6 C-11.66741211 6.10296387 -12.33482422 6.20592773 -13.02246094 6.31201172 C-21.75001031 7.54304186 -29.89082434 6.91240792 -38.5625 5.5 C-39.47580078 5.35691406 -40.38910156 5.21382813 -41.33007812 5.06640625 C-43.55442736 4.71703202 -45.7775921 4.36148178 -48 4 C-48 3.67 -48 3.34 -48 3 C-46.24357178 3.00785522 -46.24357178 3.00785522 -44.45166016 3.01586914 C-40.11686972 3.03393758 -35.78208263 3.04543879 -31.44726562 3.05493164 C-29.56933025 3.05996763 -27.6913988 3.06679671 -25.81347656 3.07543945 C-23.11782868 3.08753713 -20.42223253 3.09323557 -17.7265625 3.09765625 C-16.88380768 3.10281754 -16.04105286 3.10797882 -15.17276001 3.11329651 C-10.95268639 3.23367039 -10.95268639 3.23367039 -7 2 C-4.6670134 1.95977609 -2.33293334 1.95679753 0 2 C0 1.34 0 0.68 0 0 Z " fill="#94BD5C" transform="translate(143,291)"/>
<path d="M0 0 C1.23556641 0.01740234 1.23556641 0.01740234 2.49609375 0.03515625 C3.32238281 0.04417969 4.14867187 0.05320313 5 0.0625 C5.63808594 0.07410156 6.27617187 0.08570313 6.93359375 0.09765625 C8.30312048 2.8367097 8.05980736 5.06852957 7.93359375 8.09765625 C7.60359375 8.75765625 7.27359375 9.41765625 6.93359375 10.09765625 C5.45452483 10.12454841 3.97531892 10.14400246 2.49609375 10.16015625 C1.26052734 10.17755859 1.26052734 10.17755859 0 10.1953125 C-2.06640625 10.09765625 -2.06640625 10.09765625 -3.06640625 9.09765625 C-3.19921875 7.28515625 -3.19921875 7.28515625 -3.19140625 5.09765625 C-3.19398438 4.37578125 -3.1965625 3.65390625 -3.19921875 2.91015625 C-3.00640394 0.2788012 -2.63137052 0.12435588 0 0 Z " fill="#F9E37F" transform="translate(397.06640625,160.90234375)"/>
<path d="M0 0 C0 0.66 0 1.32 0 2 C2.475 2.495 2.475 2.495 5 3 C5 3.66 5 4.32 5 5 C4.05125 4.938125 3.1025 4.87625 2.125 4.8125 C-2.15871352 4.7774594 -5.84510082 6.05688773 -9.86328125 7.44140625 C-12 8 -12 8 -14 7 C-14 6.34 -14 5.68 -14 5 C-14.66 5 -15.32 5 -16 5 C-16 5.66 -16 6.32 -16 7 C-16.99 7 -17.98 7 -19 7 C-18 4 -18 4 -15 2 C-9.92476975 -0.17509868 -5.41412005 -0.2165648 0 0 Z " fill="#FCDE59" transform="translate(624,175)"/>
<path d="M0 0 C3.375 -0.1875 3.375 -0.1875 7 0 C9.47420127 3.71130191 9.2720996 6.55241735 9.23046875 10.84375 C9.22978142 11.99200256 9.22978142 11.99200256 9.2290802 13.16345215 C9.22606142 14.78069612 9.21818625 16.39793728 9.20581055 18.01513672 C9.18756879 20.4906647 9.18530084 22.96581811 9.18554688 25.44140625 C9.18063081 27.01302407 9.17480211 28.58463935 9.16796875 30.15625 C9.16685593 30.89693726 9.1657431 31.63762451 9.16459656 32.40075684 C9.13567801 35.53208518 8.99764909 38.00705273 8 41 C4.535 41.495 4.535 41.495 1 42 C1.66 41.34 2.32 40.68 3 40 C4.32 40 5.64 40 7 40 C6.67 27.79 6.34 15.58 6 3 C3.69 3 1.38 3 -1 3 C-0.67 2.01 -0.34 1.02 0 0 Z " fill="#FAE488" transform="translate(353,174)"/>
<path d="M0 0 C4.50050357 -0.36490569 4.50050357 -0.36490569 6.64370728 1.20080566 C8.43246913 3.57369327 8.38025876 5.01854659 8.38818359 7.97460938 C8.40236832 9.4913324 8.40236832 9.4913324 8.4168396 11.03869629 C8.41076691 12.12936401 8.40469421 13.22003174 8.3984375 14.34375 C8.40274277 16.02470764 8.40274277 16.02470764 8.40713501 17.73962402 C8.40917747 20.11011256 8.40363499 22.48061788 8.39111328 24.85107422 C8.375063 28.48573383 8.39095669 32.11928135 8.41015625 35.75390625 C8.40817385 38.05468996 8.40433025 40.35547298 8.3984375 42.65625 C8.40754654 44.29225159 8.40754654 44.29225159 8.4168396 45.96130371 C8.40738312 46.97245239 8.39792664 47.98360107 8.38818359 49.02539062 C8.38579681 49.9156897 8.38341003 50.80598877 8.38095093 51.7232666 C7.91984051 54.479069 7.25448443 55.38372136 5 57 C1.8125 57.1875 1.8125 57.1875 -1 57 C-1.33 56.34 -1.66 55.68 -2 55 C-0.35 55.33 1.3 55.66 3 56 C3 55.34 3 54.68 3 54 C3.99 54 4.98 54 6 54 C6.0507527 47.39806403 6.08575576 40.79617847 6.10986328 34.1940918 C6.11991444 31.94862996 6.13355744 29.70318119 6.15087891 27.45776367 C6.17516581 24.22832003 6.18649207 20.99904962 6.1953125 17.76953125 C6.20563507 16.76727005 6.21595764 15.76500885 6.22659302 14.7323761 C6.22674408 13.79177841 6.22689514 12.85118073 6.22705078 11.88208008 C6.231492 11.05823318 6.23593323 10.23438629 6.24050903 9.38557434 C5.96415566 6.64446521 5.12412163 4.50281751 4 2 C2.35 2 0.7 2 -1 2 C-0.67 1.34 -0.34 0.68 0 0 Z " fill="#FFEDA9" transform="translate(376,159)"/>
<path d="M0 0 C1.41623216 -0.05447047 2.83308191 -0.09300508 4.25 -0.125 C5.03890625 -0.14820313 5.8278125 -0.17140625 6.640625 -0.1953125 C9.20731941 0.0171622 10.7916067 0.71345895 13 2 C13 2.66 13 3.32 13 4 C11.91332031 3.85691406 11.91332031 3.85691406 10.8046875 3.7109375 C5.31706273 3.08168986 1.15773657 2.66673822 -4 5 C-4.9075 5.268125 -5.815 5.53625 -6.75 5.8125 C-9.23434642 6.84069873 -9.23434642 6.84069873 -10.25 9.5625 C-10.4975 10.366875 -10.745 11.17125 -11 12 C-11.33 12.33 -11.66 12.66 -12 13 C-12.15582303 14.34015221 -12.25044142 15.68758903 -12.31640625 17.03515625 C-12.37924805 18.24848633 -12.37924805 18.24848633 -12.44335938 19.48632812 C-12.48267578 20.33646484 -12.52199219 21.18660156 -12.5625 22.0625 C-12.60568359 22.91650391 -12.64886719 23.77050781 -12.69335938 24.65039062 C-12.79976702 26.76672037 -12.90041731 28.88333813 -13 31 C-13.33 31 -13.66 31 -14 31 C-14.33 24.73 -14.66 18.46 -15 12 C-14.34 12 -13.68 12 -13 12 C-13 11.0925 -13 10.185 -13 9.25 C-12 6 -12 6 -10.29296875 4.7109375 C-6.53324128 2.77178307 -4.33209794 2 0 2 C0 1.34 0 0.68 0 0 Z " fill="#A7CC75" transform="translate(127,131)"/>
<path d="M0 0 C0.99 0 1.98 0 3 0 C5.27943503 8.26295197 6.96159212 17.3778636 4.06640625 25.67578125 C2.23722842 28.46664065 1.04698915 29.57374976 -2 31 C-7.97368991 31.90363008 -14.00370052 31.45686091 -20 31 C-20 30.67 -20 30.34 -20 30 C-19.05898438 29.97421875 -18.11796875 29.9484375 -17.1484375 29.921875 C-7.6972394 29.73506388 -7.6972394 29.73506388 0 25 C2.45007702 21.3504061 2.26720289 17.93432292 2.25 13.625 C2.25515625 12.33851563 2.2603125 11.05203125 2.265625 9.7265625 C2.00947024 6.13286185 1.30334733 3.34112053 0 0 Z " fill="#F8E78D" transform="translate(528,176)"/>
<path d="M0 0 C5.94369224 2.80674356 7.96833946 7.36926564 10.25 13.1875 C11.96609401 21.91097788 11.74532149 30.80496169 8 39 C7.01 39.495 7.01 39.495 6 40 C6.875 32.125 6.875 32.125 8 31 C8.23701239 28.14122091 8.42219182 25.30116703 8.5625 22.4375 C8.60568359 21.63119141 8.64886719 20.82488281 8.69335938 19.99414062 C8.79975262 17.99631195 8.90040888 15.9981793 9 14 C8.34 14 7.68 14 7 14 C6.67 11.69 6.34 9.38 6 7 C5.34 7 4.68 7 4 7 C0 2.52941176 0 2.52941176 0 0 Z " fill="#F7E58F" transform="translate(532,166)"/>
<path d="M0 0 C2.1875 1.1015625 2.1875 1.1015625 5.375 3.1015625 C5.375 3.7615625 5.375 4.4215625 5.375 5.1015625 C6.035 5.1015625 6.695 5.1015625 7.375 5.1015625 C9.0625 7.4140625 9.0625 7.4140625 10.375 10.1015625 C10.045 11.0915625 9.715 12.0815625 9.375 13.1015625 C9.2925 12.4828125 9.21 11.8640625 9.125 11.2265625 C8.57552771 8.97769081 8.57552771 8.97769081 6.625 7.9765625 C5.51125 7.5434375 5.51125 7.5434375 4.375 7.1015625 C3.4675 6.7303125 2.56 6.3590625 1.625 5.9765625 C0.8825 5.6878125 0.14 5.3990625 -0.625 5.1015625 C-0.625 4.1115625 -0.625 3.1215625 -0.625 2.1015625 C-2.275 2.1015625 -3.925 2.1015625 -5.625 2.1015625 C-5.625 1.4415625 -5.625 0.7815625 -5.625 0.1015625 C-8.265 0.1015625 -10.905 0.1015625 -13.625 0.1015625 C-13.625 0.7615625 -13.625 1.4215625 -13.625 2.1015625 C-15.935 2.4315625 -18.245 2.7615625 -20.625 3.1015625 C-20.625 2.4415625 -20.625 1.7815625 -20.625 1.1015625 C-14.27083091 -1.84564023 -6.66429934 -2.28093579 0 0 Z " fill="#F8E487" transform="translate(578.625,174.8984375)"/>
<path d="M0 0 C0.33 0.66 0.66 1.32 1 2 C-1.64 2.33 -4.28 2.66 -7 3 C-7.33 14.22 -7.66 25.44 -8 37 C-7.34 37 -6.68 37 -6 37 C-6 37.66 -6 38.32 -6 39 C-4.02 39 -2.04 39 0 39 C-0.33 39.66 -0.66 40.32 -1 41 C-2.98 41 -4.96 41 -7 41 C-7 40.34 -7 39.68 -7 39 C-7.66 39 -8.32 39 -9 39 C-9.0988364 33.78561957 -9.17145206 28.57178357 -9.21972656 23.35668945 C-9.23984903 21.58250431 -9.2671503 19.80838554 -9.30175781 18.03442383 C-9.35024992 15.48502233 -9.37296153 12.93649705 -9.390625 10.38671875 C-9.41127014 9.59287277 -9.43191528 8.79902679 -9.45318604 7.98112488 C-9.45542244 2.49944341 -9.45542244 2.49944341 -7.14355469 -0.03588867 C-4.34217688 -1.29587056 -2.86448527 -1.00644077 0 0 Z " fill="#F7E492" transform="translate(403,175)"/>
<path d="M0 0 C0.66 0 1.32 0 2 0 C2 9.24 2 18.48 2 28 C1.34 28 0.68 28 0 28 C-0.33 29.98 -0.66 31.96 -1 34 C-1.99 33.67 -2.98 33.34 -4 33 C-3.690625 32.401875 -3.38125 31.80375 -3.0625 31.1875 C-1.19957558 27.35206738 -0.82767772 24.2391331 -0.68359375 20.01953125 C-0.62075195 18.27446289 -0.62075195 18.27446289 -0.55664062 16.49414062 C-0.51732422 15.27919922 -0.47800781 14.06425781 -0.4375 12.8125 C-0.39431641 11.58595703 -0.35113281 10.35941406 -0.30664062 9.09570312 C-0.2004691 6.06391619 -0.09842048 3.03204685 0 0 Z " fill="#9FC46E" transform="translate(149,212)"/>
<path d="M0 0 C0.66 0 1.32 0 2 0 C2.02505615 0.85754883 2.0501123 1.71509766 2.07592773 2.59863281 C2.17123412 5.7893437 2.27045751 8.97990219 2.37231445 12.17041016 C2.4155455 13.54959378 2.45722866 14.92882685 2.49731445 16.30810547 C2.55530403 18.29406938 2.61937723 20.27985269 2.68359375 22.265625 C2.72025146 23.45961914 2.75690918 24.65361328 2.79467773 25.88378906 C2.96208994 28.42463255 3.26317859 30.5771424 4 33 C1 32 1 32 -0.18896484 29.8371582 C-1.12101731 26.57665798 -1.13699131 23.99051664 -0.9765625 20.60546875 C-0.925 19.40341797 -0.8734375 18.20136719 -0.8203125 16.96289062 C-0.75585938 15.71701172 -0.69140625 14.47113281 -0.625 13.1875 C-0.56828125 11.92228516 -0.5115625 10.65707031 -0.453125 9.35351562 C-0.31191298 6.23508354 -0.16052192 3.11748795 0 0 Z " fill="#B0D285" transform="translate(112,210)"/>
<path d="M0 0 C1 1 1 1 1.12025452 3.01844788 C1.1169236 4.3474839 1.1169236 4.3474839 1.11352539 5.70336914 C1.11344986 6.70433121 1.11337433 7.70529327 1.11329651 8.73658752 C1.10813522 9.8251152 1.10297394 10.91364288 1.09765625 12.03515625 C1.0962413 13.14354355 1.09482635 14.25193085 1.09336853 15.39390564 C1.08775033 18.95013069 1.07519475 22.50629383 1.0625 26.0625 C1.05748734 28.46679597 1.05292403 30.87109292 1.04882812 33.27539062 C1.03777499 39.18361504 1.02101917 45.0918031 1 51 C0.67 51 0.34 51 0 51 C-0.33 34.5 -0.66 18 -1 1 C-3.64 1.66 -6.28 2.32 -9 3 C-8.67 2.01 -8.34 1.02 -8 0 C-5.11795733 -1.44102133 -3.08226581 -0.65580124 0 0 Z " fill="#F6E49D" transform="translate(312,163)"/>
<path d="M0 0 C0.33 0 0.66 0 1 0 C1.02526838 6.96003447 1.04283222 13.9200572 1.05493164 20.88012695 C1.05997341 23.24992312 1.06680665 25.61971615 1.07543945 27.98950195 C1.0875119 31.38754039 1.09322971 34.78553785 1.09765625 38.18359375 C1.10281754 39.25024765 1.10797882 40.31690155 1.11329651 41.4158783 C1.11337204 42.39681961 1.11344757 43.37776093 1.11352539 44.38842773 C1.115746 45.25668686 1.11796661 46.12494598 1.12025452 47.01951599 C1 49 1 49 0 50 C-2.9375 50.1875 -2.9375 50.1875 -6 50 C-6.66 49.34 -7.32 48.68 -8 48 C-7.67 47.01 -7.34 46.02 -7 45 C-6.34 45.99 -5.68 46.98 -5 48 C-2.525 47.505 -2.525 47.505 0 47 C0 31.49 0 15.98 0 0 Z " fill="#F8DF74" transform="translate(311,166)"/>
<path d="M0 0 C0.99 0.99 1.98 1.98 3 3 C2.07585726 6.10848012 1.43883912 7.68147529 -1.22265625 9.61328125 C-7.40128485 12.69825052 -14.66043472 12.74483097 -21.1875 10.6875 C-24.82872928 9.34254144 -24.82872928 9.34254144 -26 7 C-21.25 7.875 -21.25 7.875 -19 9 C-17.04550156 9.1481544 -15.0848947 9.22124849 -13.125 9.25 C-11.55105469 9.28867188 -11.55105469 9.28867188 -9.9453125 9.328125 C-6.62523186 8.95824864 -5.55254548 8.02922025 -3 6 C-1.68 6 -0.36 6 1 6 C0.67 4.02 0.34 2.04 0 0 Z " fill="#F8E48E" transform="translate(630,205)"/>
<path d="M0 0 C0.66 0 1.32 0 2 0 C2.25502274 4.08215031 2.47452986 8.16545691 2.6875 12.25 C2.76033203 13.40886719 2.83316406 14.56773437 2.90820312 15.76171875 C2.96298828 16.87675781 3.01777344 17.99179688 3.07421875 19.140625 C3.13182373 20.16704102 3.18942871 21.19345703 3.2487793 22.25097656 C2.95966262 25.44573004 2.06219335 26.61444789 0 29 C-0.34227417 30.33106622 -0.67751743 31.66400079 -1 33 C-1.99 33.495 -1.99 33.495 -3 34 C-2.4995805 29.57962773 -1.85626038 25.29020877 -0.9375 20.9375 C0.38817761 13.96541775 0.17174513 7.07017445 0 0 Z " fill="#90BA58" transform="translate(233,186)"/>
<path d="M0 0 C11.385 1.485 11.385 1.485 23 3 C21.02 3.99 21.02 3.99 19 5 C19 5.66 19 6.32 19 7 C12.23238872 6.05542371 6.1399567 5.06997835 0 2 C0 1.34 0 0.68 0 0 Z " fill="#90B849" transform="translate(93,299)"/>
<path d="M0 0 C1.33332095 2.6666419 0.67102033 4.16680303 0 7 C-0.66 7 -1.32 7 -2 7 C-2 11.95 -2 16.9 -2 22 C-1.34 22 -0.68 22 0 22 C0 23.32 0 24.64 0 26 C0.66 26 1.32 26 2 26 C2.33 27.65 2.66 29.3 3 31 C-1.42223021 26.92689323 -3.67152101 23.98304754 -4.3359375 17.94921875 C-4.42192928 10.76890546 -3.8363616 6.11420131 0 0 Z " fill="#F7E389" transform="translate(601,181)"/>
<path d="M0 0 C5.16990441 7.75485662 4.18040376 18.936624 4.1875 27.9375 C4.1887085 29.42975098 4.1887085 29.42975098 4.18994141 30.95214844 C4.15351211 35.73976761 3.99525461 40.29443619 3 45 C2.67 45 2.34 45 2 45 C2.01047363 44.39752441 2.02094727 43.79504883 2.03173828 43.17431641 C2.21184847 31.16165054 2.0169847 19.43746126 0.4375 7.51953125 C0 4 0 4 0 0 Z " fill="#95B95E" transform="translate(244,165)"/>
<path d="M0 0 C1.50539661 0.94983358 3.00420347 1.91011891 4.5 2.875 C5.3353125 3.40867187 6.170625 3.94234375 7.03125 4.4921875 C7.6809375 4.98976563 8.330625 5.48734375 9 6 C9 6.66 9 7.32 9 8 C9.99 8.33 10.98 8.66 12 9 C11.4225 9.12375 10.845 9.2475 10.25 9.375 C7.97664233 10.00648824 6.0746471 10.88858191 4 12 C4.33 9.69 4.66 7.38 5 5 C2.69 5.66 0.38 6.32 -2 7 C-2.66 5.68 -3.32 4.36 -4 3 C-2.68 2.01 -1.36 1.02 0 0 Z " fill="#86B841" transform="translate(198,96)"/>
<path d="M0 0 C7.59 0 15.18 0 23 0 C23 0.66 23 1.32 23 2 C18.14270355 2.97299156 13.5499375 3.12038805 8.625 3.0625 C7.88894531 3.05798828 7.15289062 3.05347656 6.39453125 3.04882812 C4.59631842 3.03715142 2.79814803 3.01922011 1 3 C0.67 2.01 0.34 1.02 0 0 Z " fill="#7DB235" transform="translate(111,303)"/>
<path d="M0 0 C1.65 0 3.3 0 5 0 C2.20145256 3.29240875 -1.20673275 5.03562946 -5 7 C-5.99 7 -6.98 7 -8 7 C-8 7.66 -8 8.32 -8 9 C-9.98 9.66 -11.96 10.32 -14 11 C-12.25 6.125 -12.25 6.125 -10 5 C-10 4.01 -10 3.02 -10 2 C-8.68 1.67 -7.36 1.34 -6 1 C-6 1.99 -6 2.98 -6 4 C-4.35 3.67 -2.7 3.34 -1 3 C-0.67 2.01 -0.34 1.02 0 0 Z " fill="#8BB84A" transform="translate(196,285)"/>
<path d="M0 0 C0.99 0.33 1.98 0.66 3 1 C3 1.66 3 2.32 3 3 C3.99 3.33 4.98 3.66 6 4 C7.00700096 5.7541307 8.00959772 7.51170838 8.953125 9.30078125 C9.96433373 11.18811362 9.96433373 11.18811362 12.1875 12.5625 C14 14 14 14 14.75 17.1875 C14.87375 18.5796875 14.87375 18.5796875 15 20 C12.95880212 18.38405168 10.95927063 16.7143618 9 15 C9 14.34 9 13.68 9 13 C8.34 13 7.68 13 7 13 C5.2734375 10.6640625 5.2734375 10.6640625 3.375 7.625 C2.74335937 6.62726563 2.11171875 5.62953125 1.4609375 4.6015625 C0 2 0 2 0 0 Z " fill="#99BF62" transform="translate(30,248)"/>
<path d="M0 0 C0.71414062 0.48082031 1.42828125 0.96164063 2.1640625 1.45703125 C7.45724242 4.10362121 13.59239869 3.57786238 19.375 3.6875 C21.19451172 3.73874023 21.19451172 3.73874023 23.05078125 3.79101562 C26.03376181 3.87322375 29.01645842 3.94246526 32 4 C32 4.33 32 4.66 32 5 C19.625 5.495 19.625 5.495 7 6 C7 6.66 7 7.32 7 8 C4.69 8 2.38 8 0 8 C1.32 7.34 2.64 6.68 4 6 C3.67 5.34 3.34 4.68 3 4 C2.01 3.67 1.02 3.34 0 3 C0 2.01 0 1.02 0 0 Z " fill="#86B249" transform="translate(80,206)"/>
<path d="M0 0 C0 2.66666667 0 5.33333333 0 8 C-0.99 8.33 -1.98 8.66 -3 9 C-2.44589633 19.17160927 -2.44589633 19.17160927 0 29 C-0.66 29 -1.32 29 -2 29 C-5.5778801 19.99140904 -6.06070721 13.03747975 -2.8515625 3.84765625 C-2 2 -2 2 0 0 Z " fill="#FAE58E" transform="translate(450,180)"/>
<path d="M0 0 C1.258125 0.33 2.51625 0.66 3.8125 1 C6.38987302 1.67603227 8.30212925 2 11 2 C11 2.99 11 3.98 11 5 C16.445 4.505 16.445 4.505 22 4 C22 3.34 22 2.68 22 2 C23.32 1.67 24.64 1.34 26 1 C25 4 25 4 23.25 4.984375 C17.04500126 7.09579818 11.24964693 8.049096 5.13671875 5.1015625 C2.84142566 3.64440746 1.22880234 2.45760469 0 0 Z " fill="#F7E891" transform="translate(450,210)"/>
<path d="M0 0 C0.66 0.33 1.32 0.66 2 1 C1.38125 1.763125 0.7625 2.52625 0.125 3.3125 C-2.05597052 5.99625809 -2.05597052 5.99625809 -4 9 C-5.32 8.67 -6.64 8.34 -8 8 C-8.33 8.66 -8.66 9.32 -9 10 C-9.66 10 -10.32 10 -11 10 C-11 10.66 -11 11.32 -11 12 C-12.65 12 -14.3 12 -16 12 C-15.34 11.01 -14.68 10.02 -14 9 C-13.34 9 -12.68 9 -12 9 C-12 8.34 -12 7.68 -12 7 C-9.4453125 5.23828125 -9.4453125 5.23828125 -6.125 3.3125 C-5.03445312 2.66925781 -3.94390625 2.02601562 -2.8203125 1.36328125 C-1.88960937 0.91339844 -0.95890625 0.46351562 0 0 Z " fill="#9FC66D" transform="translate(73,91)"/>
<path d="M0 0 C2.95703125 1.53125 2.95703125 1.53125 5 3 C2.50907189 4.24546405 1.58919267 3.7767578 -1 3 C-1 2.34 -1 1.68 -1 1 C-7.03085058 1.38291115 -11.53960349 2.37845565 -16.95703125 5.0625 C-18.96142139 5.98229662 -20.84917104 6.53600094 -23 7 C-23 5 -23 5 -21.77734375 3.7109375 C-15.17200066 -1.08529888 -7.9091982 -1.06282619 0 0 Z " fill="#FAEA9A" transform="translate(625,174)"/>
<path d="M0 0 C1.23814453 0.00902344 2.47628906 0.01804687 3.75195312 0.02734375 C6.77234511 0.05066724 9.79231399 0.08339523 12.8125 0.125 C12.8125 0.455 12.8125 0.785 12.8125 1.125 C12.18158447 1.15005615 11.55066895 1.1751123 10.90063477 1.20092773 C8.05853175 1.31654137 5.21678917 1.43942316 2.375 1.5625 C0.88516602 1.62147461 0.88516602 1.62147461 -0.63476562 1.68164062 C-2.05112305 1.74448242 -2.05112305 1.74448242 -3.49609375 1.80859375 C-4.37064209 1.84525146 -5.24519043 1.88190918 -6.14624023 1.91967773 C-8.1802402 1.90681066 -8.1802402 1.90681066 -9.1875 3.125 C-11.88404854 3.19819621 -14.55441458 3.21742537 -17.25 3.1875 C-18.00861328 3.18298828 -18.76722656 3.17847656 -19.54882812 3.17382812 C-21.42841871 3.1620068 -23.30796899 3.14407078 -25.1875 3.125 C-25.1875 2.795 -25.1875 2.465 -25.1875 2.125 C-16.72704733 0.20399104 -8.65319486 -0.12128467 0 0 Z " fill="#93BA59" transform="translate(132.1875,75.875)"/>
<path d="M0 0 C1.36825767 4.10477302 0.04593733 7.0808249 -1.1875 11.0625 C-1.41655029 11.82167725 -1.64560059 12.58085449 -1.8815918 13.36303711 C-3.62348368 19.03429896 -5.61020605 24.5662227 -8 30 C-8.33 30 -8.66 30 -9 30 C-9.125 24.25 -9.125 24.25 -8 22 C-7.34 22 -6.68 22 -6 22 C-5.9175 21.113125 -5.835 20.22625 -5.75 19.3125 C-4.84516725 12.84560709 -2.92206518 5.84413037 0 0 Z " fill="#96BE5F" transform="translate(245,213)"/>
<path d="M0 0 C2.9719385 1.12451727 5.33440687 2.22293791 8 4 C8.34057617 6.88916016 8.34057617 6.88916016 8.29296875 10.5390625 C8.28330078 11.84101563 8.27363281 13.14296875 8.26367188 14.484375 C8.23860388 15.86458923 8.21320902 17.24479756 8.1875 18.625 C8.17245517 20.01300663 8.15876641 21.40102867 8.14648438 22.7890625 C8.1110257 26.19309509 8.06160298 29.59635622 8 33 C7.67 33 7.34 33 7 33 C6.97812622 32.00202393 6.97812622 32.00202393 6.95581055 30.98388672 C6.88098635 27.94702886 6.78443984 24.91122909 6.6875 21.875 C6.66494141 20.82828125 6.64238281 19.7815625 6.61914062 18.703125 C6.42170229 13.03126001 6.03246862 8.95926503 3 4 C3 3.34 3 2.68 3 2 C2.01 1.67 1.02 1.34 0 1 C0 0.67 0 0.34 0 0 Z " fill="#A7CA7B" transform="translate(142,136)"/>
<path d="M0 0 C1 3 1 3 0.22265625 4.82421875 C-0.8515625 6.54947917 -1.92578125 8.27473958 -3 10 C-3.99 10 -4.98 10 -6 10 C-6 10.66 -6 11.32 -6 12 C-8.375 13.6875 -8.375 13.6875 -11 15 C-11.66 14.67 -12.32 14.34 -13 14 C-12.36191406 13.37351562 -11.72382813 12.74703125 -11.06640625 12.1015625 C-10.24011719 11.28429687 -9.41382813 10.46703125 -8.5625 9.625 C-7.73878906 8.81289063 -6.91507813 8.00078125 -6.06640625 7.1640625 C-3.96565328 5.17651485 -3.96565328 5.17651485 -3 3 C-2.34 3 -1.68 3 -1 3 C-0.67 2.01 -0.34 1.02 0 0 Z " fill="#92BD5B" transform="translate(209,259)"/>
<path d="M0 0 C0.84191782 2.9248633 1.11819313 5.50741656 1.09765625 8.546875 C1.09282227 9.81337891 1.09282227 9.81337891 1.08789062 11.10546875 C1.07951172 11.97816406 1.07113281 12.85085937 1.0625 13.75 C1.05798828 14.63816406 1.05347656 15.52632812 1.04882812 16.44140625 C1.037074 18.62767329 1.02064249 20.81380179 1 23 C-1.65670162 20.34329838 -2.44421738 17.62974084 -3 14 C-2.94041554 9.02044156 -2.18409817 4.51380288 0 0 Z " fill="#F8E592" transform="translate(551,184)"/>
<path d="M0 0 C1 2 1 2 0.36328125 4.2421875 C-3.27403846 13.35576923 -3.27403846 13.35576923 -7 16 C-7.99 16 -8.98 16 -10 16 C-8.31029911 12.33601701 -6.12699789 9.09167428 -3.875 5.75 C-3.15054687 4.67234375 -2.42609375 3.5946875 -1.6796875 2.484375 C-0.84824219 1.25460938 -0.84824219 1.25460938 0 0 Z " fill="#F9E380" transform="translate(302,166)"/>
<path d="M0 0 C1.32 0.33 2.64 0.66 4 1 C4.08119503 3.24940295 4.13927819 5.49964871 4.1875 7.75 C4.22230469 9.00296875 4.25710938 10.2559375 4.29296875 11.546875 C3.98802939 15.14109357 3.45605371 16.44725126 1 19 C-0.32 18.67 -1.64 18.34 -3 18 C-2.0409375 16.9790625 -2.0409375 16.9790625 -1.0625 15.9375 C1.39852764 12.43240003 1.85057084 10.25873105 2 6 C1.16830035 2.66500695 1.16830035 2.66500695 0 0 Z " fill="#F8E68F" transform="translate(473,187)"/>
<path d="M0 0 C0.66 0.33 1.32 0.66 2 1 C2 1.66 2 2.32 2 3 C1.01 3 0.02 3 -1 3 C-1.33 4.98 -1.66 6.96 -2 9 C-3.423125 9.3403125 -3.423125 9.3403125 -4.875 9.6875 C-8.19323388 10.69083714 -8.19323388 10.69083714 -9.375 13.625 C-9.58125 14.40875 -9.7875 15.1925 -10 16 C-10.66 15.67 -11.32 15.34 -12 15 C-8.19695186 9.80789528 -4.23841458 4.84390238 0 0 Z " fill="#97C163" transform="translate(48,110)"/>
<path d="M0 0 C2 0 2 0 4.625 2.1875 C8.54680358 6.93736768 7.38671025 13.20793975 7 19 C5.02 19.99 5.02 19.99 3 21 C3.17917969 20.35933594 3.35835938 19.71867187 3.54296875 19.05859375 C5.0693337 12.8513763 5.28379543 9.54848194 2 4 C0.46048953 2.11970761 0.46048953 2.11970761 -1 1 C-0.67 0.67 -0.34 0.34 0 0 Z " fill="#F9E691" transform="translate(346,183)"/>
<path d="M0 0 C3.63 0 7.26 0 11 0 C10 3 10 3 8 4 C8 4.66 8 5.32 8 6 C6.35 6.33 4.7 6.66 3 7 C2.01 4.69 1.02 2.38 0 0 Z " fill="#FBE075" transform="translate(460,206)"/>
<path d="M0 0 C0.33 0 0.66 0 1 0 C1 12.21 1 24.42 1 37 C0.01 37 -0.98 37 -2 37 C-1.67 36.01 -1.34 35.02 -1 34 C-0.84677641 31.41669771 -0.74293111 28.85507761 -0.68359375 26.26953125 C-0.66281265 25.51911057 -0.64203156 24.76868988 -0.62062073 23.99552917 C-0.55530074 21.60127816 -0.49632208 19.20691861 -0.4375 16.8125 C-0.39429807 15.18813987 -0.35068324 13.56379067 -0.30664062 11.93945312 C-0.19963737 7.95974629 -0.09832063 3.97993042 0 0 Z " fill="#F4DE71" transform="translate(403,177)"/>
<path d="M0 0 C2.31 0.33 4.62 0.66 7 1 C7 1.66 7 2.32 7 3 C10.96 3 14.92 3 19 3 C19 2.34 19 1.68 19 1 C20.98 1 22.96 1 25 1 C20.61536183 4.73096505 16.62330177 5.00843074 11 5 C7.227691 4.5371789 4.01349985 3.82346863 1 1.375 C0.67 0.92125 0.34 0.4675 0 0 Z " fill="#F9E48B" transform="translate(557,212)"/>
<path d="M0 0 C1.875 0.1875 1.875 0.1875 4 1 C6.10407599 4.97436576 6.21476435 8.36916454 6.125 12.8125 C6.10695312 13.97394531 6.08890625 15.13539063 6.0703125 16.33203125 C6.04710937 17.21246094 6.02390625 18.09289062 6 19 C5.34 19.33 4.68 19.66 4 20 C4.04125 18.845 4.0825 17.69 4.125 16.5 C4.125 10.67197482 2.9693536 5.09032046 0 0 Z " fill="#94BC5E" transform="translate(185,179)"/>
<path d="M0 0 C2.0625 0.4375 2.0625 0.4375 4 1 C1.73274213 4.58982496 -0.07685421 6.32609997 -4.125 7.4375 C-5.40375 7.623125 -6.6825 7.80875 -8 8 C-8.66 7.34 -9.32 6.68 -10 6 C-9.36191406 5.65066406 -8.72382813 5.30132812 -8.06640625 4.94140625 C-7.24011719 4.48636719 -6.41382813 4.03132813 -5.5625 3.5625 C-4.73878906 3.11003906 -3.91507813 2.65757812 -3.06640625 2.19140625 C-1.07691202 1.16337603 -1.07691202 1.16337603 0 0 Z " fill="#8FBE52" transform="translate(187,280)"/>
<path d="M0 0 C1.98 0 3.96 0 6 0 C2.88140365 2.07906423 0.25435952 3.0142133 -3.3125 4.125 C-4.42238281 4.47820312 -5.53226563 4.83140625 -6.67578125 5.1953125 C-9.92516193 5.98188409 -12.67307392 6.15099513 -16 6 C-15.443125 5.731875 -14.88625 5.46375 -14.3125 5.1875 C-11.92555209 4.03744266 -11.92555209 4.03744266 -9.6875 2.3125 C-6.11849161 0.5694959 -3.80758239 1.17875674 0 2 C0 1.34 0 0.68 0 0 Z " fill="#9ABF68" transform="translate(169,299)"/>
<path d="M0 0 C0 0.66 0 1.32 0 2 C-0.94875 2.309375 -1.8975 2.61875 -2.875 2.9375 C-5.86080408 3.87394742 -5.86080408 3.87394742 -8 5 C-9.87379605 5.07033769 -11.75001102 5.0843022 -13.625 5.0625 C-14.62789062 5.05347656 -15.63078125 5.04445313 -16.6640625 5.03515625 C-17.43492187 5.02355469 -18.20578125 5.01195312 -19 5 C-15.90131855 2.93421237 -13.65023694 2.25308642 -10.0625 1.375 C-9.02222656 1.11460937 -7.98195312 0.85421875 -6.91015625 0.5859375 C-4 0 -4 0 0 0 Z " fill="#8FB854" transform="translate(159,296)"/>
<path d="M0 0 C0.33 0 0.66 0 1 0 C0.48378772 6.83981276 -1.48590969 12.63876684 -4 19 C-4.33 19 -4.66 19 -5 19 C-4.70245971 11.87391001 -3.28874656 6.3327492 0 0 Z " fill="#9FC36E" transform="translate(225,212)"/>
<path d="M0 0 C1.32 0.33 2.64 0.66 4 1 C4.054138 3.24973447 4.09285491 5.49984383 4.125 7.75 C4.14820313 9.00296875 4.17140625 10.2559375 4.1953125 11.546875 C4.01537302 14.72820492 3.68998582 16.36521896 2 19 C0.68 18.67 -0.64 18.34 -2 18 C-1.34 17.360625 -0.68 16.72125 0 16.0625 C2.63357414 12.0298396 2.72420521 8.70733386 2 4 C1.04649462 1.78362469 1.04649462 1.78362469 0 0 Z " fill="#F9E48F" transform="translate(577,187)"/>
<path d="M0 0 C5.95324421 1.39331247 10.75741484 3.88535757 16 7 C15.01 7.66 14.02 8.32 13 9 C13 8.34 13 7.68 13 7 C12.01 7 11.02 7 10 7 C10 6.34 10 5.68 10 5 C9.01 5.33 8.02 5.66 7 6 C4.95703125 5.22265625 4.95703125 5.22265625 2.8125 4.0625 C2.09707031 3.68222656 1.38164062 3.30195312 0.64453125 2.91015625 C0.10183594 2.60980469 -0.44085938 2.30945313 -1 2 C-0.67 1.34 -0.34 0.68 0 0 Z " fill="#9CBE64" transform="translate(172,83)"/>
<path d="M0 0 C-10.37357631 5.55580866 -10.37357631 5.55580866 -16 6 C-16 5.34 -16 4.68 -16 4 C-14.35 4 -12.7 4 -11 4 C-11 3.34 -11 2.68 -11 2 C-4.03571429 -1.34821429 -4.03571429 -1.34821429 0 0 Z " fill="#95BE5E" transform="translate(176,283)"/>
<path d="M0 0 C0.66 0.33 1.32 0.66 2 1 C1.773125 2.175625 1.54625 3.35125 1.3125 4.5625 C0.705766 9.24183207 1.84668353 11.85900678 4 16 C4.33 16.66 4.66 17.32 5 18 C3.125 17.8125 3.125 17.8125 1 17 C-1.84214211 12.59467973 -1.38516242 7.06085501 -1 2 C-0.67 1.34 -0.34 0.68 0 0 Z " fill="#F7E690" transform="translate(455,188)"/>
<path d="M0 0 C-5.97332123 3.4753869 -10.11509775 4.57374185 -17 4 C-14.22246623 2.55441992 -11.45460092 1.34964587 -8.5 0.3125 C-7.7471875 0.04050781 -6.994375 -0.23148437 -6.21875 -0.51171875 C-3.76402507 -1.0519311 -2.35576662 -0.79774824 0 0 Z " fill="#9DC16B" transform="translate(106,80)"/>
<path d="M0 0 C3.45500783 2.66977878 4.05616352 5.86164003 5 10 C5 11.32 5 12.64 5 14 C5.66 14 6.32 14 7 14 C7 15.65 7 17.3 7 19 C4.52748562 15.99614299 3.12314723 13.15575167 1.8125 9.5 C1.46832031 8.5615625 1.12414062 7.623125 0.76953125 6.65625 C0 4 0 4 0 0 Z " fill="#93BB5D" transform="translate(20,223)"/>
<path d="M0 0 C0.99 0.5259375 0.99 0.5259375 2 1.0625 C6.39355879 2.43548712 10.80536689 2.09731656 15 0 C14.67 0.99 14.34 1.98 14 3 C13.34 3 12.68 3 12 3 C12 3.66 12 4.32 12 5 C9.03 5 6.06 5 3 5 C2.67 4.01 2.34 3.02 2 2 C1.34 2 0.68 2 0 2 C0 1.34 0 0.68 0 0 Z " fill="#F8E388" transform="translate(334,204)"/>
<path d="M0 0 C0.99 0.495 0.99 0.495 2 1 C2 1.66 2 2.32 2 3 C2.66 3 3.32 3 4 3 C5.5078125 4.96875 5.5078125 4.96875 7.125 7.5 C7.66382813 8.3353125 8.20265625 9.170625 8.7578125 10.03125 C9.37269531 11.00578125 9.37269531 11.00578125 10 12 C5.25 11.25 5.25 11.25 3 9 C2.40165446 7.47943382 1.86493344 5.93387912 1.375 4.375 C1.11460937 3.55773437 0.85421875 2.74046875 0.5859375 1.8984375 C0.39257812 1.27195312 0.19921875 0.64546875 0 0 Z " fill="#97BF61" transform="translate(216,112)"/>
<path d="M0 0 C7.425 0.99 7.425 0.99 15 2 C11 5 11 5 7.5 4.8125 C4.63369406 4.14710755 2.49787892 3.49872735 0 2 C0 1.34 0 0.68 0 0 Z " fill="#A4C276" transform="translate(93,299)"/>
<path d="M0 0 C0.66 0 1.32 0 2 0 C0.40956621 5.08938811 -2.7446951 8.87456643 -6 13 C-6.66 12.01 -7.32 11.02 -8 10 C-7.01 9.67 -6.02 9.34 -5 9 C-5 8.34 -5 7.68 -5 7 C-4.34 7 -3.68 7 -3 7 C-2.814375 6.1028125 -2.814375 6.1028125 -2.625 5.1875 C-2 3 -2 3 0 0 Z " fill="#A1C36E" transform="translate(210,246)"/>
<path d="M0 0 C0.96099609 0.12568359 0.96099609 0.12568359 1.94140625 0.25390625 C7.23075314 0.87664605 11.77045499 1.02317185 17 0 C16 2 16 2 13.71484375 2.8515625 C12.79832031 3.10679687 11.88179687 3.36203125 10.9375 3.625 C9.55884766 4.01558594 9.55884766 4.01558594 8.15234375 4.4140625 C7.44207031 4.60742188 6.73179687 4.80078125 6 5 C5.34 4.34 4.68 3.68 4 3 C1.93125966 2.3574765 1.93125966 2.3574765 0 2 C0 1.34 0 0.68 0 0 Z " fill="#90B958" transform="translate(123,249)"/>
<path d="M0 0 C0.66 0 1.32 0 2 0 C2 1.98 2 3.96 2 6 C1.01 5.67 0.02 5.34 -1 5 C-0.67 3.35 -0.34 1.7 0 0 Z M-4 3 C-2.515 3.99 -2.515 3.99 -1 5 C-1.33 6.98 -1.66 8.96 -2 11 C-4.1519437 7.77208445 -4.20086443 6.71599191 -4 3 Z " fill="#86BB45" transform="translate(22,212)"/>
<path d="M0 0 C1.32 0 2.64 0 4 0 C4 0.66 4 1.32 4 2 C5.65 1.34 7.3 0.68 9 0 C9 1.32 9 2.64 9 4 C11.97 4.495 11.97 4.495 15 5 C11.57056481 6.18771723 9.62215325 5.80226223 6.25 4.5625 C5.45078125 4.27503906 4.6515625 3.98757812 3.828125 3.69140625 C3.22484375 3.46324219 2.6215625 3.23507813 2 3 C2 2.34 2 1.68 2 1 C1.34 0.67 0.68 0.34 0 0 Z " fill="#F9E58E" transform="translate(327,211)"/>
<path d="M0 0 C1.875 0.6875 1.875 0.6875 4 2 C4.72159424 3.64363134 5.39351421 5.31050386 6 7 C6.66 7.33 7.32 7.66 8 8 C8.625 11.0625 8.625 11.0625 9 14 C6.53522288 11.69806101 4.68244803 9.24011346 2.8125 6.4375 C2.28269531 5.65246094 1.75289063 4.86742187 1.20703125 4.05859375 C0 2 0 2 0 0 Z " fill="#F9E38B" transform="translate(273,184)"/>
<path d="M0 0 C2.75026417 -0.05404449 5.49946203 -0.09369306 8.25 -0.125 C9.02730469 -0.14175781 9.80460938 -0.15851563 10.60546875 -0.17578125 C17.72431144 -0.23662606 17.72431144 -0.23662606 21 2 C20.67 2.99 20.34 3.98 20 5 C19.16210938 4.51917969 18.32421875 4.03835937 17.4609375 3.54296875 C13.65258362 1.84511346 10.77173442 1.50810068 6.625 1.3125 C5.37976563 1.24675781 4.13453125 1.18101562 2.8515625 1.11328125 C1.44003906 1.05720703 1.44003906 1.05720703 0 1 C0 0.67 0 0.34 0 0 Z " fill="#F7E180" transform="translate(507,171)"/>
<path d="M0 0 C2.5 1.375 2.5 1.375 5 3 C5 3.66 5 4.32 5 5 C5.99 5.33 6.98 5.66 8 6 C7.4225 6.12375 6.845 6.2475 6.25 6.375 C3.97664233 7.00648824 2.0746471 7.88858191 0 9 C0.185625 8.2575 0.37125 7.515 0.5625 6.75 C0.99203108 4.05009037 0.85122974 2.55368923 0 0 Z " fill="#94BE59" transform="translate(202,99)"/>
<path d="M0 0 C0 0.99 0 1.98 0 3 C-5.23255814 8 -5.23255814 8 -9 8 C-9 7.01 -9 6.02 -9 5 C-7.68 5 -6.36 5 -5 5 C-4.67 3.68 -4.34 2.36 -4 1 C-3.34 1 -2.68 1 -2 1 C-1.34 0.67 -0.68 0.34 0 0 Z " fill="#F7E784" transform="translate(537,206)"/>
<path d="M0 0 C1.11061907 3.33185722 1.51238572 6.52574827 2 10 C2.30903983 11.33917261 2.62942911 12.67653254 3 14 C3.66 14 4.32 14 5 14 C5 14.66 5 15.32 5 16 C3.125 15.8125 3.125 15.8125 1 15 C-1.6328318 10.78746912 -1.4281111 5.8187389 -1 1 C-0.67 0.67 -0.34 0.34 0 0 Z " fill="#F9E495" transform="translate(607,190)"/>
<path d="M0 0 C4.62 0 9.24 0 14 0 C14 0.66 14 1.32 14 2 C13.34773437 1.94199219 12.69546875 1.88398438 12.0234375 1.82421875 C5.70556784 1.47094873 5.70556784 1.47094873 0.375 4.5 C-0.40875 5.325 -1.1925 6.15 -2 7 C-2 5.68 -2 4.36 -2 3 C-1.34 3 -0.68 3 0 3 C0 2.01 0 1.02 0 0 Z " fill="#F8E897" transform="translate(610,183)"/>
<path d="M0 0 C0.66 0.33 1.32 0.66 2 1 C-0.65938865 5.68558952 -0.65938865 5.68558952 -2.625 7.5 C-4.4724141 9.51536084 -4.64031493 11.33833049 -5 14 C-5.66 14 -6.32 14 -7 14 C-6.30868049 8.05465225 -4.45514656 4.03084689 0 0 Z " fill="#F9E590" transform="translate(330,176)"/>
<path d="M0 0 C1.41623216 -0.05447047 2.83308191 -0.09300508 4.25 -0.125 C5.03890625 -0.14820313 5.8278125 -0.17140625 6.640625 -0.1953125 C9.20731941 0.0171622 10.7916067 0.71345895 13 2 C13 2.66 13 3.32 13 4 C8.71 3.34 4.42 2.68 0 2 C0 1.34 0 0.68 0 0 Z " fill="#92B94F" transform="translate(127,131)"/>
<path d="M0 0 C-1 3 -1 3 -3.06640625 4.16796875 C-3.89011719 4.50441406 -4.71382813 4.84085937 -5.5625 5.1875 C-6.38878906 5.53167969 -7.21507813 5.87585938 -8.06640625 6.23046875 C-9.02353516 6.61138672 -9.02353516 6.61138672 -10 7 C-10.66 6.34 -11.32 5.68 -12 5 C-10.37750059 4.16180842 -8.75191503 3.3295884 -7.125 2.5 C-6.22007813 2.0359375 -5.31515625 1.571875 -4.3828125 1.09375 C-2 0 -2 0 0 0 Z " fill="#A0C371" transform="translate(89,84)"/>
<path d="M0 0 C0.66 0 1.32 0 2 0 C1.31113213 3.38891322 0.01283514 6.18011613 -1.5625 9.25 C-2.01753906 10.14203125 -2.47257813 11.0340625 -2.94140625 11.953125 C-3.29074219 12.62859375 -3.64007813 13.3040625 -4 14 C-4.33 12.68 -4.66 11.36 -5 10 C-4.34 10 -3.68 10 -3 10 C-2.67 7.69 -2.34 5.38 -2 3 C-1.34 3 -0.68 3 0 3 C0 2.01 0 1.02 0 0 Z " fill="#9CC369" transform="translate(218,231)"/>
<path d="M0 0 C0.99 0.495 0.99 0.495 2 1 C1.67 3.31 1.34 5.62 1 8 C4.26545761 9.88391785 7.28111761 10.49287967 11 11 C11 11.33 11 11.66 11 12 C3.52767962 12.36749117 3.52767962 12.36749117 1.25 10.78125 C-0.36575414 8.47880036 -0.30855839 7.09684299 -0.1875 4.3125 C-0.16042969 3.50425781 -0.13335937 2.69601563 -0.10546875 1.86328125 C-0.07066406 1.24839844 -0.03585938 0.63351563 0 0 Z " fill="#A2C673" transform="translate(215,150)"/>
<path d="M0 0 C2.97 0 5.94 0 9 0 C9.66 1.32 10.32 2.64 11 4 C10.01 4 9.02 4 8 4 C7.67 3.67 7.34 3.34 7 3 C4.32941149 2.85884839 1.67567762 2.95752893 -1 3 C-0.67 2.01 -0.34 1.02 0 0 Z " fill="#8BB754" transform="translate(220,145)"/>
<path d="M0 0 C0.66 0 1.32 0 2 0 C2.19573608 1.43640171 2.38127816 2.87419504 2.5625 4.3125 C2.66691406 5.11300781 2.77132813 5.91351563 2.87890625 6.73828125 C3 9 3 9 2 12 C1.34 12 0.68 12 0 12 C0 8.04 0 4.08 0 0 Z " fill="#FBE179" transform="translate(418,185)"/>
<path d="M0 0 C3.27286682 2.7819368 4.96427697 6.27954067 7 10 C4.69 9.67 2.38 9.34 0 9 C0 8.34 0 7.68 0 7 C0.66 7 1.32 7 2 7 C1.34 4.69 0.68 2.38 0 0 Z " fill="#FBE68E" transform="translate(281,179)"/>
<path d="M0 0 C1.74216797 0.02707031 1.74216797 0.02707031 3.51953125 0.0546875 C4.39996094 0.07789063 5.28039062 0.10109375 6.1875 0.125 C6.1875 0.455 6.1875 0.785 6.1875 1.125 C2.5575 1.125 -1.0725 1.125 -4.8125 1.125 C-4.8125 1.785 -4.8125 2.445 -4.8125 3.125 C-7.1225 3.455 -9.4325 3.785 -11.8125 4.125 C-11.8125 3.465 -11.8125 2.805 -11.8125 2.125 C-7.73526266 0.17468308 -4.49557578 -0.09081971 0 0 Z " fill="#FDE697" transform="translate(569.8125,173.875)"/>
<path d="M0 0 C0.33 0 0.66 0 1 0 C1 1.98 1 3.96 1 6 C0.34 6 -0.32 6 -1 6 C-1.12375 6.639375 -1.2475 7.27875 -1.375 7.9375 C-1.58125 8.618125 -1.7875 9.29875 -2 10 C-2.99 10.495 -2.99 10.495 -4 11 C-3.49172849 6.62886504 -2.54826592 3.61004338 0 0 Z " fill="#9FC269" transform="translate(30,134)"/>
<path d="M0 0 C1.19587778 3.58763335 0.68815865 5.03021679 -0.3125 8.625 C-0.57675781 9.60726562 -0.84101563 10.58953125 -1.11328125 11.6015625 C-2 14 -2 14 -4 15 C-3.43179252 9.54520815 -2.05362055 5.08940744 0 0 Z " fill="#8BB554" transform="translate(245,213)"/>
<path d="M0 0 C2.64 0 5.28 0 8 0 C8.33 2.31 8.66 4.62 9 7 C7.02 7.99 7.02 7.99 5 9 C5.66 6.36 6.32 3.72 7 1 C4.69 1 2.38 1 0 1 C0 0.67 0 0.34 0 0 Z " fill="#F7EBA6" transform="translate(429,206)"/>
<path d="M0 0 C-1.41478135 0.64995297 -2.83191487 1.29478722 -4.25 1.9375 C-5.03890625 2.29714844 -5.8278125 2.65679687 -6.640625 3.02734375 C-8.75823698 3.90033279 -10.76669362 4.51338508 -13 5 C-13 4.34 -13 3.68 -13 3 C-9.17472574 -0.67814833 -5.02286969 -1.6742899 0 0 Z " fill="#F9E283" transform="translate(615,176)"/>
<path d="M0 0 C1.46373047 0.02707031 1.46373047 0.02707031 2.95703125 0.0546875 C3.69308594 0.07789063 4.42914063 0.10109375 5.1875 0.125 C5.1875 0.455 5.1875 0.785 5.1875 1.125 C4.59582031 1.16238281 4.00414063 1.19976562 3.39453125 1.23828125 C-1.47821569 1.64368108 -4.71305199 2.26780897 -8.8125 5.125 C-9.4725 5.125 -10.1325 5.125 -10.8125 5.125 C-10.8125 4.135 -10.8125 3.145 -10.8125 2.125 C-7.04027911 0.37336544 -4.145861 -0.09990027 0 0 Z " fill="#8BB551" transform="translate(90.8125,171.875)"/>
<path d="M0 0 C1.75070517 0.11470137 3.50057536 0.24219028 5.25 0.375 C6.22453125 0.44460937 7.1990625 0.51421875 8.203125 0.5859375 C10.89633189 0.98465249 12.66963279 1.63507063 15 3 C14 4 14 4 10.9375 4.0625 C9.968125 4.041875 8.99875 4.02125 8 4 C8 3.34 8 2.68 8 2 C5.36 1.67 2.72 1.34 0 1 C0 0.67 0 0.34 0 0 Z " fill="#99BF61" transform="translate(146,77)"/>
<path d="M0 0 C2.25 0.25 2.25 0.25 4 1 C1.03 3.475 1.03 3.475 -2 6 C-2.66 5.34 -3.32 4.68 -4 4 C-2.25 1.9375 -2.25 1.9375 0 0 Z " fill="#7BB52F" transform="translate(199,272)"/>
<path d="M0 0 C0.33 0 0.66 0 1 0 C1.20086443 3.71599191 1.1519437 4.77208445 -1 8 C-4.125 8.6875 -4.125 8.6875 -7 9 C-6.67 8.34 -6.34 7.68 -6 7 C-5.34 7 -4.68 7 -4 7 C-4 6.34 -4 5.68 -4 5 C-3.34 5 -2.68 5 -2 5 C-1.34 3.35 -0.68 1.7 0 0 Z " fill="#9DC46C" transform="translate(188,199)"/>
<path d="M0 0 C1.32 0.33 2.64 0.66 4 1 C2.02 3.97 0.04 6.94 -2 10 C-3.19156292 5.23374833 -2.3415946 4.12120649 0 0 Z " fill="#F9E387" transform="translate(296,187)"/>
<path d="M0 0 C0.99 0.33 1.98 0.66 3 1 C2.75 4.375 2.75 4.375 2 8 C-0.0625 9.4375 -0.0625 9.4375 -2 10 C-1.67 9.0925 -1.34 8.185 -1 7.25 C0.19605723 3.92954193 0.19605723 3.92954193 0 0 Z " fill="#A0C669" transform="translate(230,150)"/>
<path d="M0 0 C0.99 0 1.98 0 3 0 C2.71125 0.515625 2.4225 1.03125 2.125 1.5625 C0.71219973 4.62356725 -0.1248517 7.74944918 -1 11 C-1.66 10.01 -2.32 9.02 -3 8 C-1.55555556 1.55555556 -1.55555556 1.55555556 0 0 Z " fill="#9EC170" transform="translate(75,179)"/>
<path d="M0 0 C3.96 0 7.92 0 12 0 C12 1.32 12 2.64 12 4 C6.06 2.515 6.06 2.515 0 1 C0 0.67 0 0.34 0 0 Z " fill="#91BB58" transform="translate(81,290)"/>
<path d="M0 0 C1.32 0.66 2.64 1.32 4 2 C1.03 4.475 1.03 4.475 -2 7 C-2.66 6.34 -3.32 5.68 -4 5 C-4 4.34 -4 3.68 -4 3 C-2.68 3 -1.36 3 0 3 C0 2.01 0 1.02 0 0 Z " fill="#94C161" transform="translate(187,270)"/>
<path d="M0 0 C1.258125 0.33 2.51625 0.66 3.8125 1 C6.38987302 1.67603227 8.30212925 2 11 2 C11 2.99 11 3.98 11 5 C3.49230769 4.50769231 3.49230769 4.50769231 1 1.9375 C0.67 1.298125 0.34 0.65875 0 0 Z " fill="#FAE583" transform="translate(450,210)"/>
<path d="M0 0 C2.375 -0.125 2.375 -0.125 5 0 C7 2 7 2 7.125 4.625 C7.08375 5.40875 7.0425 6.1925 7 7 C5.5 5.625 5.5 5.625 4 4 C4 3.34 4 2.68 4 2 C2.35 2 0.7 2 -1 2 C-0.67 1.34 -0.34 0.68 0 0 Z " fill="#F6E591" transform="translate(376,159)"/>
<path d="M0 0 C0.99 0.33 1.98 0.66 3 1 C2.01 2.98 1.02 4.96 0 7 C-0.66 7 -1.32 7 -2 7 C-2 6.01 -2 5.02 -2 4 C-2.66 3.67 -3.32 3.34 -4 3 C-2.68 2.67 -1.36 2.34 0 2 C0 1.34 0 0.68 0 0 Z " fill="#96BE5B" transform="translate(229,250)"/>
<path d="M0 0 C0.33 0 0.66 0 1 0 C0.88590407 1.45922693 0.75834456 2.91740598 0.625 4.375 C0.55539063 5.18710938 0.48578125 5.99921875 0.4140625 6.8359375 C0 9 0 9 -2 11 C-2.66 10.67 -3.32 10.34 -4 10 C-3.71125 9.46375 -3.4225 8.9275 -3.125 8.375 C-1.83288192 5.64719516 -0.91441408 2.87387282 0 0 Z " fill="#9BBE68" transform="translate(149,235)"/>
<path d="M0 0 C2.96052484 3.36423277 3.92289822 6.69159287 5 11 C2 10 2 10 0.8125 7.75 C0.00061706 5.00208853 -0.16260121 2.84552111 0 0 Z " fill="#8EBA58" transform="translate(111,232)"/>
<path d="M0 0 C0.66 0 1.32 0 2 0 C3.38938077 1.96147874 4.7260411 3.96166576 6 6 C5.67 6.66 5.34 7.32 5 8 C2.5 6.8125 2.5 6.8125 0 5 C-0.3125 2.3125 -0.3125 2.3125 0 0 Z " fill="#FAE486" transform="translate(271,165)"/>
<path d="M0 0 C1.134375 0.020625 2.26875 0.04125 3.4375 0.0625 C3.4375 0.3925 3.4375 0.7225 3.4375 1.0625 C2.468125 1.18625 1.49875 1.31 0.5 1.4375 C-1.0159375 1.746875 -1.0159375 1.746875 -2.5625 2.0625 C-2.8925 2.7225 -3.2225 3.3825 -3.5625 4.0625 C-2.9025 4.0625 -2.2425 4.0625 -1.5625 4.0625 C-1.5625 5.0525 -1.5625 6.0425 -1.5625 7.0625 C-2.5525 7.0625 -3.5425 7.0625 -4.5625 7.0625 C-4.60504356 5.06295254 -4.60330783 3.06208364 -4.5625 1.0625 C-3.5625 0.0625 -3.5625 0.0625 0 0 Z " fill="#F6DE67" transform="translate(399.5625,161.9375)"/>
<path d="M0 0 C0.33 0 0.66 0 1 0 C1.125 2.375 1.125 2.375 1 5 C-1 7 -1 7 -4.125 7.125 C-5.548125 7.063125 -5.548125 7.063125 -7 7 C-7.33 6.34 -7.66 5.68 -8 5 C-5.525 5.495 -5.525 5.495 -3 6 C-3 5.34 -3 4.68 -3 4 C-2.01 4 -1.02 4 0 4 C0 2.68 0 1.36 0 0 Z " fill="#F6E594" transform="translate(382,209)"/>
<path d="M0 0 C2.31 0 4.62 0 7 0 C7.33 0.99 7.66 1.98 8 3 C5.03 3 2.06 3 -1 3 C-0.67 2.01 -0.34 1.02 0 0 Z " fill="#F7E893" transform="translate(353,174)"/>
<path d="M0 0 C0.66 0.33 1.32 0.66 2 1 C1.071875 2.1446875 1.071875 2.1446875 0.125 3.3125 C-2.05597052 5.99625809 -2.05597052 5.99625809 -4 9 C-3.6875 5.625 -3.6875 5.625 -3 2 C-2.01 1.34 -1.02 0.68 0 0 Z " fill="#8EBA53" transform="translate(73,91)"/>
<path d="M0 0 C1.65 0 3.3 0 5 0 C2.64722731 2.72426311 0.37503669 3.8141763 -3 5 C-3.33 4.34 -3.66 3.68 -4 3 C-3.01 3 -2.02 3 -1 3 C-0.67 2.01 -0.34 1.02 0 0 Z " fill="#9AC069" transform="translate(196,285)"/>
<path d="M0 0 C0.33 0.99 0.66 1.98 1 3 C0.01 3.33 -0.98 3.66 -2 4 C-3.21869929 6.50447516 -3.21869929 6.50447516 -4 9 C-4.66 8.67 -5.32 8.34 -6 8 C-4.02 5.36 -2.04 2.72 0 0 Z " fill="#A5C773" transform="translate(42,117)"/>
<path d="M0 0 C0.66 0.33 1.32 0.66 2 1 C1 4 1 4 -2 6 C-2.33 4.68 -2.66 3.36 -3 2 C-2.01 1.34 -1.02 0.68 0 0 Z " fill="#7EB32F" transform="translate(213,257)"/>
<path d="M0 0 C0 0.99 0 1.98 0 3 C-1 4 -1 4 -2.84765625 4.09765625 C-4.8984375 4.06510417 -6.94921875 4.03255208 -9 4 C-9 3.67 -9 3.34 -9 3 C-6.03 2.01 -3.06 1.02 0 0 Z " fill="#85B148" transform="translate(230,159)"/>
</svg>
