<?xml version="1.0" encoding="UTF-8"?>
<svg version="1.1" xmlns="http://www.w3.org/2000/svg" width="500" height="500">
<path d="M0 0 C0.91088379 0.20367187 1.82176758 0.40734375 2.76025391 0.6171875 C29.44555577 6.73719302 55.75376967 17.94732243 78 34 C79.4540625 35.04414062 79.4540625 35.04414062 80.9375 36.109375 C91.75610341 44.05428688 101.78576356 52.62045068 111.3125 62.0625 C111.97741455 62.71814941 112.6423291 63.37379883 113.32739258 64.04931641 C113.93736084 64.66339355 114.5473291 65.2774707 115.17578125 65.91015625 C115.72145752 66.45808838 116.26713379 67.00602051 116.8293457 67.57055664 C118 69 118 69 118 71 C118.66 71 119.32 71 120 71 C121.24584961 72.29077148 121.24584961 72.29077148 122.65234375 74.12109375 C123.17586426 74.80010742 123.69938477 75.47912109 124.23876953 76.17871094 C124.79935059 76.92411133 125.35993164 77.66951172 125.9375 78.4375 C126.51870605 79.20739258 127.09991211 79.97728516 127.69873047 80.77050781 C147.83951016 107.75310762 161.78814529 137.064056 169 170 C169.31759277 171.4216748 169.31759277 171.4216748 169.64160156 172.87207031 C175.80682571 201.74407882 175.62333306 234.2426525 169 263 C168.81808105 263.82822266 168.63616211 264.65644531 168.44873047 265.50976562 C157.39101175 314.95822359 127.64653283 361.63956162 86.70019531 391.74853516 C85.00363496 392.99732441 83.32604025 394.26887103 81.6484375 395.54296875 C56.34536188 414.47368858 25.89054445 426.93934565 -5 433 C-5.79083984 433.16371094 -6.58167969 433.32742188 -7.39648438 433.49609375 C-32.96219222 438.59658946 -63.53822057 438.71498889 -89 433 C-89.97694824 432.78537109 -90.95389648 432.57074219 -91.96044922 432.34960938 C-103.61837691 429.73454511 -115.04141641 426.83718729 -126 422 C-121.27385099 420.424617 -116.75029297 422.23877982 -112.01367188 423.35351562 C-98.18203735 426.47097922 -84.49921372 427.38286801 -70.375 427.3125 C-69.58974945 427.31034485 -68.8044989 427.3081897 -67.99545288 427.30596924 C-55.1323016 427.24958264 -42.63514488 426.58320564 -30 424 C-28.9996875 423.79600586 -27.999375 423.59201172 -26.96875 423.38183594 C25.2177754 412.39772351 73.35884387 383.39105325 105 340 C105.76699219 338.95457031 106.53398437 337.90914063 107.32421875 336.83203125 C132.47713149 301.49504215 148.02011583 258.81539437 148.3125 215.1875 C148.31813965 214.38658936 148.3237793 213.58567871 148.32958984 212.76049805 C148.41949147 208.41305306 148.41949147 208.41305306 146 205 C143.5 204.66666667 143.5 204.66666667 141 205 C138.22666557 207.77333443 138.5900385 209.68343702 138.32421875 213.5703125 C138.22117105 214.94349438 138.11737991 216.31662062 138.01293945 217.68969727 C137.96062164 218.41295197 137.90830383 219.13620667 137.85440063 219.88137817 C134.30863305 267.54663451 117.76986136 309.76697602 86.515625 346.0546875 C84.93780316 347.90201307 83.39059804 349.77642324 81.890625 351.6875 C80.19645905 353.75970298 78.54446306 355.41231384 76.5 357.125 C74.07252884 359.18723697 71.71475668 361.27233639 69.41015625 363.47265625 C38.14466149 393.27995235 -4.30276588 411.32672047 -47 416 C-48.71123047 416.19529297 -48.71123047 416.19529297 -50.45703125 416.39453125 C-103.98792644 421.4446157 -157.77186448 405.07081469 -199.6875 371.5625 C-203.7890489 368.11051767 -207.78773405 364.54776639 -211.75 360.9375 C-212.26908936 360.46707275 -212.78817871 359.99664551 -213.32299805 359.51196289 C-239.58309622 335.20478478 -255.81998982 297.51121683 -263 263 C-263.19464844 262.08669922 -263.38929688 261.17339844 -263.58984375 260.23242188 C-269.19302659 232.71090615 -270.28793457 200.50194564 -264 173 C-263.80132324 172.10474609 -263.60264648 171.20949219 -263.39794922 170.28710938 C-255.88990429 137.28545569 -242.29555545 104.83123122 -220 79 C-219.13393231 77.95304905 -218.26946383 76.90477396 -217.40625 75.85546875 C-206.89008156 63.18949656 -195.41979923 50.62767441 -182 41 C-181.42846191 40.58975586 -180.85692383 40.17951172 -180.26806641 39.75683594 C-148.72144041 17.25934465 -114.57162243 2.3883975 -76 -3 C-75.33572998 -3.0935376 -74.67145996 -3.1870752 -73.98706055 -3.28344727 C-49.89096947 -6.19489449 -23.61945857 -5.48482679 0 0 Z M-76.0703125 117.0703125 C-81.4286304 125.20541053 -82.58080296 133.45991493 -82.390625 143.01171875 C-82.38213531 144.65307549 -82.38213531 144.65307549 -82.37347412 146.32759094 C-82.35129843 149.78136192 -82.30113722 153.23404899 -82.25 156.6875 C-82.22991072 159.04620885 -82.21166423 161.40493415 -82.1953125 163.76367188 C-82.15149566 169.50947689 -82.0847751 175.25466098 -82 181 C-82.6064183 180.99333817 -83.21283661 180.98667633 -83.83763123 180.97981262 C-90.18100656 180.91315505 -96.52428147 180.86807367 -102.86791992 180.83520508 C-105.23156784 180.82017059 -107.59518811 180.79973758 -109.95874023 180.77368164 C-113.36709441 180.73706355 -116.77507792 180.72021969 -120.18359375 180.70703125 C-121.23083115 180.69154739 -122.27806854 180.67606354 -123.35704041 180.66011047 C-132.96690102 180.65793373 -140.38996384 182.67261459 -147.85546875 188.84375 C-155.34512234 196.37433066 -158.99343969 204.79578144 -159.3125 215.3125 C-159.09443676 225.90068156 -156.12642862 234.04770488 -149 242 C-139.88982482 249.9110831 -132.10041838 251.30972316 -120.37890625 251.1953125 C-119.27900864 251.1924826 -118.17911102 251.18965271 -117.04588318 251.18673706 C-113.55130897 251.1755898 -110.05699606 251.15049498 -106.5625 251.125 C-104.18555059 251.11496316 -101.80859714 251.10583854 -99.43164062 251.09765625 C-93.6210054 251.07566831 -87.81052138 251.0422451 -82 251 C-82.01332367 251.90296562 -82.01332367 251.90296562 -82.0269165 252.82417297 C-82.11596626 259.13537014 -82.17597148 265.4463865 -82.21972656 271.75805664 C-82.23974175 274.10806538 -82.26696244 276.45802496 -82.30175781 278.80786133 C-82.35072124 282.20145867 -82.37307059 285.59439296 -82.390625 288.98828125 C-82.41127014 290.02519608 -82.43191528 291.0621109 -82.45318604 292.13044739 C-82.45619057 302.07720043 -80.0535377 310.90059472 -73.0546875 318.21484375 C-64.17245174 325.9319193 -55.20457385 328.51010953 -43.5703125 328.3125 C-33.93119171 327.46881328 -25.77820315 323.23430436 -19.28125 316.1171875 C-12.68452604 307.87128255 -11.55862126 300.3592091 -11.70703125 290.0625 C-11.71127609 288.94182129 -11.71552094 287.82114258 -11.71989441 286.66650391 C-11.73659689 283.11075126 -11.77423432 279.55557941 -11.8125 276 C-11.82755769 273.57943531 -11.8412442 271.15886167 -11.85351562 268.73828125 C-11.8864728 262.82532492 -11.93658798 256.91270397 -12 251 C-11.39802292 251.00888245 -10.79604584 251.01776489 -10.17582703 251.0269165 C-3.86462986 251.11596626 2.4463865 251.17597148 8.75805664 251.21972656 C11.10806538 251.23974175 13.45802496 251.26696244 15.80786133 251.30175781 C19.20145867 251.35072124 22.59439296 251.37307059 25.98828125 251.390625 C27.02519608 251.41127014 28.0621109 251.43191528 29.13044739 251.45318604 C39.54700732 251.45633248 48.38956991 248.67953107 55.98828125 241.421875 C64.11747937 231.63526756 65.90686428 221.34123995 65 209 C63.01033654 199.22910491 57.278016 190.53875043 48.9375 185 C41.75376797 180.7243433 34.49831296 180.72543606 26.37890625 180.8046875 C24.72905983 180.80893234 24.72905983 180.80893234 23.04588318 180.81326294 C19.55130897 180.8244102 16.05699606 180.84950502 12.5625 180.875 C10.18555059 180.88503684 7.80859714 180.89416146 5.43164062 180.90234375 C-0.3789946 180.92433169 -6.18947862 180.9577549 -12 181 C-11.99111755 180.39802292 -11.98223511 179.79604584 -11.9730835 179.17582703 C-11.88403374 172.86462986 -11.82402852 166.5536135 -11.78027344 160.24194336 C-11.76025825 157.89193462 -11.73303756 155.54197504 -11.69824219 153.19213867 C-11.64927876 149.79854133 -11.62692941 146.40560704 -11.609375 143.01171875 C-11.58872986 141.97480392 -11.56808472 140.9378891 -11.54681396 139.86955261 C-11.54398585 130.50682807 -13.60432032 121.49999606 -20.24609375 114.55859375 C-29.05403958 106.73148822 -38.26987757 103.33511088 -50.05859375 103.7265625 C-60.63112989 104.70940119 -68.60285777 109.60285777 -76.0703125 117.0703125 Z M119 132 C116.07372264 134.73070932 113.26895753 137.83511232 112.76171875 141.91796875 C112.57860424 147.51741775 113.11249914 151.76207652 117 156 C120.87864419 159.03812536 124.6310619 160.34380101 129.5625 160.125 C134.55724494 159.27814013 137.75038606 156.79429355 141 153 C143.32196271 149.06275889 143.39614965 145.51610597 143 141 C141.25980376 136.32894693 139.23701227 133.63636319 135 131 C129.17440101 128.46223906 124.44948277 128.63482795 119 132 Z " fill="#7BB72F" transform="translate(297,34)"/>
<path d="M0 0 C1.59379281 0.28882636 3.18753086 0.57795492 4.78125 0.8671875 C6.29912109 1.14127441 6.29912109 1.14127441 7.84765625 1.42089844 C9.81594238 1.7824826 11.78248101 2.15388051 13.74609375 2.54003906 C36.09834773 6.89343717 58.33410953 6.40887612 81 6 C81 6.66 81 7.32 81 8 C73.08 8.495 73.08 8.495 65 9 C64.34 10.65 63.68 12.3 63 14 C67.12613297 13.88074095 71.2520818 13.7564388 75.37792969 13.62768555 C76.77827952 13.58466974 78.17867064 13.54297507 79.57910156 13.50268555 C92.18627897 14.18450741 92.18627897 14.18450741 103 10 C103 10.66 103 11.32 103 12 C104.2375 11.79375 105.475 11.5875 106.75 11.375 C110.26245157 10.7895914 111.89278655 11.33257593 115 13 C102.89055074 14.85101127 91.04857127 15.36503402 78.8125 15.3125 C77.9075882 15.31034485 77.00267639 15.3081897 76.07034302 15.30596924 C62.83988803 15.25541611 49.95768506 14.90839948 37 12 C36.02305176 11.78537109 35.04610352 11.57074219 34.03955078 11.34960938 C22.38162309 8.73454511 10.95858359 5.83718729 0 1 C0 0.67 0 0.34 0 0 Z " fill="#7DB337" transform="translate(171,455)"/>
<path d="M0 0 C0.99 0.495 0.99 0.495 2 1 C2 15.85 2 30.7 2 46 C6.85912109 45.98259766 6.85912109 45.98259766 11.81640625 45.96484375 C14.96720278 45.95703638 18.11799822 45.95096918 21.26879883 45.94506836 C23.452072 45.94005157 25.63534182 45.93323663 27.81860352 45.92456055 C30.96371283 45.91237853 34.10877757 45.90674503 37.25390625 45.90234375 C38.2239711 45.89718246 39.19403595 45.89202118 40.1934967 45.88670349 C45.24174356 45.88628923 50.02475387 46.1312108 55 47 C55.33 47.99 55.66 48.98 56 50 C55.2476709 49.84152588 54.4953418 49.68305176 53.72021484 49.51977539 C48.63761712 48.80965264 43.60311691 48.76421462 38.4765625 48.68359375 C37.37524994 48.66281265 36.27393738 48.64203156 35.13925171 48.62062073 C31.63456227 48.5554381 28.12980034 48.49638603 24.625 48.4375 C22.2434822 48.39428502 19.86197163 48.35066978 17.48046875 48.30664062 C11.65371893 48.19903862 5.82691107 48.09973227 0 48 C0 32.16 0 16.32 0 0 Z " fill="#85B04D" transform="translate(285,167)"/>
<path d="M0 0 C0 0.66 0 1.32 0 2 C-2.91911478 2.97303826 -4.87120237 3.14605596 -7.91455078 3.18945312 C-8.91213409 3.20617065 -9.90971741 3.22288818 -10.93753052 3.2401123 C-12.5501326 3.26047546 -12.5501326 3.26047546 -14.1953125 3.28125 C-15.29849823 3.29965942 -16.40168396 3.31806885 -17.53829956 3.33703613 C-22.26778308 3.41585458 -26.99740973 3.48364482 -31.72705078 3.55224609 C-35.1748798 3.60381922 -38.62258035 3.66111597 -42.0703125 3.71875 C-43.14942902 3.73232544 -44.22854553 3.74590088 -45.34036255 3.7598877 C-46.33164154 3.77660522 -47.32292053 3.79332275 -48.34423828 3.81054688 C-49.22121368 3.82307495 -50.09818909 3.83560303 -51.0017395 3.84851074 C-52.99885483 3.78164458 -52.99885483 3.78164458 -54 5 C-54.12221525 6.44184293 -54.17772758 7.88943144 -54.20532227 9.33618164 C-54.22526749 10.2570607 -54.24521271 11.17793976 -54.26576233 12.12672424 C-54.28247482 13.12775681 -54.29918732 14.12878937 -54.31640625 15.16015625 C-54.33718735 16.17975937 -54.35796844 17.19936249 -54.37937927 18.24986267 C-54.44498852 21.52067048 -54.50381234 24.79156137 -54.5625 28.0625 C-54.60567442 30.27409728 -54.64928834 32.48568603 -54.69335938 34.69726562 C-54.8006814 40.13142151 -54.90242623 45.56566082 -55 51 C-55.33 51 -55.66 51 -56 51 C-56 34.83 -56 18.66 -56 2 C-52.43703125 1.93941406 -48.8740625 1.87882812 -45.203125 1.81640625 C-41.75453588 1.75460817 -38.30597931 1.69122404 -34.85742188 1.62768555 C-32.45966485 1.58435845 -30.0618774 1.54268178 -27.6640625 1.50268555 C-24.21865674 1.44492937 -20.77340375 1.38124994 -17.328125 1.31640625 C-15.71855927 1.29133751 -15.71855927 1.29133751 -14.07647705 1.26576233 C-13.07574158 1.24581711 -12.0750061 1.22587189 -11.04394531 1.20532227 C-10.16458313 1.18977798 -9.28522095 1.1742337 -8.37921143 1.15821838 C-5.50190975 0.96687683 -2.86779458 0 0 0 Z " fill="#87AD58" transform="translate(341,283)"/>
<path d="M0 0 C0.56984619 0.24508301 1.13969238 0.49016602 1.72680664 0.74267578 C1.06680664 0.74267578 0.40680664 0.74267578 -0.27319336 0.74267578 C-0.70631836 1.91830078 -0.70631836 1.91830078 -1.14819336 3.11767578 C-2.27319336 5.74267578 -2.27319336 5.74267578 -4.27319336 7.74267578 C-4.74756836 8.27892578 -5.22194336 8.81517578 -5.71069336 9.36767578 C-7.27319336 10.74267578 -7.27319336 10.74267578 -10.27319336 10.74267578 C-11.26319336 12.22767578 -11.26319336 12.22767578 -12.27319336 13.74267578 C-11.94319336 14.40267578 -11.61319336 15.06267578 -11.27319336 15.74267578 C-12.92319336 15.74267578 -14.57319336 15.74267578 -16.27319336 15.74267578 C-16.27319336 16.40267578 -16.27319336 17.06267578 -16.27319336 17.74267578 C-16.91256836 18.21705078 -17.55194336 18.69142578 -18.21069336 19.18017578 C-20.55692299 20.65181228 -20.55692299 20.65181228 -21.27319336 23.74267578 C-22.92319336 23.74267578 -24.57319336 23.74267578 -26.27319336 23.74267578 C-25.64541992 23.12134766 -25.01764648 22.50001953 -24.37084961 21.85986328 C-21.80123245 19.29477169 -19.28565601 16.68026032 -16.76928711 14.06298828 C-15.08341023 12.33090491 -13.39720358 10.59914248 -11.71069336 8.86767578 C-10.43548828 7.52962891 -10.43548828 7.52962891 -9.13452148 6.16455078 C-8.31274414 5.32666016 -7.4909668 4.48876953 -6.64428711 3.62548828 C-5.90106201 2.8560791 -5.15783691 2.08666992 -4.39208984 1.29394531 C-2.27319336 -0.25732422 -2.27319336 -0.25732422 0 0 Z " fill="#7EAD3E" transform="translate(393.273193359375,388.25732421875)"/>
<path d="M0 0 C0.33 0 0.66 0 1 0 C0.88487847 1.72985242 0.75744323 3.45888751 0.625 5.1875 C0.55539063 6.15042969 0.48578125 7.11335937 0.4140625 8.10546875 C-0.00452963 11.03166465 -0.87265576 13.28292423 -2 16 C-2.99065271 21.28971162 -3.11418454 26.6333267 -3 32 C-4.98 32.495 -4.98 32.495 -7 33 C-7.33 36.3 -7.66 39.6 -8 43 C-8.33 43 -8.66 43 -9 43 C-8.50343709 34.66551179 -7.00698388 26.79651072 -5.0625 18.6875 C-4.79759766 17.54732422 -4.53269531 16.40714844 -4.25976562 15.23242188 C-3.04308614 10.06077932 -1.73384885 5.02625019 0 0 Z " fill="#81AF3C" transform="translate(40,181)"/>
<path d="M0 0 C0.495 0.99 0.495 0.99 1 2 C2.2375 1.79375 3.475 1.5875 4.75 1.375 C8.26245157 0.7895914 9.89278655 1.33257593 13 3 C0.44126668 4.9821346 -11.80933154 5.2433123 -24.5 5.125 C-26.40233898 5.11493815 -28.30468317 5.10581803 -30.20703125 5.09765625 C-34.80481981 5.07592419 -39.40234983 5.04157586 -44 5 C-44 4.34 -44 3.68 -44 3 C-42.98164063 3.00523682 -41.96328125 3.01047363 -40.9140625 3.01586914 C-37.10466403 3.03408736 -33.29526934 3.04549301 -29.48583984 3.05493164 C-27.84292959 3.05993363 -26.20002373 3.06673733 -24.55712891 3.07543945 C-22.18390819 3.0876874 -19.81074677 3.09326979 -17.4375 3.09765625 C-16.35106201 3.10539818 -16.35106201 3.10539818 -15.24267578 3.11329651 C-10.41221206 3.11381763 -5.76494011 2.83419359 -1 2 C-0.67 1.34 -0.34 0.68 0 0 Z " fill="#83B045" transform="translate(273,465)"/>
<path d="M0 0 C0.66 0.33 1.32 0.66 2 1 C-1.84128503 14.20441729 -8.19694217 26.7099507 -16 38 C-16.33 37.34 -16.66 36.68 -17 36 C-16.06421005 33.64018187 -15.06652192 31.30368736 -14 29 C-13.34 29 -12.68 29 -12 29 C-12 28.01 -12 27.02 -12 26 C-11.34 26 -10.68 26 -10 26 C-9.87882812 25.39671875 -9.75765625 24.7934375 -9.6328125 24.171875 C-9.46523438 23.37265625 -9.29765625 22.5734375 -9.125 21.75 C-8.96257812 20.96109375 -8.80015625 20.1721875 -8.6328125 19.359375 C-8.00849925 17.03168856 -7.15161458 15.10968048 -6 13 C-5.34 13 -4.68 13 -4 13 C-3.67 11.02 -3.34 9.04 -3 7 C-2.34 7 -1.68 7 -1 7 C-0.67 4.69 -0.34 2.38 0 0 Z " fill="#80AB41" transform="translate(419,316)"/>
<path d="M0 0 C1.60332791 -0.08121924 3.20784026 -0.13929134 4.8125 -0.1875 C6.15248047 -0.23970703 6.15248047 -0.23970703 7.51953125 -0.29296875 C10 0 10 0 11.61645508 1.13745117 C14.67658163 5.25703922 13.73214126 11.55606715 13.875 16.5 C13.93429687 17.74910156 13.99359375 18.99820313 14.0546875 20.28515625 C14.0959375 21.48011719 14.1371875 22.67507813 14.1796875 23.90625 C14.21819824 25.00259766 14.25670898 26.09894531 14.29638672 27.22851562 C14 30 14 30 12.48876953 31.88085938 C11.99747559 32.25017578 11.50618164 32.61949219 11 33 C11.01047363 32.13197754 11.02094727 31.26395508 11.03173828 30.36962891 C11.06579716 27.15300472 11.09088767 23.93647233 11.10986328 20.71972656 C11.11992877 19.32679219 11.13358234 17.93387898 11.15087891 16.54101562 C11.1751022 14.5404564 11.18540814 12.53974385 11.1953125 10.5390625 C11.20578613 9.33459473 11.21625977 8.13012695 11.22705078 6.88916016 C11.30460814 3.87158505 11.30460814 3.87158505 9 2 C6.5 1.66666667 6.5 1.66666667 4 2 C1.22957891 4.77042109 1.60203894 6.76533805 1.375 10.625 C1.30023438 11.81351563 1.22546875 13.00203125 1.1484375 14.2265625 C1.09945313 15.14179688 1.05046875 16.05703125 1 17 C0.67 17 0.34 17 0 17 C-0.19561869 14.9174133 -0.38119313 12.83388144 -0.5625 10.75 C-0.66691406 9.58984375 -0.77132813 8.4296875 -0.87890625 7.234375 C-0.98198087 4.48128523 -0.86213473 2.580018 0 0 Z " fill="#84B146" transform="translate(434,237)"/>
<path d="M0 0 C1.65 0 3.3 0 5 0 C5.28875 0.639375 5.5775 1.27875 5.875 1.9375 C6.82823451 4.15206079 6.82823451 4.15206079 9 5 C9.625 7.0625 9.625 7.0625 10 9 C11.65 8.67 13.3 8.34 15 8 C14.814375 8.7425 14.62875 9.485 14.4375 10.25 C14.0013083 12.99177639 14.24797558 14.39298201 15 17 C2.17757009 6.53271028 2.17757009 6.53271028 0 0 Z " fill="#7DAD3C" transform="translate(71,378)"/>
<path d="M0 0 C3.3 0.33 6.6 0.66 10 1 C7.83333333 2.08333333 5.66666667 3.16666667 3.5 4.25 C0.25176397 6.52376522 -1.22124741 8.44249482 -3 12 C-3.92605638 17.74154958 -3.07765207 21.99881539 0 27 C-3.875 25.25 -3.875 25.25 -5 23 C-5.65019338 10.22561238 -5.65019338 10.22561238 -4 5 C-1.9375 3.625 -1.9375 3.625 0 3 C0 2.01 0 1.02 0 0 Z " fill="#7DA841" transform="translate(414,162)"/>
<path d="M0 0 C3.93545507 1.62878882 6.80220567 4.32202789 9.875 7.1875 C10.40512695 7.67710205 10.93525391 8.1667041 11.48144531 8.67114258 C15.28754906 12.22869161 18.74198567 15.92748209 22 20 C17.38126254 18.08338105 14.6438101 14.61283707 11.31640625 10.99609375 C8.75659942 8.79025683 7.27266558 8.48625582 4 8 C3.34 7.34 2.68 6.68 2 6 C2 5.01 2 4.02 2 3 C1.34 2.67 0.68 2.34 0 2 C0 1.34 0 0.68 0 0 Z " fill="#7EAA40" transform="translate(388,79)"/>
<path d="M0 0 C0.66 0.33 1.32 0.66 2 1 C1.09507812 1.65355469 1.09507812 1.65355469 0.171875 2.3203125 C-4.54781053 5.83723946 -8.11154958 8.85102316 -11 14 C-11.99 13.01 -12.98 12.02 -14 11 C-13.39816251 8.97954558 -12.72693904 6.97888961 -12 5 C-11.34 4.67 -10.68 4.34 -10 4 C-10 4.66 -10 5.32 -10 6 C-9.46375 5.566875 -8.9275 5.13375 -8.375 4.6875 C-5.68543335 2.77649211 -3.0254524 1.31541409 0 0 Z " fill="#7FB337" transform="translate(230,142)"/>
<path d="M0 0 C1.670625 0.495 1.670625 0.495 3.375 1 C11.08152699 2.76220102 19.14651309 2.15249489 27 2 C27.33 2.66 27.66 3.32 28 4 C18 4 8 4 -2 4 C-1.34 2.68 -0.68 1.36 0 0 Z " fill="#80AE41" transform="translate(234,359)"/>
<path d="M0 0 C4.46182436 1.31074365 7.99618757 3.07066011 11.875 5.625 C12.84179688 6.25664063 13.80859375 6.88828125 14.8046875 7.5390625 C15.52914063 8.02117188 16.25359375 8.50328125 17 9 C16.01 9.495 16.01 9.495 15 10 C12.72265625 9.0390625 12.72265625 9.0390625 10.0625 7.625 C7.35742415 6.19875971 4.90647913 4.96882638 2 4 C1.67 4.66 1.34 5.32 1 6 C0.01 5.67 -0.98 5.34 -2 5 C-1.34 3.35 -0.68 1.7 0 0 Z " fill="#7BAC3C" transform="translate(352,55)"/>
<path d="M0 0 C7.33333333 1.33333333 14.66666667 2.66666667 22 4 C21.01 5.485 21.01 5.485 20 7 C12.84831485 6.50104522 6.58708719 3.68436185 0 1 C0 0.67 0 0.34 0 0 Z " fill="#85AC56" transform="translate(171,455)"/>
<path d="M0 0 C4.87072783 4.56630734 8.89156398 9.74976539 13 15 C12.67 15.66 12.34 16.32 12 17 C11.38125 16.195625 10.7625 15.39125 10.125 14.5625 C8.25835959 11.96125481 8.25835959 11.96125481 6 11 C6 10.34 6 9.68 6 9 C4.35 8.67 2.7 8.34 1 8 C1.33 6.68 1.66 5.36 2 4 C1.34 3.67 0.68 3.34 0 3 C0 2.01 0 1.02 0 0 Z " fill="#7DAC3D" transform="translate(417,107)"/>
<path d="M0 0 C1.65 0 3.3 0 5 0 C4.95875 0.721875 4.9175 1.44375 4.875 2.1875 C5.05866431 6.319947 6.07034088 9.07034088 9 12 C8.34 13.32 7.68 14.64 7 16 C5.83102715 13.52189684 4.66472456 11.04259881 3.5 8.5625 C3.16613281 7.85544922 2.83226562 7.14839844 2.48828125 6.41992188 C0 1.11328125 0 1.11328125 0 0 Z " fill="#7FAE3D" transform="translate(47,336)"/>
<path d="M0 0 C3.18678372 2.92352767 5.21723295 5.81612841 7.25 9.625 C7.77078125 10.58664063 8.2915625 11.54828125 8.828125 12.5390625 C10 15 10 15 10 17 C8.35 16.67 6.7 16.34 5 16 C5.33 14.68 5.66 13.36 6 12 C4.68 12 3.36 12 2 12 C2.33 11.01 2.66 10.02 3 9 C2.47056706 6.68586626 2.47056706 6.68586626 1.5625 4.3125 C1.27503906 3.50425781 0.98757813 2.69601563 0.69140625 1.86328125 C0.46324219 1.24839844 0.23507812 0.63351563 0 0 Z " fill="#7CB03A" transform="translate(436,133)"/>
<path d="M0 0 C0.99 0 1.98 0 3 0 C3 0.66 3 1.32 3 2 C3.66 2 4.32 2 5 2 C7.36214538 4.64846603 8.87172132 6.61516396 10 10 C9.01 11.485 9.01 11.485 8 13 C6.66388095 11.0226631 5.33100742 9.04327287 4 7.0625 C3.6184375 6.49853516 3.236875 5.93457031 2.84375 5.35351562 C0 1.11328125 0 1.11328125 0 0 Z " fill="#7EAE3A" transform="translate(62,365)"/>
<path d="M0 0 C1.93140319 6.81151352 -0.40935753 12.48392003 -3.0625 18.765625 C-4.07620833 21.10287673 -4.07620833 21.10287673 -5 24 C-5.66 24 -6.32 24 -7 24 C-6.82984375 23.44054687 -6.6596875 22.88109375 -6.484375 22.3046875 C-4.24392676 14.89214065 -2.11457447 7.44931312 0 0 Z " fill="#80AC43" transform="translate(439,297)"/>
<path d="M0 0 C-0.33 1.32 -0.66 2.64 -1 4 C-6.28 4 -11.56 4 -17 4 C-13.89069252 2.44534626 -11.78638601 1.58404904 -8.5 0.875 C-7.7471875 0.70742188 -6.994375 0.53984375 -6.21875 0.3671875 C-4 0 -4 0 0 0 Z " fill="#81AF40" transform="translate(212,33)"/>
<path d="M0 0 C3.63 0 7.26 0 11 0 C11.33 0.99 11.66 1.98 12 3 C12.66 3.66 13.32 4.32 14 5 C5.42857143 4 5.42857143 4 2 3 C2 2.34 2 1.68 2 1 C1.34 0.67 0.68 0.34 0 0 Z " fill="#7EAF3E" transform="translate(189,460)"/>
<path d="M0 0 C2.30588 4.61176 1.8732079 7.3823486 1.125 12.25 C1.02058594 12.99507813 0.91617187 13.74015625 0.80859375 14.5078125 C0.55018787 16.34014511 0.27657918 18.17032234 0 20 C-0.99 20.33 -1.98 20.66 -3 21 C-2.01 14.07 -1.02 7.14 0 0 Z " fill="#83AF43" transform="translate(444,270)"/>
<path d="M0 0 C1 4 1 4 0 6 C-0.5775 6.103125 -1.155 6.20625 -1.75 6.3125 C-5.05471094 7.32227279 -6.67956385 9.50106876 -9 12 C-10 13 -11 14 -12 15 C-12.66 14.67 -13.32 14.34 -14 14 C-9.38 9.38 -4.76 4.76 0 0 Z " fill="#7FAB42" transform="translate(99,89)"/>
<path d="M0 0 C6.625 -0.125 6.625 -0.125 10 1 C10.99 0.67 11.98 0.34 13 0 C13.66 0.99 14.32 1.98 15 3 C14.01 4.32 13.02 5.64 12 7 C11.319375 6.38125 10.63875 5.7625 9.9375 5.125 C6.54118766 2.6680932 4.03981179 1.95054395 0 1 C0 0.67 0 0.34 0 0 Z " fill="#7FAD3E" transform="translate(425,163)"/>
<path d="M0 0 C3.63 0 7.26 0 11 0 C11 0.66 11 1.32 11 2 C12.27875 1.814375 13.5575 1.62875 14.875 1.4375 C18.75 0.875 18.75 0.875 21 2 C21 2.66 21 3.32 21 4 C18.4372008 3.68981396 15.8747789 3.37693109 13.3125 3.0625 C12.59126953 2.97548828 11.87003906 2.88847656 11.12695312 2.79882812 C7.37989416 2.33686195 3.69207089 1.80832321 0 1 C0 0.67 0 0.34 0 0 Z " fill="#81AB44" transform="translate(203,465)"/>
<path d="M0 0 C0.33 1.32 0.66 2.64 1 4 C0.01 4.66 -0.98 5.32 -2 6 C-3.32 5.34 -4.64 4.68 -6 4 C-6 4.66 -6 5.32 -6 6 C-7.32 5.34 -8.64 4.68 -10 4 C-8.71086513 3.32845067 -7.41859796 2.66291141 -6.125 2 C-5.40570313 1.62875 -4.68640625 1.2575 -3.9453125 0.875 C-2 0 -2 0 0 0 Z " fill="#7FB03C" transform="translate(330,437)"/>
<path d="M0 0 C0.99 0.66 1.98 1.32 3 2 C-0.96 7.94 -0.96 7.94 -5 14 C-6 10 -6 10 -5 7 C-4.34 7 -3.68 7 -3 7 C-2.67 6.01 -2.34 5.02 -2 4 C-1.34 4 -0.68 4 0 4 C0 2.68 0 1.36 0 0 Z " fill="#7EAC40" transform="translate(399,354)"/>
<path d="M0 0 C2.64 0 5.28 0 8 0 C7.38125 0.28875 6.7625 0.5775 6.125 0.875 C3.86674235 1.93720042 3.86674235 1.93720042 2 4 C1.53513282 7.12196336 1.53513282 7.12196336 1.375 10.625 C1.30023438 11.81351563 1.22546875 13.00203125 1.1484375 14.2265625 C1.09945313 15.14179688 1.05046875 16.05703125 1 17 C0.67 17 0.34 17 0 17 C-0.19561869 14.9174133 -0.38119313 12.83388144 -0.5625 10.75 C-0.66691406 9.58984375 -0.77132813 8.4296875 -0.87890625 7.234375 C-0.98198087 4.48128523 -0.86213473 2.580018 0 0 Z " fill="#7DA742" transform="translate(434,237)"/>
<path d="M0 0 C1.0209375 0.2165625 1.0209375 0.2165625 2.0625 0.4375 C5.36273082 1.06945909 8.67144426 1.54313941 12 2 C12.66 3.65 13.32 5.3 14 7 C9.0276578 5.50829734 4.58154261 3.39542583 0 1 C0 0.67 0 0.34 0 0 Z " fill="#80AE3C" transform="translate(130,426)"/>
<path d="M0 0 C3.3125 -0.25 3.3125 -0.25 7 0 C8.9375 1.875 8.9375 1.875 10 4 C10 4.66 10 5.32 10 6 C6.40992874 4.66654496 3.20429093 3.1056769 0 1 C0 0.67 0 0.34 0 0 Z " fill="#7DAD3D" transform="translate(118,419)"/>
<path d="M0 0 C0.66 0 1.32 0 2 0 C0.90301833 5.69139902 -0.54053077 10.74567937 -3 16 C-3.5534764 13.92446352 -4 12.15634036 -4 10 C-3.34 10 -2.68 10 -2 10 C-2.04125 9.278125 -2.0825 8.55625 -2.125 7.8125 C-1.99078695 4.79270631 -1.24829381 2.73064271 0 0 Z " fill="#81A942" transform="translate(457,319)"/>
<path d="M0 0 C2.31 0.33 4.62 0.66 7 1 C7 1.99 7 2.98 7 4 C7.99 4 8.98 4 10 4 C10.33 5.32 10.66 6.64 11 8 C6.99698968 6.23867546 3.3971023 3.73867517 0 1 C0 0.67 0 0.34 0 0 Z " fill="#7EAA41" transform="translate(102,408)"/>
<path d="M0 0 C1.15941038 3.47823115 0.70820884 5.45895578 0 9 C-1.98 9.66 -3.96 10.32 -6 11 C-4.54955729 6.89041233 -2.48889248 3.56741255 0 0 Z " fill="#7FAD3F" transform="translate(69,123)"/>
<path d="M0 0 C0.33 0.66 0.66 1.32 1 2 C0.360625 2.928125 -0.27875 3.85625 -0.9375 4.8125 C-3.08622093 7.84219943 -3.08622093 7.84219943 -4 11 C-5.98 11 -7.96 11 -10 11 C-9.278125 10.29875 -8.55625 9.5975 -7.8125 8.875 C-5.00176187 6.07229255 -2.50483774 3.07737208 0 0 Z " fill="#80AB3E" transform="translate(280,346)"/>
<path d="M0 0 C2.47186455 2.96346786 3.66248361 5.54041689 4.6875 9.25 C4.93886719 10.14203125 5.19023437 11.0340625 5.44921875 11.953125 C5.72185547 12.96632812 5.72185547 12.96632812 6 14 C4 13 4 13 2.5625 10.0625 C1.20367158 6.78256825 1.20367158 6.78256825 -2 5 C-1.34 3.35 -0.68 1.7 0 0 Z " fill="#7DAA3E" transform="translate(451,161)"/>
<path d="M0 0 C1.38576923 1.62332967 2.72641268 3.28724465 4 5 C3.67 5.66 3.34 6.32 3 7 C1.72881136 6.20890398 0.45806377 5.41709922 -0.8125 4.625 C-1.52019531 4.18414062 -2.22789062 3.74328125 -2.95703125 3.2890625 C-4.65432039 2.21811524 -6.33014358 1.11323761 -8 0 C-4.71303767 -0.79953138 -3.28976808 -1.09658936 0 0 Z " fill="#7FAE3C" transform="translate(269,139)"/>
<path d="M0 0 C3.3 0.99 6.6 1.98 10 3 C10 3.33 10 3.66 10 4 C8.02 4 6.04 4 4 4 C3.67 4.99 3.34 5.98 3 7 C2.01 6.67 1.02 6.34 0 6 C0.66 5.67 1.32 5.34 2 5 C2 4.34 2 3.68 2 3 C1.34 2.67 0.68 2.34 0 2 C0 1.34 0 0.68 0 0 Z " fill="#7EB03C" transform="translate(320,41)"/>
<path d="M0 0 C1.65 0.33 3.3 0.66 5 1 C1.25 7.875 1.25 7.875 -1 9 C-1.33 8.01 -1.66 7.02 -2 6 C-0.5625 3.8125 -0.5625 3.8125 1 2 C0.67 1.34 0.34 0.68 0 0 Z " fill="#80B03D" transform="translate(426,374)"/>
<path d="M0 0 C2.56616632 3.84924948 2.55097676 6.4349304 3 11 C1.0625 10.1875 1.0625 10.1875 -1 9 C-1.33 8.01 -1.66 7.02 -2 6 C-1.34 6 -0.68 6 0 6 C0 4.02 0 2.04 0 0 Z " fill="#7DAC42" transform="translate(461,188)"/>
<path d="M0 0 C0.66 0.33 1.32 0.66 2 1 C2 1.99 2 2.98 2 4 C0.68 4 -0.64 4 -2 4 C-2 5.65 -2 7.3 -2 9 C-3.32 9 -4.64 9 -6 9 C-4.47291037 5.56404834 -2.40072955 2.88087546 0 0 Z " fill="#7EAF3D" transform="translate(82,107)"/>
<path d="M0 0 C0 0.99 0 1.98 0 3 C-2.1171875 4.640625 -2.1171875 4.640625 -4.875 6.25 C-5.77992187 6.79140625 -6.68484375 7.3328125 -7.6171875 7.890625 C-8.40351562 8.25671875 -9.18984375 8.6228125 -10 9 C-10.66 8.67 -11.32 8.34 -12 8 C-10.37615858 6.85252535 -8.75088944 5.7070709 -7.125 4.5625 C-6.22007813 3.92441406 -5.31515625 3.28632812 -4.3828125 2.62890625 C-2 1 -2 1 0 0 Z " fill="#7EA944" transform="translate(133,63)"/>
<path d="M0 0 C0.66 0.33 1.32 0.66 2 1 C1.67 2.32 1.34 3.64 1 5 C-3.455 5.495 -3.455 5.495 -8 6 C-5.38485683 3.87961365 -2.80362384 1.86908256 0 0 Z " fill="#7FAD3B" transform="translate(338,431)"/>
<path d="M0 0 C-4.47718792 2.98479194 -8.63824093 4 -14 4 C-13 2 -13 2 -10.375 0.875 C-6.78189212 -0.05654649 -3.69584376 -0.14783375 0 0 Z " fill="#84AE44" transform="translate(319,459)"/>
<path d="M0 0 C4.85963179 0.60745397 8.7405518 2.72758967 13 5 C13 5.33 13 5.66 13 6 C8.21193122 6.74813575 5.43289751 4.69491132 1.57421875 2.19140625 C1.05472656 1.79824219 0.53523438 1.40507813 0 1 C0 0.67 0 0.34 0 0 Z " fill="#80AB43" transform="translate(339,49)"/>
<path d="M0 0 C0.8971875 0.309375 0.8971875 0.309375 1.8125 0.625 C-0.25506277 3.4222908 -1.33190371 3.65192273 -4.875 4.3125 C-5.968125 4.415625 -7.06125 4.51875 -8.1875 4.625 C-3.2421875 -0.55580357 -3.2421875 -0.55580357 0 0 Z " fill="#7EAD39" transform="translate(350.1875,425.375)"/>
<path d="M0 0 C0.66 0.33 1.32 0.66 2 1 C-0.31 3.97 -2.62 6.94 -5 10 C-6 6 -6 6 -5 4 C-4.01 4 -3.02 4 -2 4 C-1.34 2.68 -0.68 1.36 0 0 Z " fill="#7AAB40" transform="translate(148,222)"/>
<path d="M0 0 C0.99 0 1.98 0 3 0 C2.34 3.3 1.68 6.6 1 10 C0.34 9.34 -0.32 8.68 -1 8 C-0.96712417 5.27130593 -0.43602229 2.7033382 0 0 Z " fill="#80AE3D" transform="translate(426,291)"/>
<path d="M0 0 C0.66 0.33 1.32 0.66 2 1 C0.7391988 2.03319813 -0.53403258 3.05124379 -1.8125 4.0625 C-2.87404297 4.91521484 -2.87404297 4.91521484 -3.95703125 5.78515625 C-4.63121094 6.18605469 -5.30539063 6.58695313 -6 7 C-6.99 6.67 -7.98 6.34 -9 6 C-6.45368965 3.02930459 -3.57769851 1.5224249 0 0 Z " fill="#78AC3E" transform="translate(230,142)"/>
<path d="M0 0 C0.33 0.66 0.66 1.32 1 2 C2.98 1.67 4.96 1.34 7 1 C4.73814546 3.26185454 3.03016439 4.03921617 0 5 C-0.99 4.67 -1.98 4.34 -3 4 C-2.01 2.68 -1.02 1.36 0 0 Z " fill="#85AF48" transform="translate(298,434)"/>
<path d="M0 0 C3.48331435 3.01887244 4.79157144 5.56909529 6 10 C5.01 9.67 4.02 9.34 3 9 C2.05078125 6.93359375 2.05078125 6.93359375 1.3125 4.4375 C1.06113281 3.61121094 0.80976563 2.78492188 0.55078125 1.93359375 C0.36902344 1.29550781 0.18726563 0.65742188 0 0 Z " fill="#82A940" transform="translate(436,133)"/>
<path d="M0 0 C0.99 0 1.98 0 3 0 C1.60667426 3.36720387 0.0210714 4.9859524 -3 7 C-3 5.35 -3 3.7 -3 2 C-2.01 2 -1.02 2 0 2 C0 1.34 0 0.68 0 0 Z " fill="#83AD48" transform="translate(382,377)"/>
<path d="M0 0 C2 1 2 1 2.8515625 3.06640625 C3.10679688 3.89011719 3.36203125 4.71382813 3.625 5.5625 C3.88539062 6.38878906 4.14578125 7.21507812 4.4140625 8.06640625 C4.60742188 8.70449219 4.80078125 9.34257812 5 10 C4.01 10.495 4.01 10.495 3 11 C2.49384702 9.73160474 1.99530901 8.46016898 1.5 7.1875 C1.2215625 6.47980469 0.943125 5.77210938 0.65625 5.04296875 C0 3 0 3 0 0 Z " fill="#7BAD3F" transform="translate(40,316)"/>
<path d="M0 0 C1 4 1 4 0 6 C-1.97888961 6.72693904 -3.97954558 7.39816251 -6 8 C-4.02 5.36 -2.04 2.72 0 0 Z " fill="#80AA45" transform="translate(356,270)"/>
<path d="M0 0 C1.74627478 2.61941217 2.38722388 4.03824877 3 7 C0.08482708 5.92598892 -1.77810176 5.22189824 -4 3 C-3.01 3 -2.02 3 -1 3 C-0.67 2.01 -0.34 1.02 0 0 Z " fill="#7EAF3C" transform="translate(346,214)"/>
<path d="M0 0 C3.3 0.33 6.6 0.66 10 1 C6.23312136 2.88343932 4.97041037 3.22057835 1 3 C0.67 2.01 0.34 1.02 0 0 Z " fill="#7EAF37" transform="translate(414,162)"/>
<path d="M0 0 C1.31223496 3.93670488 0.24296256 6.12488144 -1 10 C-1.99 10 -2.98 10 -4 10 C-2.8905928 6.51329166 -1.73662334 3.22515763 0 0 Z " fill="#80AD3C" transform="translate(53,150)"/>
<path d="M0 0 C2.0625 0.4375 2.0625 0.4375 4 1 C1.03 3.475 1.03 3.475 -2 6 C-1.125 1.125 -1.125 1.125 0 0 Z " fill="#82AF3F" transform="translate(402,405)"/>
<path d="M0 0 C0.33 0 0.66 0 1 0 C1.25 2.75 1.25 2.75 1 6 C-1 8.375 -1 8.375 -3 10 C-2.01 6.7 -1.02 3.4 0 0 Z " fill="#80AA3D" transform="translate(44,170)"/>
<path d="M0 0 C-1.24546405 3.73639216 -2.63404953 4.18756513 -6 6 C-5.625 3.5625 -5.625 3.5625 -5 1 C-3 0 -3 0 0 0 Z " fill="#82AF3E" transform="translate(374,389)"/>
<path d="M0 0 C0.93065133 2.60582371 1.14917407 3.64198224 0.0625 6.25 C-0.4634375 7.11625 -0.4634375 7.11625 -1 8 C-1.99 7.67 -2.98 7.34 -4 7 C-2.68 4.69 -1.36 2.38 0 0 Z " fill="#7FA93F" transform="translate(58,141)"/>
<path d="M0 0 C3.81684226 1.55500981 6.19195732 4.03595495 9 7 C7 6 7 6 5 5 C4.278125 4.690625 3.55625 4.38125 2.8125 4.0625 C1 3 1 3 0 0 Z " fill="#7CA83F" transform="translate(379,72)"/>
</svg>
