<?xml version="1.0" encoding="UTF-8"?>
<svg version="1.1" xmlns="http://www.w3.org/2000/svg" width="500" height="500">
<path d="M0 0 C16.90405098 17.62644633 22.28908862 39.48118901 21.90234375 63.22265625 C21.13682297 85.10959135 10.82303683 103.16116654 -4.83984375 118.0078125 C-9.71527156 122.28818116 -14.64495855 125.71910896 -20.40234375 128.6953125 C-21.41167969 129.21996094 -22.42101562 129.74460937 -23.4609375 130.28515625 C-42.55928114 139.6623742 -64.01458125 140.3317467 -84.4296875 134.765625 C-87.40234375 133.6953125 -87.40234375 133.6953125 -88.40234375 131.6953125 C-87.47035156 131.8396875 -86.53835937 131.9840625 -85.578125 132.1328125 C-66.9764524 134.84124612 -49.51790557 134.25309341 -32.40234375 125.6953125 C-31.4175 125.20289063 -30.43265625 124.71046875 -29.41796875 124.203125 C-9.75094601 113.55440025 2.8032874 95.74756143 9.59765625 74.6953125 C11.39882938 67.47104199 12.05296258 60.10601316 12.59765625 52.6953125 C11.60765625 53.0253125 10.61765625 53.3553125 9.59765625 53.6953125 C9.45070312 55.43554688 9.45070312 55.43554688 9.30078125 57.2109375 C7.16190651 80.38539665 -1.63918318 99.21392378 -19.40234375 114.6953125 C-37.67681044 128.31048768 -58.89695848 133.46215438 -81.37109375 130.19140625 C-98.6351667 126.84935673 -115.91424519 118.07329845 -126.59375 103.7578125 C-139.12502988 84.35454043 -143.64475542 62.18112728 -139.78515625 39.296875 C-136.81425911 26.96633729 -130.75806735 14.30540623 -122.40234375 4.6953125 C-121.73589844 3.88707031 -121.06945312 3.07882813 -120.3828125 2.24609375 C-106.48009585 -14.04272838 -86.49760525 -22.60895296 -65.52734375 -25.1796875 C-40.56739501 -26.53436586 -17.93938037 -17.21013726 0 0 Z M-69.40234375 19.6953125 C-72.84540025 24.85989725 -72.53515216 29.95588112 -72.46484375 36.0078125 C-72.46033203 36.74837891 -72.45582031 37.48894531 -72.45117188 38.25195312 C-72.4394655 40.06644149 -72.42153273 41.88088784 -72.40234375 43.6953125 C-73.54832031 43.66050781 -74.69429687 43.62570313 -75.875 43.58984375 C-77.40493314 43.56168547 -78.93488229 43.53438751 -80.46484375 43.5078125 C-81.5930957 43.47010742 -81.5930957 43.47010742 -82.74414062 43.43164062 C-88.54652147 43.35628503 -93.58619784 44.03101759 -97.99609375 48.203125 C-100.38991254 52.47485335 -100.83650269 55.7717995 -100.01171875 60.61328125 C-99.10290246 63.71840359 -97.7756584 65.51977407 -95.40234375 67.6953125 C-90.75467796 70.22639425 -86.23111052 69.925816 -81.08984375 69.8203125 C-79.8359082 69.80677734 -79.8359082 69.80677734 -78.55664062 69.79296875 C-76.50508406 69.76952239 -74.45367598 69.73365516 -72.40234375 69.6953125 C-72.43714844 70.84128906 -72.47195312 71.98726562 -72.5078125 73.16796875 C-72.53597078 74.69790189 -72.56326874 76.22785104 -72.58984375 77.7578125 C-72.61498047 78.50998047 -72.64011719 79.26214844 -72.66601562 80.03710938 C-72.73522756 85.36642818 -71.89715671 88.96543708 -69.40234375 93.6953125 C-66.21649351 96.6820471 -63.44890214 97.59658058 -59.08984375 98.0078125 C-54.66966454 97.63322104 -52.77505094 96.53145263 -49.40234375 93.6953125 C-45.61812358 89.06520782 -46.0495375 84.56680444 -46.21484375 78.8828125 C-46.22837891 77.99916016 -46.24191406 77.11550781 -46.25585938 76.20507812 C-46.29105158 74.03489227 -46.3448539 71.86502217 -46.40234375 69.6953125 C-45.10039063 69.74171875 -43.7984375 69.788125 -42.45703125 69.8359375 C-40.73049179 69.87347097 -39.00392739 69.90986943 -37.27734375 69.9453125 C-35.9934375 69.99558594 -35.9934375 69.99558594 -34.68359375 70.046875 C-29.05027207 70.13354149 -25.86072442 69.48493607 -21.40234375 65.6953125 C-18.51804485 62.23415382 -17.85855995 59.20696105 -18.0546875 54.6875 C-18.65144175 51.26789699 -20.13295175 49.26330871 -22.40234375 46.6953125 C-27.56417887 43.35900443 -31.85214105 43.32353586 -37.77734375 43.5078125 C-38.60878906 43.52134766 -39.44023438 43.53488281 -40.296875 43.54882812 C-42.33231441 43.58392191 -44.36741666 43.63772022 -46.40234375 43.6953125 C-46.3559375 42.39335937 -46.30953125 41.09140625 -46.26171875 39.75 C-46.22418528 38.02346054 -46.18778682 36.29689614 -46.15234375 34.5703125 C-46.11882812 33.714375 -46.0853125 32.8584375 -46.05078125 31.9765625 C-45.96435201 26.35866191 -46.57757629 23.11381642 -50.40234375 18.6953125 C-57.6586184 13.96295947 -62.62659446 15.13471201 -69.40234375 19.6953125 Z M0.59765625 26.6953125 C-0.49039521 29.0519351 -0.49039521 29.0519351 -0.40234375 31.6953125 C0.58799851 34.09915245 0.58799851 34.09915245 2.59765625 35.6953125 C5.09765625 36.36197917 5.09765625 36.36197917 7.59765625 35.6953125 C9.58799266 34.04157754 9.58799266 34.04157754 10.59765625 31.6953125 C10.32096096 29.34340252 9.65422088 27.80844176 8.59765625 25.6953125 C5.33847277 24.34668485 3.41666124 24.55675699 0.59765625 26.6953125 Z " fill="#7BB730" transform="translate(150.40234375,193.3046875)"/>
<path d="M0 0 C3.85821726 2.18632311 5.53247423 5.24623201 7.8203125 8.96484375 C8.67397111 10.3196743 9.53064647 11.67260969 10.390625 13.0234375 C10.76203613 13.62341553 11.13344727 14.22339355 11.51611328 14.84155273 C12.75539244 16.61323442 14.12629231 18.04505189 15.6953125 19.52734375 C16.03264404 18.99254395 16.36997559 18.45774414 16.7175293 17.90673828 C18.25913639 15.47972914 19.82061672 13.06614684 21.3828125 10.65234375 C21.91326172 9.81058594 22.44371094 8.96882812 22.99023438 8.1015625 C23.51552734 7.29589844 24.04082031 6.49023438 24.58203125 5.66015625 C25.05858154 4.91652832 25.53513184 4.17290039 26.02612305 3.40673828 C28.08744417 1.08582998 29.6916962 0.27037918 32.6953125 -0.47265625 C33.6853125 0.18734375 34.6753125 0.84734375 35.6953125 1.52734375 C35.9617995 4.57809459 36.04288396 7.42360554 35.98828125 10.47265625 C35.98403641 11.35766815 35.97979156 12.24268005 35.97541809 13.1545105 C35.95859509 15.9874282 35.92093675 18.81964027 35.8828125 21.65234375 C35.86777032 23.57030224 35.85408111 25.48827186 35.84179688 27.40625 C35.80867977 32.11355406 35.75687305 36.82032919 35.6953125 41.52734375 C34.0453125 42.18734375 32.3953125 42.84734375 30.6953125 43.52734375 C28.1921068 41.78511258 26.85512696 40.35882083 26.27148438 37.32226562 C26.07686225 34.63648024 25.98679325 31.9698212 25.9453125 29.27734375 C25.91566406 28.34148437 25.88601562 27.405625 25.85546875 26.44140625 C25.78491446 24.13663283 25.73214998 21.83286207 25.6953125 19.52734375 C25.18742187 20.39359375 24.67953125 21.25984375 24.15625 22.15234375 C23.46789062 23.26609375 22.77953125 24.37984375 22.0703125 25.52734375 C21.06097656 27.19796875 21.06097656 27.19796875 20.03125 28.90234375 C17.6953125 31.52734375 17.6953125 31.52734375 14.6953125 32.27734375 C10.44594422 31.21500168 9.5497829 29.21750165 7.3203125 25.52734375 C6.28777344 23.85671875 6.28777344 23.85671875 5.234375 22.15234375 C4.47253906 20.85296875 4.47253906 20.85296875 3.6953125 19.52734375 C3.67025635 20.15302246 3.6452002 20.77870117 3.61938477 21.42333984 C3.50355977 24.24988994 3.38077265 27.07609544 3.2578125 29.90234375 C3.19883789 31.37960937 3.19883789 31.37960937 3.13867188 32.88671875 C3.09677734 33.82773437 3.05488281 34.76875 3.01171875 35.73828125 C2.95673218 37.04224854 2.95673218 37.04224854 2.90063477 38.37255859 C2.6953125 40.52734375 2.6953125 40.52734375 1.6953125 42.52734375 C-0.1171875 43.40234375 -0.1171875 43.40234375 -2.3046875 43.52734375 C-4.41259766 42.02929688 -4.41259766 42.02929688 -6.3046875 39.52734375 C-6.67862493 36.75381787 -6.81991121 34.387674 -6.765625 31.62109375 C-6.76470856 30.85937866 -6.76379211 30.09766357 -6.7628479 29.31286621 C-6.75681801 27.70574699 -6.74109016 26.09863868 -6.71630859 24.49169922 C-6.67981183 22.03571021 -6.67528931 19.58123186 -6.67578125 17.125 C-6.66594883 15.56118492 -6.65429128 13.99738003 -6.640625 12.43359375 C-6.63839935 11.70120483 -6.63617371 10.96881592 -6.63388062 10.2142334 C-6.56559886 6.53510229 -6.46288284 3.59329839 -4.3046875 0.52734375 C-2.3046875 -0.47265625 -2.3046875 -0.47265625 0 0 Z " fill="#FCDF64" transform="translate(191.3046875,228.47265625)"/>
<path d="M0 0 C5.58146576 1.55093903 9.15360645 4.59363911 12.08984375 9.5703125 C15.20916633 17.1049081 14.83729668 24.91070049 12.07421875 32.45703125 C9.90567541 37.11251516 6.9358789 40.63102783 2.08984375 42.5703125 C-1.76497835 43.1037028 -5.64809784 43.17300344 -9.53515625 43.3203125 C-10.59734375 43.37574219 -11.65953125 43.43117188 -12.75390625 43.48828125 C-13.76710938 43.53082031 -14.7803125 43.57335937 -15.82421875 43.6171875 C-16.75186035 43.65682617 -17.67950195 43.69646484 -18.63525391 43.73730469 C-20.91015625 43.5703125 -20.91015625 43.5703125 -22.91015625 41.5703125 C-23.12247687 38.58083811 -23.21411343 35.68637384 -23.2109375 32.6953125 C-23.21522263 31.81504395 -23.21950775 30.93477539 -23.22392273 30.02783203 C-23.22967066 28.16504782 -23.23016289 26.30224116 -23.22583008 24.43945312 C-23.22266878 21.58164409 -23.24612763 18.72486853 -23.27148438 15.8671875 C-23.2737571 14.05989715 -23.27446099 12.25260399 -23.2734375 10.4453125 C-23.28264725 9.58695801 -23.29185699 8.72860352 -23.30134583 7.84423828 C-23.2824707 5.4375 -23.2824707 5.4375 -22.91015625 1.5703125 C-16.94275319 -2.40795621 -6.98140915 -1.03081209 0 0 Z M-14.91015625 8.5703125 C-14.99763832 10.49698757 -15.01712959 12.42683111 -15.0078125 14.35546875 C-15.00458984 15.52529297 -15.00136719 16.69511719 -14.99804688 17.90039062 C-14.98966797 19.13208984 -14.98128906 20.36378906 -14.97265625 21.6328125 C-14.96814453 22.86837891 -14.96363281 24.10394531 -14.95898438 25.37695312 C-14.94715233 28.44145367 -14.93066798 31.50585971 -14.91015625 34.5703125 C-12.15109106 35.94984509 -10.10199248 35.58151949 -7.03515625 35.3828125 C-5.98585938 35.32738281 -4.9365625 35.27195312 -3.85546875 35.21484375 C-0.34524661 34.44669169 0.85444123 33.32593542 3.08984375 30.5703125 C5.79356487 25.70361448 5.89156866 20.63193313 4.5078125 15.34765625 C3.23560349 12.14680163 2.23873284 10.09788586 -0.96875 8.625 C-8.33944121 6.74286529 -8.33944121 6.74286529 -14.91015625 8.5703125 Z " fill="#FCDE60" transform="translate(398.91015625,228.4296875)"/>
<path d="M0 0 C0.33 -0.33 0.66 -0.66 1 -1 C3.4375 -1.25 3.4375 -1.25 6 -1 C8.33996123 2.50994184 8.2460153 3.94556575 8.23046875 8.09375 C8.22853516 9.28871094 8.22660156 10.48367187 8.22460938 11.71484375 C8.20624023 13.58849609 8.20624023 13.58849609 8.1875 15.5 C8.18685547 16.74910156 8.18621094 17.99820312 8.18554688 19.28515625 C8.14043257 28.57870228 8.14043257 28.57870228 7 32 C3.86650268 33.04449911 3.01031744 32.93423645 0 32 C0 31.34 0 30.68 0 30 C-0.825 30.495 -1.65 30.99 -2.5 31.5 C-6.89396025 33.38312582 -9.24868421 33.45250627 -14 33 C-18.58684931 31.07992355 -21.07715933 27.8971209 -24 24 C-25.91795402 18.24613793 -25.89303484 12.19393183 -23.375 6.625 C-17.99014383 -2.61152413 -9.38887502 -2.12006855 0 0 Z M-15 9 C-17.32826375 12.21522137 -17.39711181 15.10830425 -17 19 C-15.23526445 22.71156874 -15.23526445 22.71156874 -12 25 C-7.03151359 25.46376568 -7.03151359 25.46376568 -2.625 23.4375 C-0.46461749 20.19692624 -0.06812554 17.88315597 0 14 C-1.59008814 10.31769061 -3.54992469 8.04848222 -7 6 C-10.65351863 6 -12.06026776 6.88942301 -15 9 Z " fill="#F9DD69" transform="translate(359,239)"/>
<path d="M0 0 C0.33 -0.33 0.66 -0.66 1 -1 C3.4375 -1.1875 3.4375 -1.1875 6 -1 C8 1 8 1 8.22705078 3.98095703 C8.21657715 5.22731934 8.20610352 6.47368164 8.1953125 7.7578125 C8.1924826 8.42086395 8.18965271 9.08391541 8.18673706 9.76705933 C8.17553435 11.88655583 8.15043051 14.00563104 8.125 16.125 C8.11497028 17.56119182 8.10584441 18.99739025 8.09765625 20.43359375 C8.075595 23.95586628 8.04106494 27.47789203 8 31 C6.15625 32.0625 6.15625 32.0625 4 33 C2.33333333 32.33333333 0.66666667 31.66666667 -1 31 C-2.34103253 31.65104069 -3.67358941 32.31966394 -5 33 C-9.60153351 33.71951251 -13.11657853 33.43337657 -17.3125 31.375 C-21.77871269 27.42811436 -24.08485507 24.0390904 -24.9375 18.125 C-25.28366254 12.21360887 -24.22060816 7.87879396 -20.58984375 3.171875 C-14.63443123 -2.85393246 -7.73337069 -1.746245 0 0 Z M-14 8 C-16.32455736 11.44675746 -17.00954896 13.44616045 -16.9375 17.625 C-15.89281889 21.385852 -15.25572315 22.85807687 -12 25 C-8.54295504 25.83345815 -8.54295504 25.83345815 -5 25 C-1.76382967 22.10810311 -0.2042252 20.25087936 0.5 15.9375 C-0.06957551 12.59124389 -0.9185001 10.67621416 -3 8 C-6.90049599 5.44029951 -10.12765613 5.33776359 -14 8 Z " fill="#FBDD5E" transform="translate(259,239)"/>
<path d="M0 0 C4.40045992 3.0384128 7.18430028 6.64999266 8.625 11.8125 C9.24869556 18.15340486 8.25712136 22.52834925 4.625 27.8125 C-0.23345034 32.43395276 -4.3044545 33.18617322 -10.80859375 33.08203125 C-15.67465579 32.57098364 -18.69248714 30.70425939 -21.9140625 27.08203125 C-25.45163538 22.13140552 -26.34561179 17.79793935 -25.375 11.8125 C-23.61060844 5.93119479 -21.2417122 3.25975448 -16.375 -0.1875 C-10.93882947 -1.99955684 -5.39284814 -1.8974836 0 0 Z M-14.375 8.8125 C-16.94099956 11.89169947 -17.38345985 13.33028879 -17.3125 17.375 C-16.26667954 21.20967502 -15.71738038 22.66994848 -12.375 24.8125 C-9.56943448 25.42315697 -7.17361076 25.47910954 -4.375 24.8125 C-1.77610484 22.48015819 -0.68080033 20.60758086 0.5625 17.375 C0.65063557 13.76144155 -0.41347405 11.82017312 -2.375 8.8125 C-7.36238164 5.16319636 -9.36731141 5.27047636 -14.375 8.8125 Z " fill="#FADD63" transform="translate(443.375,239.1875)"/>
<path d="M0 0 C1.6875 1.16796875 1.6875 1.16796875 2.5625 4.16796875 C2.60375 5.15796875 2.645 6.14796875 2.6875 7.16796875 C2.0275 7.82796875 1.3675 8.48796875 0.6875 9.16796875 C-1.51953125 8.85546875 -1.51953125 8.85546875 -4.125 8.16796875 C-7.32101877 7.45774236 -9.07073418 7.11760087 -12.3125 7.79296875 C-14.71724458 9.44623065 -15.45984681 10.37746741 -16.3125 13.16796875 C-16.78603317 16.87731192 -16.55145776 18.70996638 -14.8125 22.04296875 C-11.89319484 24.52437814 -10.12262969 24.64691133 -6.34765625 24.4140625 C-3.65372839 24.08830923 -0.98688336 23.62457079 1.6875 23.16796875 C2.6875 24.16796875 2.6875 24.16796875 2.75 27.23046875 C2.729375 28.19984375 2.70875 29.16921875 2.6875 30.16796875 C-3.49997186 33.39621494 -9.52583397 34.61488871 -16.3671875 32.546875 C-20.54262284 30.53083863 -22.83475944 27.74235649 -24.6484375 23.5078125 C-26.15085837 18.21398837 -26.39737299 12.97478907 -24.39453125 7.79296875 C-19.35690531 -1.07586138 -9.5251314 -3.42711653 0 0 Z " fill="#FBDE5C" transform="translate(482.3125,238.83203125)"/>
<path d="M0 0 C1.67542976 0.28604898 3.34385343 0.61781233 5 1 C5.33 3.31 5.66 5.62 6 8 C6.969375 7.979375 7.93875 7.95875 8.9375 7.9375 C12 8 12 8 13 9 C13.1875 11.4375 13.1875 11.4375 13 14 C12.34 14.66 11.68 15.32 11 16 C9.35 16 7.7 16 6 16 C6 21.61 6 27.22 6 33 C8.475 32.505 8.475 32.505 11 32 C11.66 32.66 12.32 33.32 13 34 C12.625 36.625 12.625 36.625 12 39 C8.5667116 40.47140931 6.53203492 41.09388852 2.8125 40.4375 C-0.73531876 38.62417041 -1.61990693 37.75692003 -3 34 C-3.5066536 27.92953922 -3.06367981 21.9831989 -2 16 C-4.97 15.505 -4.97 15.505 -8 15 C-8.75 13.25 -8.75 13.25 -9 11 C-7.14944202 8.76656796 -5.59616917 7.29808458 -3 6 C-2.29788106 4.34795544 -1.63028587 2.68076231 -1 1 C-0.67 0.67 -0.34 0.34 0 0 Z " fill="#FBDE62" transform="translate(315,231)"/>
<path d="M0 0 C4.55555556 0.55555556 4.55555556 0.55555556 6 2 C6.08874135 5.10251201 6.11518455 8.1826812 6.09765625 11.28515625 C6.0962413 12.21597519 6.09482635 13.14679413 6.09336853 14.1058197 C6.08775172 17.09141191 6.0751964 20.07693029 6.0625 23.0625 C6.05748716 25.08137913 6.05292388 27.10025943 6.04882812 29.11914062 C6.03777683 34.07945572 6.02050095 39.03971532 6 44 C3.6875 45.125 3.6875 45.125 1 46 C-2 44 -2 44 -2.3742218 42.1784668 C-2.37359238 41.44281494 -2.37296295 40.70716309 -2.37231445 39.94921875 C-2.37854324 39.11495361 -2.38477203 38.28068848 -2.39118958 37.42114258 C-2.38197983 36.51904053 -2.37277008 35.61693848 -2.36328125 34.6875 C-2.36402901 33.30050903 -2.36402901 33.30050903 -2.36479187 31.88549805 C-2.36244907 29.92852634 -2.35270846 27.97155176 -2.33618164 26.01464844 C-2.31259503 23.0120969 -2.3156183 20.01043306 -2.32226562 17.0078125 C-2.31668892 15.10936968 -2.30957909 13.21093062 -2.30078125 11.3125 C-2.30214836 9.95934692 -2.30214836 9.95934692 -2.30354309 8.57885742 C-2.29401108 7.74459229 -2.28447906 6.91032715 -2.2746582 6.05078125 C-2.27005081 5.31512939 -2.26544342 4.57947754 -2.26069641 3.8215332 C-2 2 -2 2 0 0 Z " fill="#FDDE58" transform="translate(278,226)"/>
<path d="M0 0 C0.74572266 -0.00386719 1.49144531 -0.00773438 2.25976562 -0.01171875 C7.81086499 -0.00163501 7.81086499 -0.00163501 8.9375 1.125 C9.02517112 3.19762076 9.04445873 5.27320294 9.03515625 7.34765625 C9.03193359 8.60771484 9.02871094 9.86777344 9.02539062 11.16601562 C9.01703403 12.50651109 9.00856907 13.84700588 9 15.1875 C8.9949866 16.53189942 8.99042342 17.8763006 8.98632812 19.22070312 C8.97449488 22.52217941 8.95800971 25.82356803 8.9375 29.125 C7.2875 29.125 5.6375 29.125 3.9375 29.125 C3.9375 27.805 3.9375 26.485 3.9375 25.125 C2.9475 25.125 1.9575 25.125 0.9375 25.125 C1.04449219 24.38894531 1.15148437 23.65289062 1.26171875 22.89453125 C2.09033215 16.86033509 2.09033215 16.86033509 0.6875 11.0625 C-2.70421052 7.30739193 -6.29347749 6.3847418 -11.0625 5.125 C-10.6875 3.1875 -10.6875 3.1875 -10.0625 1.125 C-6.88856311 -0.46196844 -3.48075795 -0.0181447 0 0 Z " fill="#FCDE5B" transform="translate(356.0625,238.875)"/>
<path d="M0 0 C4.55555556 0.55555556 4.55555556 0.55555556 6 2 C6.08783542 4.21855264 6.10694609 6.43988496 6.09765625 8.66015625 C6.0962413 9.32462265 6.09482635 9.98908905 6.09336853 10.6736908 C6.08775518 12.80333899 6.07520054 14.93288339 6.0625 17.0625 C6.05748671 18.50325369 6.05292351 19.94400903 6.04882812 21.38476562 C6.03778145 24.92321102 6.02050792 28.46159539 6 32 C3.6875 33.125 3.6875 33.125 1 34 C0.01 33.34 -0.98 32.68 -2 32 C-2.37231445 29.05078125 -2.37231445 29.05078125 -2.36328125 25.3125 C-2.36377975 24.65419189 -2.36427826 23.99588379 -2.36479187 23.31762695 C-2.36245104 21.92558779 -2.3527218 20.53354443 -2.33618164 19.14160156 C-2.31258934 17.0080795 -2.3156196 14.87580681 -2.32226562 12.7421875 C-2.27909311 2.27909311 -2.27909311 2.27909311 0 0 Z " fill="#FDDE5D" transform="translate(295,238)"/>
<path d="M0 0 C0.66 0.33 1.32 0.66 2 1 C2 10.9 2 20.8 2 31 C0.02 31.99 0.02 31.99 -2 33 C-3.66666667 32.33333333 -5.33333333 31.66666667 -7 31 C-8.33886526 31.65548612 -9.67158632 32.32358348 -11 33 C-15.22617436 33.57291448 -18.83997037 33.67904173 -22.5625 31.5 C-23.036875 31.005 -23.51125 30.51 -24 30 C-22.35 29.67 -20.7 29.34 -19 29 C-19 29.99 -19 30.98 -19 32 C-16.50447516 31.21869929 -16.50447516 31.21869929 -14 30 C-13.67 29.01 -13.34 28.02 -13 27 C-14.98 26.67 -16.96 26.34 -19 26 C-18.67 25.34 -18.34 24.68 -18 24 C-16.9275 24.061875 -15.855 24.12375 -14.75 24.1875 C-10.89133813 23.99456691 -9.71182212 23.60334924 -7 21 C-8.12451727 23.9719385 -9.22293791 26.33440687 -11 29 C-9.6696875 28.9690625 -9.6696875 28.9690625 -8.3125 28.9375 C-5 29 -5 29 0 30 C0 20.1 0 10.2 0 0 Z " fill="#F7DE75" transform="translate(265,239)"/>
<path d="M0 0 C4.55555556 0.55555556 4.55555556 0.55555556 6 2 C6.08874135 5.10251201 6.11518455 8.1826812 6.09765625 11.28515625 C6.0962413 12.21597519 6.09482635 13.14679413 6.09336853 14.1058197 C6.08775172 17.09141191 6.0751964 20.07693029 6.0625 23.0625 C6.05748716 25.08137913 6.05292388 27.10025943 6.04882812 29.11914062 C6.03777683 34.07945572 6.02050095 39.03971532 6 44 C4.515 44.495 4.515 44.495 3 45 C3.33 44.01 3.66 43.02 4 42 C4.15434158 39.05282827 4.2575603 36.12501135 4.31640625 33.17578125 C4.33718735 32.31438034 4.35796844 31.45297943 4.37937927 30.56547546 C4.44474909 27.81456456 4.50370132 25.06355844 4.5625 22.3125 C4.60569717 20.44725579 4.64931185 18.5820212 4.69335938 16.71679688 C4.80041763 12.14462876 4.90172054 7.5723649 5 3 C3.35 3.66 1.7 4.32 0 5 C-0.33 17.54 -0.66 30.08 -1 43 C-0.34 43 0.32 43 1 43 C1 43.66 1 44.32 1 45 C0.01 44.67 -0.98 44.34 -2 44 C-2.04934399 38.05518819 -2.08569282 32.11049491 -2.10986328 26.16552734 C-2.11993671 24.14206873 -2.13359595 22.11862472 -2.15087891 20.09521484 C-2.17506847 17.19104411 -2.18646949 14.28706539 -2.1953125 11.3828125 C-2.20563507 10.47443634 -2.21595764 9.56606018 -2.22659302 8.63015747 C-2.22674408 7.78943695 -2.22689514 6.94871643 -2.22705078 6.08251953 C-2.231492 5.34083527 -2.23593323 4.599151 -2.24050903 3.83499146 C-2 2 -2 2 0 0 Z " fill="#F6DD7A" transform="translate(278,226)"/>
<path d="M0 0 C0.93199219 0.144375 1.86398438 0.28875 2.82421875 0.4375 C16.59118784 2.44199297 29.26960334 2.12697708 43 0 C43.495 0.99 43.495 0.99 44 2 C37.53205867 3.51233701 31.64409958 4.21432579 25 4 C25 4.66 25 5.32 25 6 C16.81614467 5.62268394 8.68716245 5.06606288 1 2 C0.67 1.34 0.34 0.68 0 0 Z " fill="#82AD4C" transform="translate(62,325)"/>
<path d="M0 0 C0.66 0 1.32 0 2 0 C2 2.31 2 4.62 2 7 C2.99 7 3.98 7 5 7 C5.33 4.69 5.66 2.38 6 0 C6.474375 0.495 6.94875 0.99 7.4375 1.5 C11.20358351 3.70453669 14.73459379 3.24608113 19 3 C19 3.66 19 4.32 19 5 C15.37 5 11.74 5 8 5 C8 5.66 8 6.32 8 7 C7.01 7.495 7.01 7.495 6 8 C6.99 8.33 7.98 8.66 9 9 C9 9.66 9 10.32 9 11 C11.97 11 14.94 11 18 11 C18 11.33 18 11.66 18 12 C11.1044534 12.49947621 6.57647201 12.2985305 1 8 C-0.5 5.4375 -0.5 5.4375 -1 3 C-0.67 2.01 -0.34 1.02 0 0 Z " fill="#F9DF73" transform="translate(460,260)"/>
<path d="M0 0 C1.4606285 2.64738916 2 3.89448334 2 7 C1.34 7 0.68 7 0 7 C-0.33 8.65 -0.66 10.3 -1 12 C-1.66 12 -2.32 12 -3 12 C-3 12.99 -3 13.98 -3 15 C-3.99 15 -4.98 15 -6 15 C-7.47005445 7.7722323 -7.47005445 7.7722323 -5.25 4.125 C-3 2 -3 2 0 0 Z " fill="#FCDF56" transform="translate(341,243)"/>
<path d="M0 0 C3 0.125 3 0.125 4 1.125 C4.04092937 3.45797433 4.04241723 5.79205225 4 8.125 C1.69 8.455 -0.62 8.785 -3 9.125 C-5 6.125 -5 6.125 -4.6875 3.5 C-3.68897505 0.05055016 -3.71397355 0.1547489 0 0 Z " fill="#FADF6D" transform="translate(297,226.875)"/>
<path d="M0 0 C0.99 0.33 1.98 0.66 3 1 C4.02737401 7.84503405 4.72464652 12.96350392 1 19 C-2.10844567 21.46531898 -5.14012618 21.17544881 -9 21 C-8.443125 20.608125 -7.88625 20.21625 -7.3125 19.8125 C-4.10400456 17.2977333 -0.84338943 14.68677886 1 11 C1.21377721 5.39296787 1.21377721 5.39296787 0 0 Z " fill="#80AF3D" transform="translate(130,243)"/>
<path d="M0 0 C4.81827959 3.38581809 7.05351354 6.73031952 8.6875 12.375 C9.491849 19.13153164 8.85323502 24.51367744 7 31 C5.44576388 26.46681132 6.07993314 21.63948527 6.390625 16.93164062 C6.51263259 12.86344994 6.26911219 11.30536343 3.53515625 8.203125 C2.69855469 7.47609375 1.86195313 6.7490625 1 6 C0.1875 2.6875 0.1875 2.6875 0 0 Z " fill="#F6DD78" transform="translate(404,231)"/>
<path d="M0 0 C-0.33 1.32 -0.66 2.64 -1 4 C-1.639375 4.12375 -2.27875 4.2475 -2.9375 4.375 C-3.618125 4.58125 -4.29875 4.7875 -5 5 C-5.33 5.66 -5.66 6.32 -6 7 C-6.99 6.67 -7.98 6.34 -9 6 C-9 6.66 -9 7.32 -9 8 C-10.69025892 9.22626628 -12.38491268 10.44731842 -14.109375 11.625 C-16.70573566 13.5132623 -18.80058475 15.66728685 -21 18 C-21 15 -21 15 -18.875 12.6953125 C-4.67477204 0 -4.67477204 0 0 0 Z " fill="#7EAC41" transform="translate(52,179)"/>
<path d="M0 0 C1.59649898 3.19299796 1.09946768 6.64489772 1.0625 10.1484375 C1.05871338 10.95737457 1.05492676 11.76631165 1.05102539 12.59976196 C1.03465262 16.06657021 1.00657608 19.53326152 0.97949219 23 C0.96140327 25.52864029 0.94930876 28.05726134 0.9375 30.5859375 C0.92920166 31.36834808 0.92090332 32.15075867 0.91235352 32.95687866 C0.89647813 36.48455372 1.04862467 39.60722768 2 43 C1.01 42.34 0.02 41.68 -1 41 C-1.27897038 37.96094254 -1.37167364 35.12842703 -1.328125 32.08984375 C-1.32625183 31.20720352 -1.32437866 30.32456329 -1.32244873 29.41517639 C-1.31572096 27.54814887 -1.30179213 25.68113562 -1.28125 23.81420898 C-1.25008874 20.94566863 -1.24028019 18.07767719 -1.234375 15.20898438 C-1.22520566 13.39843075 -1.21483011 11.58788275 -1.203125 9.77734375 C-1.19887512 8.91382797 -1.19462524 8.05031219 -1.19024658 7.16062927 C-1.11714689 1.11714689 -1.11714689 1.11714689 0 0 Z " fill="#F7DF70" transform="translate(377,229)"/>
<path d="M0 0 C2.79872437 2.52788007 4.45773019 4.20411134 5 8 C3.68 8.33 2.36 8.66 1 9 C1.33 11.31 1.66 13.62 2 16 C-0.52588702 13.63707344 -1.88820837 12.33537489 -3 9 C-2.44140625 6.73828125 -2.44140625 6.73828125 -1.5625 4.3125 C-1.13130859 3.10013672 -1.13130859 3.10013672 -0.69140625 1.86328125 C-0.46324219 1.24839844 -0.23507813 0.63351563 0 0 Z " fill="#F6DF73" transform="translate(197,236)"/>
<path d="M0 0 C1.32 0.33 2.64 0.66 4 1 C4.625 3.875 4.625 3.875 5 7 C4.34 7.66 3.68 8.32 3 9 C-0.44165321 8.64700993 -2.06872538 7.95418308 -5 6 C-3.35 5.34 -1.7 4.68 0 4 C0 2.68 0 1.36 0 0 Z " fill="#F8DD6C" transform="translate(480,239)"/>
<path d="M0 0 C3.3 0.66 6.6 1.32 10 2 C9.67 3.65 9.34 5.3 9 7 C8.34 6.34 7.68 5.68 7 5 C5.0732205 5.01494748 5.0732205 5.01494748 3 5.4375 C-0.79836512 6.10081744 -0.79836512 6.10081744 -3 5 C-3 4.34 -3 3.68 -3 3 C-2.34 3 -1.68 3 -1 3 C-0.67 2.01 -0.34 1.02 0 0 Z " fill="#FDDC59" transform="translate(428,263)"/>
<path d="M0 0 C0.66 0.33 1.32 0.66 2 1 C2 1.66 2 2.32 2 3 C2.66 3 3.32 3 4 3 C4.33 2.34 4.66 1.68 5 1 C5 1.66 5 2.32 5 3 C5.66 3 6.32 3 7 3 C5.49616703 7.21073233 2.79335044 8.83237117 -1 11 C-1.99 11 -2.98 11 -4 11 C-4 10.34 -4 9.68 -4 9 C-1 7 -1 7 3 7 C2.38125 6.38125 1.7625 5.7625 1.125 5.125 C-0.25 3.75 -1.625 2.375 -3 1 C-2.01 0.67 -1.02 0.34 0 0 Z " fill="#F7DE6F" transform="translate(402,260)"/>
<path d="M0 0 C0.66 0.33 1.32 0.66 2 1 C-3.21863118 8.99904943 -3.21863118 8.99904943 -7 10 C-9.33203812 10.0777346 -11.66839059 10.08967728 -14 10 C-10.96623556 7.69632373 -7.87444175 5.49138701 -4.75 3.3125 C-3.41195312 2.37857422 -3.41195312 2.37857422 -2.046875 1.42578125 C-1.37140625 0.95527344 -0.6959375 0.48476563 0 0 Z " fill="#7AAD3C" transform="translate(132,310)"/>
<path d="M0 0 C2 3 2 3 2 6 C1.01 6 0.02 6 -1 6 C-1.061875 6.556875 -1.12375 7.11375 -1.1875 7.6875 C-2.35672428 11.01529218 -4.35322804 12.73133832 -7 15 C-7.99 15 -8.98 15 -10 15 C-5.05 7.575 -5.05 7.575 0 0 Z " fill="#F6DE6E" transform="translate(216,234)"/>
<path d="M0 0 C9.65901841 0.92875177 17.5904342 5.51350708 26 10 C24 11 24 11 20.4375 10.1875 C17 9 17 9 16 7 C13.86414083 5.93463672 13.86414083 5.93463672 11.3125 5 C10.41402344 4.65453125 9.51554687 4.3090625 8.58984375 3.953125 C5.74527503 2.90625507 2.89052218 1.91279648 0 1 C0 0.67 0 0.34 0 0 Z " fill="#81AF43" transform="translate(109,171)"/>
<path d="M0 0 C2.77393671 1.42079685 3.91422561 2.70996148 5.5625 5.3125 C5.2325 5.9725 4.9025 6.6325 4.5625 7.3125 C3.94375 6.57 3.94375 6.57 3.3125 5.8125 C1.44047662 3.87863908 1.44047662 3.87863908 -2.4375 4.3125 C-3.4275 5.7975 -3.4275 5.7975 -4.4375 7.3125 C-4.4375 6.6525 -4.4375 5.9925 -4.4375 5.3125 C-5.0975 4.9825 -5.7575 4.6525 -6.4375 4.3125 C-3.98262106 -1.12330337 -3.98262106 -1.12330337 0 0 Z " fill="#F6DF70" transform="translate(191.4375,228.6875)"/>
<path d="M0 0 C0.33 0 0.66 0 1 0 C1.02895225 3.29164829 1.0467823 6.58326399 1.0625 9.875 C1.07087891 10.81214844 1.07925781 11.74929688 1.08789062 12.71484375 C1.09111328 13.61074219 1.09433594 14.50664062 1.09765625 15.4296875 C1.10289307 16.25710449 1.10812988 17.08452148 1.11352539 17.93701172 C1 20 1 20 0 22 C-1.875 22.75 -1.875 22.75 -4 23 C-4.99 22.34 -5.98 21.68 -7 21 C-7 20.34 -7 19.68 -7 19 C-5.02 19 -3.04 19 -1 19 C-0.67 12.73 -0.34 6.46 0 0 Z " fill="#F5DC79" transform="translate(193,249)"/>
<path d="M0 0 C0.33 0.66 0.66 1.32 1 2 C1.66 2 2.32 2 3 2 C3.33 3.98 3.66 5.96 4 8 C4.66 8 5.32 8 6 8 C8.95303159 11.07115285 9.52651586 13.8333396 10 18 C6.83673624 15.09117267 4.78533387 12.21520301 2.75 8.4375 C2.22921875 7.48746094 1.7084375 6.53742188 1.171875 5.55859375 C0 3 0 3 0 0 Z " fill="#7FAE3E" transform="translate(16,280)"/>
<path d="M0 0 C4.82675589 2.41337795 7.69984002 5.86062408 11 10 C10.01 10 9.02 10 8 10 C5.84971696 10.94978897 5.84971696 10.94978897 4 12 C3.67 10.68 3.34 9.36 3 8 C3.66 8 4.32 8 5 8 C3.63016497 4.83884224 3.0109362 4.0072908 0 2 C0 1.34 0 0.68 0 0 Z " fill="#7FB03F" transform="translate(142,187)"/>
<path d="M0 0 C1.67542976 0.28604898 3.34385343 0.61781233 5 1 C5 2.98 5 4.96 5 7 C3.02 7 1.04 7 -1 7 C-1.33 6.34 -1.66 5.68 -2 5 C-1.01 4.34 -0.02 3.68 1 3 C0.34 2.34 -0.32 1.68 -1 1 C-0.67 0.67 -0.34 0.34 0 0 Z " fill="#F7E064" transform="translate(480,262)"/>
<path d="M0 0 C0 0.66 0 1.32 0 2 C-1.65 2.66 -3.3 3.32 -5 4 C-5 4.99 -5 5.98 -5 7 C-7.64 6.67 -10.28 6.34 -13 6 C-9.40464172 2.97989905 -4.81374718 0 0 0 Z " fill="#80B03E" transform="translate(65,173)"/>
<path d="M0 0 C1.85776765 3.13498292 2.20140476 5.37471432 2 9 C1.01 9.33 0.02 9.66 -1 10 C-1.9765625 3.9453125 -1.9765625 3.9453125 -2 2 C-1.34 1.34 -0.68 0.68 0 0 Z " fill="#FEDE53" transform="translate(297,262)"/>
<path d="M0 0 C4.875 4.625 4.875 4.625 6 8 C5.67 8.66 5.34 9.32 5 10 C3.68 9.34 2.36 8.68 1 8 C1.020625 7.236875 1.04125 6.47375 1.0625 5.6875 C1.12942841 2.89814214 1.12942841 2.89814214 0 0 Z " fill="#7DAF3A" transform="translate(153,198)"/>
<path d="M0 0 C-4.455 2.97 -4.455 2.97 -9 6 C-9 4.68 -9 3.36 -9 2 C-8.34 2 -7.68 2 -7 2 C-7 1.34 -7 0.68 -7 0 C-4 -1 -4 -1 0 0 Z " fill="#7CAF3D" transform="translate(132,307)"/>
<path d="M0 0 C1.51953125 1.14453125 1.51953125 1.14453125 3 3 C3.07421875 5.69921875 3.07421875 5.69921875 2.6875 8.6875 C2.50767578 10.17830078 2.50767578 10.17830078 2.32421875 11.69921875 C2.21722656 12.45847656 2.11023438 13.21773438 2 14 C-0.28062828 10.57905758 -0.21925007 9.31812778 -0.125 5.3125 C-0.10695313 4.31863281 -0.08890625 3.32476562 -0.0703125 2.30078125 C-0.04710937 1.54152344 -0.02390625 0.78226563 0 0 Z " fill="#F9DF6F" transform="translate(457,249)"/>
<path d="M0 0 C1.65 0.33 3.3 0.66 5 1 C4.67 2.32 4.34 3.64 4 5 C3.34 4.67 2.68 4.34 2 4 C2.33 5.32 2.66 6.64 3 8 C2.01 7.67 1.02 7.34 0 7 C-1.04449911 3.86650268 -0.93423645 3.01031744 0 0 Z " fill="#FDDE57" transform="translate(400,232)"/>
<path d="M0 0 C3.3 0.33 6.6 0.66 10 1 C8.37660195 2.70884005 6.70680947 4.37446717 5 6 C4.34 6 3.68 6 3 6 C2.01 4.02 1.02 2.04 0 0 Z " fill="#81B53D" transform="translate(99,169)"/>
<path d="M0 0 C0.66 0 1.32 0 2 0 C2 1.32 2 2.64 2 4 C2.66 4 3.32 4 4 4 C3.67 5.32 3.34 6.64 3 8 C2.34 8 1.68 8 1 8 C0.67 8.99 0.34 9.98 0 11 C0 7.37 0 3.74 0 0 Z " fill="#FEEA2E" transform="translate(312,254)"/>
<path d="M0 0 C1.67542976 0.28604898 3.34385343 0.61781233 5 1 C5 1.66 5 2.32 5 3 C3.7934375 3.4021875 3.7934375 3.4021875 2.5625 3.8125 C1.716875 4.204375 0.87125 4.59625 0 5 C-0.33 5.99 -0.66 6.98 -1 8 C-1.04241723 5.66705225 -1.04092937 3.33297433 -1 1 C-0.67 0.67 -0.34 0.34 0 0 Z " fill="#FADD6A" transform="translate(278,226)"/>
<path d="M0 0 C1.32 0 2.64 0 4 0 C3.67 2.64 3.34 5.28 3 8 C2.01 8 1.02 8 0 8 C0 5.36 0 2.72 0 0 Z " fill="#FADB6C" transform="translate(462,250)"/>
<path d="M0 0 C0.99 0 1.98 0 3 0 C3 1.32 3 2.64 3 4 C1.35 4.66 -0.3 5.32 -2 6 C-2.33 4.68 -2.66 3.36 -3 2 C-2.01 2 -1.02 2 0 2 C0 1.34 0 0.68 0 0 Z " fill="#FDDF53" transform="translate(424,246)"/>
<path d="M0 0 C-0.99 0.495 -0.99 0.495 -2 1 C-2 1.66 -2 2.32 -2 3 C-2.99 3 -3.98 3 -5 3 C-5.33 3.99 -5.66 4.98 -6 6 C-6.66 5.67 -7.32 5.34 -8 5 C-7.625 3.0625 -7.625 3.0625 -7 1 C-4.53721199 -0.231394 -2.7204945 -0.07159196 0 0 Z " fill="#FDDE53" transform="translate(353,239)"/>
<path d="M0 0 C0.99 0.33 1.98 0.66 3 1 C3 2.32 3 3.64 3 5 C3.66 5.66 4.32 6.32 5 7 C3.35 6.67 1.7 6.34 0 6 C-0.38218767 4.34385343 -0.71395102 2.67542976 -1 1 C-0.67 0.67 -0.34 0.34 0 0 Z " fill="#FBEB4C" transform="translate(293,229)"/>
<path d="M0 0 C0 2 0 2 -1.6875 4.0625 C-4.21335423 6.17875625 -5.77071161 6.64119018 -9 7 C-3.34042553 0 -3.34042553 0 0 0 Z " fill="#F6DF76" transform="translate(429,239)"/>
<path d="M0 0 C2.97 0.495 2.97 0.495 6 1 C4.71389765 3.5722047 3.66606019 4.00974907 1 5 C-1.25 4.625 -1.25 4.625 -3 4 C-2.01 2.68 -1.02 1.36 0 0 Z " fill="#7EB33A" transform="translate(24,203)"/>
<path d="M0 0 C0.33 0 0.66 0 1 0 C1 2.97 1 5.94 1 9 C0.01 9.495 0.01 9.495 -1 10 C-1.9765625 3.9453125 -1.9765625 3.9453125 -2 2 C-1.34 1.34 -0.68 0.68 0 0 Z " fill="#F7E06B" transform="translate(300,261)"/>
<path d="M0 0 C0 0.33 0 0.66 0 1 C-1.19625 1.12375 -2.3925 1.2475 -3.625 1.375 C-7.27596813 1.82325054 -10.54524899 2.70446837 -14 4 C-10.36515075 -1.28705346 -5.79646176 -0.3982302 0 0 Z " fill="#F6DD7C" transform="translate(254,238)"/>
<path d="M0 0 C0.66 0.33 1.32 0.66 2 1 C2.625 3.5625 2.625 3.5625 3 6 C2.34 6 1.68 6 1 6 C1 6.66 1 7.32 1 8 C0.34 8 -0.32 8 -1 8 C-1.125 2.25 -1.125 2.25 0 0 Z " fill="#FBDB6B" transform="translate(197,236)"/>
<path d="M0 0 C0.99 0.33 1.98 0.66 3 1 C2.67 1.66 2.34 2.32 2 3 C1.01 3 0.02 3 -1 3 C-1 3.66 -1 4.32 -1 5 C-2.32 5.33 -3.64 5.66 -5 6 C-2.25 1.125 -2.25 1.125 0 0 Z " fill="#F2DE6E" transform="translate(222,228)"/>
<path d="M0 0 C2.64 0 5.28 0 8 0 C7.67 0.99 7.34 1.98 7 3 C4.36 2.67 1.72 2.34 -1 2 C-0.67 1.34 -0.34 0.68 0 0 Z " fill="#77AC31" transform="translate(75,328)"/>
<path d="M0 0 C0.33 0.66 0.66 1.32 1 2 C0.0625 4.125 0.0625 4.125 -1 6 C-2.65 5.67 -4.3 5.34 -6 5 C-5.195625 4.360625 -4.39125 3.72125 -3.5625 3.0625 C-1.7249496 1.59396498 -1.7249496 1.59396498 0 0 Z " fill="#80AD43" transform="translate(101,286)"/>
<path d="M0 0 C0.33 0.66 0.66 1.32 1 2 C0.01 3.485 0.01 3.485 -1 5 C-3.3828125 5.29296875 -3.3828125 5.29296875 -6.125 5.1875 C-7.03507812 5.16042969 -7.94515625 5.13335937 -8.8828125 5.10546875 C-9.58148438 5.07066406 -10.28015625 5.03585937 -11 5 C-10.67 4.34 -10.34 3.68 -10 3 C-8.3603125 3.0928125 -8.3603125 3.0928125 -6.6875 3.1875 C-3.07873917 3.35597914 -3.07873917 3.35597914 -1.0625 1.5 C-0.711875 1.005 -0.36125 0.51 0 0 Z " fill="#F2DF78" transform="translate(357,260)"/>
<path d="M0 0 C0.66 0 1.32 0 2 0 C2.33 2.97 2.66 5.94 3 9 C2.01 8.67 1.02 8.34 0 8 C0 5.36 0 2.72 0 0 Z " fill="#F6DC7C" transform="translate(293,262)"/>
<path d="M0 0 C0.99 0.33 1.98 0.66 3 1 C2.34 1 1.68 1 1 1 C0.5978125 2.1446875 0.5978125 2.1446875 0.1875 3.3125 C-0.94424112 5.87380884 -1.91223401 7.19692938 -4 9 C-3.71848913 7.68528432 -3.42446661 6.37324233 -3.125 5.0625 C-2.96257812 4.33160156 -2.80015625 3.60070312 -2.6328125 2.84765625 C-2 1 -2 1 0 0 Z " fill="#F6DD6C" transform="translate(216,245)"/>
<path d="M0 0 C0.33 0 0.66 0 1 0 C1 3.3 1 6.6 1 10 C-0.32 10 -1.64 10 -3 10 C-2.67 8.68 -2.34 7.36 -2 6 C-1.34 6 -0.68 6 0 6 C0 4.02 0 2.04 0 0 Z " fill="#7EB33F" transform="translate(171,237)"/>
<path d="M0 0 C1.32 0.66 2.64 1.32 4 2 C2.61410019 5.09162264 1.50816459 6.49183541 -1 9 C-0.67 6.03 -0.34 3.06 0 0 Z " fill="#7EB139" transform="translate(142,288)"/>
<path d="M0 0 C3.875 1.75 3.875 1.75 5 4 C2.69 4 0.38 4 -2 4 C-1.34 2.68 -0.68 1.36 0 0 Z " fill="#79B52C" transform="translate(113,323)"/>
</svg>
